<?xml version="1.0" standalone="no"?>
<!DOCTYPE svg PUBLIC "-//W3C//DTD SVG 1.1//EN" "http://www.w3.org/Graphics/SVG/1.1/DTD/svg11.dtd" >
<svg>
<metadata>
Created by FontForge 20120731 at Wed Sep  4 10:30:29 2019
 By www-data
Copyright (c) 2016 by Deni Anggara. All rights reserved.
</metadata>
<defs>
<font id="NeutrifPro-Medium" horiz-adv-x="0" >
  <font-face 
    font-family="NeutrifPro-Medium"
    font-weight="400"
    font-stretch="normal"
    units-per-em="1000"
    panose-1="0 0 6 0 0 0 0 0 0 0"
    ascent="752"
    descent="-248"
    x-height="480"
    cap-height="710"
    bbox="-592 -259.999 1319 1009"
    underline-thickness="50"
    underline-position="-100"
    unicode-range="U+0020-FB02"
  />
<missing-glyph horiz-adv-x="550" 
d="M451 -240h-349v1100h349v-1100zM185 786v-36h71v-41h-72v-36h182v36h-72v41h72v36h-181zM184 644v-114h182v37h-72v77h-110zM256 567h-36v40h36v-40zM184 500v-36h72v-41h-72v-36h110v77h72v36h-182zM330 434v-72h-146v-38h182v110h-36zM256 300v-61h38v25h36v-52h-110
v88h-36v-124h182v124h-110zM184 110v-125h182v125h-182zM330 22h-110v52h110v-52zM184 -40v-36h77l-77 -52v-36h182v36h-112l77 52h35v36h-182z" />
    <glyph glyph-name="fi" unicode="fi" horiz-adv-x="532" 
d="M185 480h281v-86v-394h-100v394h-181v-394h-101c0 154.667 -0.333008 286 -1 394h-67v86h67v82c0 50 14.833 89.833 44.5 119.5s67.5 44.5 113.5 44.5c18.667 0 36.334 -2.33301 53.001 -7l-20 -94c-8.66699 2 -17.334 3 -26.001 3c-20 0 -35.5 -6.33301 -46.5 -19
s-16.5 -31 -16.5 -55v-74zM468 704c14 -14 21 -30.667 21 -50c0 -18 -7 -34.167 -21 -48.5s-30.333 -21.5 -49 -21.5c-19.333 0 -36 7.16699 -50 21.5s-21 30.5 -21 48.5c0 19.333 7 36 21 50s30.667 21 50 21c18.667 0 35 -7 49 -21z" />
    <glyph glyph-name="fl" unicode="fl" horiz-adv-x="618" 
d="M577 92l0.000976562 -91.998l-98 1c-34 0 -59.5 10.667 -76.5 32s-25.5 51.666 -25.5 90.999v270h-192v-394h-101c0 155.333 -0.333008 286.666 -1 393.999h-67v86h67v79c0 50 14.833 89.833 44.5 119.5s67.5 44.5 113.5 44.5c18.667 0 36.334 -2.33301 53.001 -7
l-20 -94c-8.66699 2 -17.334 3 -26.001 3c-20 0 -35.5 -6.33301 -46.5 -19s-16.5 -31 -16.5 -55v-71h192v230h102v-571c0 -18.667 3.66699 -31 11 -37s18.666 -9 33.999 -9z" />
    <glyph glyph-name="f_f" unicode="ff" horiz-adv-x="589" 
d="M462 480h94.9971v-86h-94v-394h-101l-1 394h-177l1 -394h-102v394h-67v86h67v79c0 50 14.667 89.833 44 119.5s67 44.5 113 44.5c18.667 0 36.334 -2.33301 53.001 -7l-20 -94c-9.33301 2 -17.666 3 -24.999 3c-20 0 -35.667 -6.33301 -47 -19s-17 -31 -17 -55v-71h177
v79c0 50 14.833 89.833 44.5 119.5s67.5 44.5 113.5 44.5c18.667 0 36.334 -2.33301 53.001 -7l-21 -94c-8.66699 2 -17 3 -25 3c-20 0 -35.667 -6.33301 -47 -19s-17 -31 -17 -55v-71z" />
    <glyph glyph-name="f_f_i" unicode="ffi" horiz-adv-x="800" 
d="M448 480h272.999v-86v-394h-100v394h-173v-394h-101v394h-169l1 -394h-102v394h-61v86h61v82c0 50 14.833 89.833 44.5 119.5s67.5 44.5 113.5 44.5c18.667 0 36.334 -2.33301 53.001 -7l-21 -94c-8.66699 2 -17 3 -25 3c-20 0 -35.667 -6.33301 -47 -19s-17 -31 -17 -55
v-74h169v82c0 50 14.667 89.833 44 119.5s67 44.5 113 44.5c18.667 0 36.334 -2.33301 53.001 -7l-20 -94c-8.66699 2 -17.334 3 -26.001 3c-20 0 -35.5 -6.33301 -46.5 -19s-16.5 -31 -16.5 -55v-74zM722.499 704c13.667 -14 20.5 -30.667 20.5 -50
c0 -18 -6.83301 -34.167 -20.5 -48.5s-29.834 -21.5 -48.501 -21.5c-19.333 0 -36 7.16699 -50 21.5s-21 30.5 -21 48.5c0 19.333 7 36 21 50s30.667 21 50 21c18.667 0 34.834 -7 48.501 -21z" />
    <glyph glyph-name="f_f_l" unicode="ffl" horiz-adv-x="867" 
d="M827 92l-0.00292969 -91.999l-98 1c-34 0 -59.333 10.667 -76 32s-25 51.666 -25 90.999v270h-183l1 -394h-102v394h-166l1 -394h-102v394h-61v86h61v79c0 50 14.833 89.833 44.5 119.5s67.5 44.5 113.5 44.5c18.667 0 36.334 -2.33301 53.001 -7l-21 -94
c-8.66699 2 -17 3 -25 3c-20 0 -35.667 -6.33301 -47 -19s-17 -31 -17 -55v-71h166v79c0 50 14.667 89.833 44 119.5s67 44.5 113 44.5c18.667 0 36.334 -2.33301 53.001 -7l-20 -94c-9.33301 2 -17.666 3 -24.999 3c-20 0 -35.667 -6.33301 -47 -19s-17 -31 -17 -55v-71
h183v230h101l1 -571c0 -18.667 3.5 -31 10.5 -37s18.167 -9 33.5 -9z" />
    <glyph glyph-name="f_t" unicode="ft" horiz-adv-x="619" 
d="M468 393l-0.00195312 -249.999c0 -18.667 3.83301 -31.667 11.5 -39s18.834 -11 33.501 -11h53v-93h-98c-34 0.666992 -59.5 11.667 -76.5 33s-25.5 51.666 -25.5 90.999v269h-188l1 -393h-102v393h-61v87h61v82c0 50 14.833 89.833 44.5 119.5s67.5 44.5 113.5 44.5
c18.667 0 36.334 -2.33301 53.001 -7l-21 -94c-8.66699 2 -17 3 -25 3c-20 0 -35.667 -6.33301 -47 -19s-17 -31 -17 -55v-74h188v152h102v-152h110v-87h-110z" />
    <glyph glyph-name=".notdef" horiz-adv-x="550" 
d="M451 -240h-349v1100h349v-1100zM185 786v-36h71v-41h-72v-36h182v36h-72v41h72v36h-181zM184 644v-114h182v37h-72v77h-110zM256 567h-36v40h36v-40zM184 500v-36h72v-41h-72v-36h110v77h72v36h-182zM330 434v-72h-146v-38h182v110h-36zM256 300v-61h38v25h36v-52h-110
v88h-36v-124h182v124h-110zM184 110v-125h182v125h-182zM330 22h-110v52h110v-52zM184 -40v-36h77l-77 -52v-36h182v36h-112l77 52h35v36h-182z" />
    <glyph glyph-name="space" unicode=" " horiz-adv-x="233" 
 />
    <glyph glyph-name="exclam" unicode="!" horiz-adv-x="288" 
d="M97 166l-12 258v286h118v-286l-13 -258h-93zM98.5 6c-13.667 13.333 -20.498 29 -20.498 47c0 18.667 6.66699 34.667 20 48s29.666 20 48.999 20c18 0 33.833 -6.66699 47.5 -20s20.5 -29.333 20.5 -48c0 -18 -6.83301 -33.667 -20.5 -47s-29.5 -20 -47.5 -20
c-18.667 0 -34.834 6.66699 -48.501 20z" />
    <glyph glyph-name="quotedbl" unicode="&#x22;" horiz-adv-x="373" 
d="M141 491l-59 -0.00195312l-21 185c-2 20.667 2.33301 36.334 13 47.001s23.667 15.334 39 14.001c14 0 26 -5.16699 36 -15.5s14 -25.5 12 -45.5zM291 490.998l-59 -0.00195312l-21 185c-2 20.667 2.33301 36.334 13 47.001s23.667 15.334 39 14.001
c14 0 26 -5.16699 36 -15.5s14 -25.5 12 -45.5z" />
    <glyph glyph-name="numbersign" unicode="#" horiz-adv-x="744" 
d="M553 416l-24 -122h109l-19 -101h-110l-38 -193h-101l38 193h-141l-37 -193h-101l37 193h-96l19 101h97l24 122h-110l19 102h111l38 192h101l-38 -192h141l38 192h101l-38 -192h101l-19 -102h-102zM452 416h-141l-24 -122h141z" />
    <glyph glyph-name="dollar" unicode="$" horiz-adv-x="616" 
d="M510 330c32 -35.333 48 -80 48 -134c0 -56 -18.5 -102.833 -55.5 -140.5s-85.833 -59.5 -146.5 -65.5v-71h-89v74c-56.667 9.33301 -104.334 30.833 -143.001 64.5s-61.334 74.167 -68.001 121.5l103 15c4.66699 -29.333 22.5 -54.166 53.5 -74.499
s68.167 -30.5 111.5 -30.5c27.333 0 51 5.16699 71 15.5s35.333 23.666 46 39.999s16 33.833 16 52.5c0 22.667 -8.33301 43.334 -25 62.001s-40.334 31.334 -71.001 38.001l-116 23c-50.667 10.667 -90 33.167 -118 67.5s-42 76.166 -42 125.499c0 52 17 97.167 51 135.5
s77.667 62.166 131 71.499v71h89v-69c53.333 -6.66699 98.5 -24.834 135.5 -54.501s61.833 -68.167 74.5 -115.5l-101 -27c-8 31.333 -25.167 55.5 -51.5 72.5s-59.833 25.5 -100.5 25.5c-25.333 0 -47.666 -5.33301 -66.999 -16s-34.166 -24.667 -44.499 -42
s-15.5 -35 -15.5 -53c0 -21.333 7 -40.333 21 -57s34 -27.667 60 -33c18.667 -4.66699 43.334 -9.66699 74.001 -15c7.33301 -2 18.333 -4.33301 33 -7c58.667 -11.333 104 -34.666 136 -69.999z" />
    <glyph glyph-name="percent" unicode="%" horiz-adv-x="995" 
d="M103 397c-28.667 34.667 -42.998 81 -42.998 139c0 57.333 14.833 103.5 44.5 138.5s69.167 52.5 118.5 52.5c48 0 86.333 -17.5 115 -52.5s43 -81.167 43 -138.5s-14.833 -103.5 -44.5 -138.5s-68.834 -52.5 -117.501 -52.5s-87.334 17.333 -116.001 52zM830.002 710
l-541 -710h-104l541 710h104zM158.502 452c15.667 -20.667 36.5 -31.334 62.5 -32.001c26 0.666992 46.667 11.334 62 32.001s23 48.667 23 84c0 34.667 -7.66699 62.334 -23 83.001s-36 31 -62 31h-1c-26 0 -46.667 -10.333 -62 -31s-23 -48.334 -23 -83.001
c0 -35.333 7.83301 -63.333 23.5 -84zM910.502 36.5c-29.667 -35 -68.832 -52.5 -117.499 -52.5s-87.334 17.333 -116.001 52s-43 81 -43 139c0 57.333 14.833 103.5 44.5 138.5s69.167 52.5 118.5 52.5c48 0 86.333 -17.5 115 -52.5s43 -81.167 43 -138.5
s-14.833 -103.5 -44.5 -138.5zM857.004 91c15.333 20.667 23 48.667 23 84c0 34.667 -7.66699 62.334 -23 83.001s-36 31 -62 31h-1c-26 0 -46.667 -10.333 -62 -31s-23 -48.334 -23 -83.001c0 -35.333 7.83301 -63.333 23.5 -84s36.5 -31.334 62.5 -32.001
c26 0.666992 46.667 11.334 62 32.001z" />
    <glyph glyph-name="ampersand" unicode="&#x26;" horiz-adv-x="747" 
d="M733 91l0.00195312 -91h-71c-25.333 -0.666992 -46 2.83301 -62 10.5s-32 20.5 -48 38.5l-23 25c-28 -26 -60.667 -46.333 -98 -61s-76.666 -22 -117.999 -22c-44.667 0 -84.834 9.5 -120.501 28.5s-63.834 44.833 -84.501 77.5c-25.333 37.333 -38 78 -38 122
c0 42.667 12.333 83.334 37 122.001c14.667 23.333 32.5 43 53.5 59s46.167 31.333 75.5 46c-37.333 46 -56 88.667 -56 128c0 28 6.83301 53.667 20.5 77s32.167 42 55.5 56s49.666 21 78.999 21c26.667 0 51.334 -6.16699 74.001 -18.5s40.834 -29.5 54.501 -51.5
s20.5 -47 20.5 -75c0 -31.333 -8.83301 -59.333 -26.5 -84s-44.834 -49.667 -81.501 -75c34.667 -44.667 59.334 -77 74.001 -97l74 -97c5.33301 12.667 9.66602 29 12.999 49c4 19.333 6 40 6 62c0 10 -0.333008 17.333 -1 22l95 8
c1.33301 -36.667 -0.333984 -68.334 -5.00098 -95.001c-6 -46 -20.333 -88.667 -43 -128l30 -34c8 -8.66699 16.833 -14.667 26.5 -18s23.5 -5 41.5 -5h46zM291.502 616.5c-11 -11 -16.4961 -24.5 -16.4961 -40.5c-0.666992 -16.667 7 -35.334 23 -56.001
c1.33301 -2.66699 4.66602 -7.16699 9.99902 -13.5s9.66602 -11.833 12.999 -16.5c14 9.33301 24 17 30 23c15.333 12.667 26 24.334 32 35.001s8.33301 22 7 34c-2.66699 16 -9.33398 28.5 -20.001 37.5s-23.334 13.5 -38.001 13.5c-16 0 -29.5 -5.5 -40.5 -16.5z
M397.006 98c27.333 11.333 51.667 27.332 73 47.999c-30.667 38.667 -63.334 81.667 -98.001 129c-45.333 59.333 -70.666 92.333 -75.999 99c-28.667 -14.667 -51.667 -28.167 -69 -40.5s-30.666 -26.166 -39.999 -41.499c-15.333 -22 -23 -47 -23 -75
c0 -20.667 5 -40.667 15 -60c12 -22.667 29.667 -41 53 -55s49.666 -21 78.999 -21c30 0 58.667 5.66699 86 17z" />
    <glyph glyph-name="quotesingle" unicode="'" horiz-adv-x="258" 
d="M181 566l-51 -106.001h-36l15 73c-16 2.66699 -29.167 10.334 -39.5 23.001s-15.5 26.667 -15.5 42c0 18.667 6.66699 34.667 20 48s29.333 20 48 20s34.667 -6.66699 48 -20s20 -29.333 20 -48c0 -11.333 -3 -22 -9 -32z" />
    <glyph glyph-name="parenleft" unicode="(" horiz-adv-x="297" 
d="M235 -90c-56.667 37.333 -101.334 95 -134.001 173s-49 160.667 -49 248c0 86.667 16.333 169 49 247s77.334 135.667 134.001 173l57 -62c-28 -18 -52 -46.5 -72 -85.5s-35.167 -82.667 -45.5 -131s-15.5 -95.5 -15.5 -141.5s5.16699 -93.333 15.5 -142
s25.5 -92.5 45.5 -131.5s44 -67.5 72 -85.5z" />
    <glyph glyph-name="parenright" unicode=")" horiz-adv-x="297" 
d="M102 117c23.333 70 35.001 141.333 35.001 214c0 46 -5.16699 93.167 -15.5 141.5s-25.333 92 -45 131s-43.5 67.5 -71.5 85.5l57 62c56.667 -37.333 101.334 -95 134.001 -173s49 -160.333 49 -247c0 -87.333 -16.333 -170 -49 -248s-77.334 -135.667 -134.001 -173
l-57 62c41.333 26.667 73.666 75 96.999 145z" />
    <glyph glyph-name="asterisk" unicode="*" horiz-adv-x="289" 
d="M37 654l86 -27v90h45v-90l86 27l12 -43l-85 -28l54 -77l-37 -26l-53 77l-53 -76l-36 25l54 77l-87 28z" />
    <glyph glyph-name="plus" unicode="+" horiz-adv-x="581" 
d="M541 250h-203v-204h-94v204h-204v94h204v203h94v-203h203v-94z" />
    <glyph glyph-name="comma" unicode="," horiz-adv-x="258" 
d="M188 35l-51 -105.999h-36l15 72c-16 3.33301 -29.167 11.166 -39.5 23.499s-15.5 26.5 -15.5 42.5c0 18.667 6.66699 34.667 20 48s29.333 20 48 20s34.667 -6.66699 48 -20s20 -29.333 20 -48c0 -12 -3 -22.667 -9 -32z" />
    <glyph glyph-name="hyphen" unicode="-" horiz-adv-x="460" 
d="M418 314v-101h-376v101h376z" />
    <glyph glyph-name="period" unicode="." horiz-adv-x="262" 
d="M83 6c-13.333 13.333 -20 29 -20 47c0 19.333 6.66699 35.5 20 48.5s29.333 19.5 48 19.5s34.667 -6.66699 48 -20s20 -29.333 20 -48c0 -18 -6.66699 -33.667 -20 -47s-29.333 -20 -48 -20s-34.667 6.66699 -48 20z" />
    <glyph glyph-name="slash" unicode="/" horiz-adv-x="379" 
d="M277 710h102l-278 -710h-101z" />
    <glyph glyph-name="zero" unicode="0" horiz-adv-x="727" 
d="M677 356c0 -92 -19.332 -168.667 -57.999 -230c-26.667 -44 -61.667 -77.833 -105 -101.5s-92.666 -35.834 -147.999 -36.501h-3h-2c-60 0.666992 -113 14.834 -159 42.501s-82 67.5 -108 119.5c-29.333 58.667 -44 127.334 -44 206.001c0 90 18.667 166 56 228
c27.333 44.667 62.666 79.167 105.999 103.5s93 36.833 149 37.5h2h3c52.667 -0.666992 99.667 -11.834 141 -33.501s75.666 -52.5 102.999 -92.5c44.667 -63.333 67 -144.333 67 -243zM567.001 356c0 72.667 -15.668 132.667 -47.001 180c-18.667 26.667 -41.5 47 -68.5 61
s-56.5 21.333 -88.5 22c-33.333 -0.666992 -63.833 -8.5 -91.5 -23.5s-50.5 -36.833 -68.5 -65.5c-29.333 -44 -44 -102 -44 -174c0 -60 10.667 -111.333 32 -154c18 -35.333 42 -62.333 72 -81s63.333 -28.334 100 -29.001c34 0.666992 64.833 8.83398 92.5 24.501
s50.834 38.167 69.501 67.5c28 44.667 42 102 42 172z" />
    <glyph glyph-name="one" unicode="1" horiz-adv-x="355" 
d="M270 720v-720h-103v547c-14 -5.33301 -28.667 -8 -44 -8h-88v102h84c32 0 48 18.667 48 56v23h103z" />
    <glyph glyph-name="two" unicode="2" horiz-adv-x="594" 
d="M444 289c-9.33301 -8 -43.3369 -33.9971 -102.004 -77.9971c-13.333 -10 -36.666 -27.833 -69.999 -53.5s-57 -44.167 -71 -55.5l325 1v-101l-481 -2c0 40.667 6 74.667 18 102s36.333 54.333 73 81c25.333 20 48 37.333 68 52s36.667 27 50 37
c72 53.333 115 86.666 129 99.999c19.333 17.333 33.833 35.166 43.5 53.499s14.834 37.833 15.501 58.5c-1.33301 42.667 -14.166 76.834 -38.499 102.501s-57.833 38.5 -100.5 38.5s-76.5 -12.333 -101.5 -37s-37.5 -57.667 -37.5 -99h-102c0 46 10 86.833 30 122.5
s48.167 63.5 84.5 83.5s77.833 30.333 124.5 31h2h2c45.333 -0.666992 86 -11.334 122 -32.001s64.333 -49 85 -85s31.334 -76.333 32.001 -121v-4v-4c-2 -72.667 -35.333 -136.334 -100 -191.001z" />
    <glyph glyph-name="three" unicode="3" horiz-adv-x="588" 
d="M485.5 374.5c35 -41.667 52.5 -90.834 52.5 -147.501c0 -44.667 -11 -85.167 -33 -121.5s-51.667 -65 -89 -86s-78.333 -31.5 -123 -31.5c-46 0 -87.833 10.5 -125.5 31.5s-67.167 49.5 -88.5 85.5s-32 75.333 -32 118h102c0.666992 -37.333 14.334 -69 41.001 -95
s61 -39 103 -39c26 0 50 6 72 18s39.333 28.5 52 49.5s19 44.5 19 70.5c0 26.667 -6.33301 50.834 -19 72.501s-30.334 38.834 -53.001 51.501s-47.667 19 -75 19c-22.667 0 -43 -3 -61 -9l-34 84l164 163h-280v102h432v-95l-160 -159
c55.333 -12.667 100.5 -39.834 135.5 -81.501z" />
    <glyph glyph-name="four" unicode="4" horiz-adv-x="613" 
d="M588 138l-88 1v-139h-101v139h-354v101l354 470h101v-471h88v-101zM399 240v308l-230 -308h230z" />
    <glyph glyph-name="five" unicode="5" horiz-adv-x="594" 
d="M432 451c37.333 -22 66.1699 -51.9961 86.5029 -89.9961s30.5 -80.667 30.5 -128c0 -44.667 -11.5 -85.834 -34.5 -123.501s-54 -67.5 -93 -89.5s-81.5 -33 -127.5 -33s-88 11 -126 33s-68 51.667 -90 89s-33 78.666 -33 123.999h102
c0 -26.667 6.33301 -50.834 19 -72.501s30.334 -38.834 53.001 -51.501s47.667 -19 75 -19s52.666 6.33301 75.999 19s42 30 56 52s21 46 21 72c1.33301 48 -12.834 86.667 -42.501 116s-68.167 44 -115.5 44c-26.667 0 -51.834 -6 -75.501 -18s-40.834 -27 -51.501 -45
l-93 24l88 356h366v-102h-286l-42 -155c34 20.667 70.333 31 109 31c48 0 90.667 -11 128 -33z" />
    <glyph glyph-name="six" unicode="6" horiz-adv-x="643" 
d="M240 480.5c34 17.667 70.6689 26.498 110.002 26.498c42 0 81.833 -9.83301 119.5 -29.5s68.334 -48.667 92.001 -87s35.5 -83.833 35.5 -136.5c0 -53.333 -12 -100.5 -36 -141.5s-55.667 -72.5 -95 -94.5s-81 -33 -125 -33c-60.667 0 -111.834 15.5 -153.501 46.5
s-73 73.667 -94 128s-31.5 115.833 -31.5 184.5c0 50 5.5 97.833 16.5 143.5s26.833 84.167 47.5 115.5c26 38 58.167 67.667 96.5 89s82.166 32 131.499 32c48 0 92.667 -10.167 134 -30.5s74.333 -49.5 99 -87.5l-86 -53c-17.333 22.667 -38.5 40 -63.5 52
s-51.167 18 -78.5 18c-22 0 -43.333 -4 -64 -12s-39.334 -19.667 -56.001 -35c-23.333 -19.333 -41.5 -44.166 -54.5 -74.499s-21.167 -63.166 -24.5 -98.499c19.333 34 46 59.833 80 77.5zM474.002 339.498c-14.667 25 -33.999 43.833 -57.999 56.5s-49.333 19 -76 19
c-40.667 0 -76.5 -14 -107.5 -42s-48.5 -67.667 -52.5 -119c-0.666992 -36 6.16602 -67.167 20.499 -93.5s33.833 -46.5 58.5 -60.5s52 -21 82 -21c27.333 0 52.833 7 76.5 21s42.667 34 57 60s21.5 56.333 21.5 91c0 34 -7.33301 63.5 -22 88.5z" />
    <glyph glyph-name="seven" unicode="7" horiz-adv-x="512" 
d="M497 710v-105c-83.333 -66.667 -144.833 -142.667 -184.5 -228s-63.5 -158 -71.5 -218s-12 -113 -12 -159h-104c0 78 13.833 172.833 41.5 284.5s94.5 218.5 200.5 320.5h-352v105h482z" />
    <glyph glyph-name="eight" unicode="8" horiz-adv-x="602" 
d="M72 275c12 25.333 29.6699 47.667 53.0029 67c16.667 13.333 35 24.333 55 33c-21.333 11.333 -39.333 24.666 -54 39.999c-16 17.333 -28.167 36.5 -36.5 57.5s-12.5 42.5 -12.5 64.5c0 28 6.16699 54.5 18.5 79.5s30.5 46.5 54.5 64.5c40.667 29.333 90.667 44 150 44
c57.333 0 105.666 -13 144.999 -39c26 -17.333 45.833 -39 59.5 -65s20.5 -53.333 20.5 -82c0 -23.333 -4.33301 -45.833 -13 -67.5s-21.334 -41.167 -38.001 -58.5c-16 -16 -33.667 -28.667 -53 -38c16 -6.66699 30 -14 42 -22
c27.333 -19.333 48.166 -42.666 62.499 -69.999s21.5 -56 21.5 -86c0 -29.333 -6.16699 -57.333 -18.5 -84s-29.833 -49.667 -52.5 -69c-45.333 -38 -105.333 -57 -180 -57c-35.333 0 -68 5.33301 -98 16s-55.667 25.667 -77 45s-37.833 41.5 -49.5 66.5
s-17.5 51.5 -17.5 79.5c0 28.667 6 55.667 18 81zM192.003 468.001c16 -16.667 36.999 -27 62.999 -31c15.333 -4 30 -6 44 -6c19.333 0 39 3.66699 59 11c14 5.33301 25.833 12.833 35.5 22.5s16.5 20.167 20.5 31.5c5.33301 12 8 23.333 8 34c0 16 -5 31 -15 45
c-6.66699 18 -19.667 32 -39 42s-42 15 -68 15c-39.333 0 -71.666 -10.333 -96.999 -31c-11.333 -9.33301 -20 -20.333 -26 -33s-9 -26 -9 -40c0 -23.333 8 -43.333 24 -60zM157.002 165.501c5.33301 -13.667 13 -25.832 23 -36.499c13.333 -14 30.166 -25.167 50.499 -33.5
s43.5 -12.833 69.5 -13.5c45.333 0 83 12.667 113 38c13.333 11.333 23.333 24.666 30 39.999s10 31.333 10 48c-1.33301 34.667 -16.666 63 -45.999 85c-27.333 22 -63 33 -107 33c-46.667 0 -84 -12.333 -112 -37c-26 -22.667 -39 -50 -39 -82
c0 -14 2.66699 -27.833 8 -41.5z" />
    <glyph glyph-name="nine" unicode="9" horiz-adv-x="657" 
d="M597 364c0 -45.333 -5.32715 -89.333 -15.9941 -132s-26.334 -80.334 -47.001 -113.001c-27.333 -44 -62.5 -77.5 -105.5 -100.5s-88.5 -34.5 -136.5 -34.5c-44.667 0 -87 10.167 -127 30.5s-72.667 49.833 -98 88.5l86 53c17.333 -22.667 38.5 -40 63.5 -52
s50.833 -18 77.5 -18c31.333 0 60.666 7.5 87.999 22.5s49.666 36.167 66.999 63.5c21.333 29.333 35.333 68 42 116c-18.667 -30.667 -44.334 -54.167 -77.001 -70.5s-67.667 -24.5 -105 -24.5c-43.333 0 -85 10.167 -125 30.5s-72.5 50.166 -97.5 89.499
s-37.5 86.333 -37.5 141c0 52.667 12.667 100 38 142s58.666 74.5 99.999 97.5s84.666 34.5 129.999 34.5c64.667 0 119 -18.667 163 -56s75.333 -87.666 94 -150.999c15.333 -51.333 23 -103.666 23 -156.999zM390.006 310c24.667 12.667 44.835 31.666 60.502 56.999
s23.5 56 23.5 92c0 35.333 -7.5 65.666 -22.5 90.999s-34.5 44.5 -58.5 57.5s-49.333 19.5 -76 19.5c-27.333 0 -53.833 -6.66699 -79.5 -20s-46.5 -32.666 -62.5 -57.999s-24 -55.333 -24 -90c0 -35.333 7.66699 -65.666 23 -90.999s35.166 -44.5 59.499 -57.5
s50.166 -19.5 77.499 -19.5c28 0 54.333 6.33301 79 19z" />
    <glyph glyph-name="colon" unicode=":" horiz-adv-x="257" 
d="M80.5 365c-13.667 13.333 -20.5 29 -20.5 47c0 18.667 6.83301 34.667 20.5 48s29.834 20 48.501 20c18 0 33.833 -6.66699 47.5 -20s20.5 -29.333 20.5 -48c0 -18 -6.83301 -33.667 -20.5 -47s-29.5 -20 -47.5 -20c-18.667 0 -34.834 6.66699 -48.501 20zM80.5 6
c-13.667 13.333 -20.498 29 -20.498 47c0 18.667 6.66699 34.667 20 48s29.666 20 48.999 20c18 0 33.833 -6.66699 47.5 -20s20.5 -29.333 20.5 -48c0 -18 -6.83301 -33.667 -20.5 -47s-29.5 -20 -47.5 -20c-18.667 0 -34.834 6.66699 -48.501 20z" />
    <glyph glyph-name="semicolon" unicode=";" horiz-adv-x="257" 
d="M80.5 365c-13.667 13.333 -20.5 29 -20.5 47c0 18.667 6.83301 34.667 20.5 48s29.834 20 48.501 20c18 0 33.833 -6.66699 47.5 -20s20.5 -29.333 20.5 -48c0 -18 -6.83301 -33.667 -20.5 -47s-29.5 -20 -47.5 -20c-18.667 0 -34.834 6.66699 -48.501 20zM176.5 114
c13.667 -13.333 20.499 -29.3311 20.499 -47.998c0 -9.33301 -3 -20 -9 -32l-52 -106h-35l14 73c-15.333 3.33301 -28.333 11.166 -39 23.499s-16 26.166 -16 41.499c0 18.667 6.83301 34.667 20.5 48s29.834 20 48.501 20c18 0 33.833 -6.66699 47.5 -20z" />
    <glyph glyph-name="less" unicode="&#x3c;" horiz-adv-x="417" 
d="M373 369l-238 -126l238 -126v-110l-338 182v107l338 182v-109z" />
    <glyph glyph-name="equal" unicode="=" horiz-adv-x="557" 
d="M461 395v-88h-377v88h377zM84 174h377v-88h-377v88z" />
    <glyph glyph-name="greater" unicode="&#x3e;" horiz-adv-x="420" 
d="M382 296v-107l-338 -182v110l237 126l-237 126v109z" />
    <glyph glyph-name="question" unicode="?" horiz-adv-x="541" 
d="M361.5 694c35.667 -20.667 63.832 -48.668 84.499 -84.001s31 -74.333 31 -117c0 -36.667 -6.83301 -69 -20.5 -97s-37.167 -55.333 -70.5 -82c-5.33301 -4.66699 -14.666 -11.667 -27.999 -21c-26.667 -19.333 -47.667 -37 -63 -53s-23.333 -32.667 -24 -50v-24h-101v29
c0 24 6.16699 46.667 18.5 68s26.333 39.333 42 54s35.167 31.334 58.5 50.001c5.33301 3.33301 12.666 9 21.999 17c42 34 63 70.333 63 109c0 39.333 -12.5 70.833 -37.5 94.5s-55.833 35.5 -92.5 35.5c-22.667 0 -44 -6 -64 -18s-36 -28 -48 -48s-18 -41.333 -18 -64
h-102c0 42.667 10.333 81.667 31 117s48.667 63.333 84 84s74.333 31 117 31s81.834 -10.333 117.501 -31zM272.998 102.499c14 -13.667 21 -29.5 21 -47.5s-7 -33.833 -21 -47.5s-30 -20.5 -48 -20.5c-19.333 0 -35.666 6.66699 -48.999 20s-20 29.333 -20 48
s6.66699 34.667 20 48s29.666 20 48.999 20c18 0 34 -6.83301 48 -20.5z" />
    <glyph glyph-name="at" unicode="@" horiz-adv-x="782" 
d="M739 381c0 -32.667 -4.33496 -62.333 -13.002 -89c-12.667 -40.667 -33.334 -71.834 -62.001 -93.501s-60 -32.5 -94 -32.5c-20.667 0 -39.667 4.16699 -57 12.5s-32 20.5 -44 36.5c-31.333 -29.333 -70.666 -44 -117.999 -44c-37.333 0 -68 10.167 -92 30.5
s-36 46.5 -36 78.5c-0.666992 42 15 76 47 102c24.667 20.667 63 31 115 31h68h3c1.33301 18.667 -4 33.334 -16 44.001s-27.667 16 -47 16c-20 0 -37.833 -4.66699 -53.5 -14s-27.167 -22.666 -34.5 -39.999c-12 4.66699 -20 7.66699 -24 9l-42 17
c19.333 35.333 43 61.5 71 78.5s61.667 25.5 101 25.5c36.667 0 66.667 -11.167 90 -33.5s35 -51.166 35 -86.499l-1 -14l-9 -104c-0.666992 -3.33301 -1 -7.66602 -1 -12.999c0 -16 4.66699 -28.667 14 -38s21 -14 35 -14c15.333 0 30.166 5.66699 44.499 17
s24.5 27.333 30.5 48c5.33301 22.667 8 44 8 64c0 31.333 -5.33301 60.666 -16 87.999c-17.333 50 -48.333 90.167 -93 120.5s-95.667 45.5 -153 45.5c-49.333 0 -95.166 -12.333 -137.499 -37s-75.833 -57.834 -100.5 -99.501s-37 -87.167 -37 -136.5
c0 -50 12.333 -96 37 -138s58 -75.333 100 -100s88 -37 138 -37c30.667 0 60.5 5.33301 89.5 16s55.167 26 78.5 46l56 -62c-31.333 -26.667 -66.333 -47 -105 -61s-78.334 -21 -119.001 -21c-64 0 -123.333 16.167 -178 48.5s-98.167 75.833 -130.5 130.5
s-48.5 114 -48.5 178c0 63.333 16.167 122.333 48.5 177s75.833 98 130.5 130s114 48 178 48c50.667 0 98.334 -9.5 143.001 -28.5s83.334 -46.333 116.001 -82s56.334 -77.834 71.001 -126.501c9.33301 -28.667 14 -59.667 14 -93zM415.998 276.001
c14.667 14.667 24.666 37.333 29.999 68h-72c-22 0 -38.833 -4.83301 -50.5 -14.5s-17.5 -22.5 -17.5 -38.5c0 -12 4.5 -21.167 13.5 -27.5s21.5 -9.5 37.5 -9.5c24.667 0 44.334 7.33301 59.001 22z" />
    <glyph glyph-name="A" unicode="A" horiz-adv-x="709" 
d="M508 186h-308l-72 -186h-118l287 710h108h7l287 -710h-118zM473 277l-119 303l-118 -303h237z" />
    <glyph glyph-name="B" unicode="B" horiz-adv-x="635" 
d="M596 198c-0.666992 -60 -21.8311 -107.83 -63.498 -143.497s-98.167 -53.834 -169.5 -54.501h-192h-101v710h60h41l179 -1c73.333 -0.666992 131.166 -18.834 173.499 -54.501s63.833 -83.834 64.5 -144.501v-1c0 -32 -6.83301 -61 -20.5 -87s-32.834 -48 -57.501 -66
c27.333 -17.333 48.5 -39.5 63.5 -66.5s22.5 -57.167 22.5 -90.5v-1zM171.003 613.003l-0.000976562 -214h177c42.667 0 74.834 10 96.501 30s32.5 46 32.5 78c0 30.667 -11.333 56 -34 76s-54.667 30 -96 30h-176zM449.002 125.503c24.667 18.333 37 44.5 37 78.5
c0 32.667 -11.833 58.5 -35.5 77.5s-55.167 28.5 -94.5 28.5h-185v-212h187c36 0 66.333 9.16699 91 27.5z" />
    <glyph glyph-name="C" unicode="C" horiz-adv-x="752" 
d="M605 479c-15.333 40.667 -41.667 74.168 -79 100.501s-80.666 39.5 -129.999 39.5c-45.333 0 -86.666 -11.667 -123.999 -35s-66.666 -55.166 -87.999 -95.499s-32 -84.833 -32 -133.5s10.667 -92.834 32 -132.501s50.666 -70.834 87.999 -93.501s78.666 -34 123.999 -34
c48 0 91.333 12.167 130 36.5s67.334 55.833 86.001 94.5l101 -47c-26.667 -58.667 -68.334 -105.334 -125.001 -140.001s-120.667 -52 -192 -52c-64 0 -123.167 16.5 -177.5 49.5s-97.333 77.667 -129 134s-47.5 117.833 -47.5 184.5s15.833 128.334 47.5 185.001
s74.667 101.667 129 135s113.5 50 177.5 50c59.333 0 110.666 -11.5 153.999 -34.5s77.5 -50.167 102.5 -81.5s43.167 -62 54.5 -92z" />
    <glyph glyph-name="D" unicode="D" horiz-adv-x="724" 
d="M507.5 666c55 -30 98 -72 129 -126s46.5 -115.667 46.5 -185s-15.333 -131 -46 -185s-73.5 -95.833 -128.5 -125.5s-117.833 -44.5 -188.5 -44.5h-173h-63v711h101h135c70 0 132.5 -15 187.5 -45zM455 125c38 21.333 67.167 51.666 87.5 90.999s30.5 85.666 30.5 138.999
c0 52.667 -10.333 98.834 -31 138.501s-50 70.334 -88 92.001s-82.667 32.5 -134 32.5h-135v-525h135c52 0 97 10.667 135 32z" />
    <glyph glyph-name="E" unicode="E" horiz-adv-x="579" 
d="M521 100l-1 -100h-430h-6v710h101h336l-1 -101h-335v-202h303l-1 -98h-302v-209h336z" />
    <glyph glyph-name="F" unicode="F" horiz-adv-x="561" 
d="M185 610v-215l284 -1l-1 -97h-283v-297h-101v710h101l336 -1l-1 -100z" />
    <glyph glyph-name="G" unicode="G" horiz-adv-x="784" 
d="M383 402l339.003 0.000976562v-402h-101v77c-26 -29.333 -58 -51.666 -96 -66.999s-78.667 -23 -122 -23c-72.667 0 -136.334 16 -191.001 48s-96.834 75.667 -126.501 131s-44.5 117.333 -44.5 186c0 67.333 15.833 129.666 47.5 186.999
s74.834 102.666 129.501 135.999s114.667 50 180 50c78 0 146.167 -19 204.5 -57s100.5 -89.667 126.5 -155l-102 -36c-20 46 -50.167 81.833 -90.5 107.5s-86.5 38.5 -138.5 38.5c-46 0 -87.833 -11.833 -125.5 -35.5s-67.334 -56.167 -89.001 -97.5
s-32.5 -87.333 -32.5 -138c0 -50 10.667 -94.667 32 -134s51.166 -70 89.499 -92s81.833 -33 130.5 -33c53.333 0 101.5 15.5 144.5 46.5s67.5 83.167 73.5 156.5v11h-238v95z" />
    <glyph glyph-name="H" unicode="H" horiz-adv-x="708" 
d="M624 710v-710h-100v310l-339 1v-311h-101v710h101v-301l339 -1v302h100z" />
    <glyph glyph-name="I" unicode="I" horiz-adv-x="269" 
d="M84 0v710h101v-710h-101z" />
    <glyph glyph-name="J" unicode="J" horiz-adv-x="516" 
d="M442 710l-0.00195312 -513.996c0 -40 -8.5 -75.833 -25.5 -107.5s-41.5 -56.334 -73.5 -74.001s-69 -26.5 -111 -26.5c-66 0 -117.833 19.167 -155.5 57.5s-56.5 89.166 -56.5 152.499v24h101v-24c0 -28 6.33301 -50.333 19 -67s27.334 -28.5 44.001 -35.5
s31.334 -10.167 44.001 -9.5c14 -0.666992 30 2.66602 48 9.99902s33.333 19.666 46 36.999s19 40 19 68v509h101z" />
    <glyph glyph-name="K" unicode="K" horiz-adv-x="634" 
d="M331 352l284 -352h-136l-215 269l-79 -99v-171h-101v711h101v-376l297 376h136z" />
    <glyph glyph-name="L" unicode="L" horiz-adv-x="521" 
d="M494 101v-101h-396h-14v710h101v-609h309z" />
    <glyph glyph-name="M" unicode="M" horiz-adv-x="858" 
d="M673 0v454l-194 -454h-100l-195 454v-454h-100v710h100l245 -589l244 589h101v-710h-101z" />
    <glyph glyph-name="N" unicode="N" horiz-adv-x="730" 
d="M646 0h-100l-362 535v-535h-100v710h100l362 -535v535h100v-710z" />
    <glyph glyph-name="O" unicode="O" horiz-adv-x="783" 
d="M695.5 543.5c-30.333 56.333 -72.167 100.499 -125.5 132.499s-113.333 48 -180 48c-66 0 -125.5 -16 -178.5 -48s-94.5 -76.167 -124.5 -132.5s-45 -119.5 -45 -189.5c0 -68.667 15.333 -131 46 -187s72.667 -100 126 -132s112.333 -48 177 -48
c66.667 0 126.667 15.667 180 47s95 74.833 125 130.5s45 118.834 45 189.501c0 70 -15.167 133.167 -45.5 189.5zM600.499 216.999c-19.667 -39.333 -47.667 -69.667 -84 -91s-78.166 -32 -125.499 -32c-46 0 -87 11 -123 33s-64.167 52.667 -84.5 92
s-30.5 84.333 -30.5 135c0 51.333 10 97 30 137s48 71.167 84 93.5s77 33.5 123 33.5c47.333 0 89.166 -11 125.499 -33s64.5 -53 84.5 -93s30 -86 30 -138s-9.83301 -97.667 -29.5 -137z" />
    <glyph glyph-name="P" unicode="P" horiz-adv-x="611" 
d="M579 493c0 -66.667 -20.333 -119.831 -61 -159.498s-96 -60.834 -166 -63.501v-1h-167v-269h-101v710h101l156 -1c74.667 -0.666992 133 -19.334 175 -56.001s63 -89.667 63 -159v-1zM439.5 401.003c23.667 22.667 35.5 52.667 35.5 90c0 38 -11.667 67.833 -35 89.5
s-57.333 32.5 -102 32.5h-153v-246h154c43.333 0 76.833 11.333 100.5 34z" />
    <glyph glyph-name="Q" unicode="Q" horiz-adv-x="796" 
d="M716.5 209.5c-17 -45 -41.167 -84.168 -72.5 -117.501l83 -95h-115l-35 40c-55.333 -34 -117.666 -51 -186.999 -51c-64.667 0 -123.667 16.167 -177 48.5s-95.5 76.833 -126.5 133.5s-46.5 119.334 -46.5 188.001c0 70 15.167 133.167 45.5 189.5
s72.166 100.5 125.499 132.5s113 48 179 48c66.667 0 126.667 -16 180 -48s95.333 -76.167 126 -132.5s46 -119.5 46 -189.5c0 -52.667 -8.5 -101.5 -25.5 -146.5zM506 115.999l-99.999 113.002h117l50 -57c38 48 57 109.333 57 184c0 52 -10 98.167 -30 138.5
s-48.167 71.833 -84.5 94.5s-78.166 34 -125.499 34c-46.667 0 -88 -11.333 -124 -34s-64 -54.334 -84 -95.001s-30 -86.667 -30 -138c0 -50.667 10.167 -96.334 30.5 -137.001s48.666 -72.667 84.999 -96s77.166 -35 122.499 -35c43.333 0 82 9.33301 116 28z" />
    <glyph glyph-name="R" unicode="R" horiz-adv-x="649" 
d="M469 300l138 -300h-115l-126 284h-180v-284h-102v710h102l185 -1c38.667 0 73.834 -5.5 105.501 -16.5s57.5 -27.5 77.5 -49.5c17.333 -17.333 30.666 -38.5 39.999 -63.5s14 -51.5 14 -79.5c0 -25.333 -4 -50 -12 -74s-19.333 -44.333 -34 -61
c-26.667 -30 -57.667 -51.667 -93 -65zM186 379h180.001c51.333 0 87.666 14.333 108.999 43c14 20 21 44 21 72c0 15.333 -2.33301 30 -7 44s-11.334 26 -20.001 36c-21.333 25.333 -55.666 38 -102.999 38l-180 1v-234z" />
    <glyph glyph-name="S" unicode="S" horiz-adv-x="594" 
d="M454 525c-8 30 -26.6699 53.8311 -56.0029 71.498s-62.666 26.5 -99.999 26.5c-34 0 -63.167 -8.66699 -87.5 -26s-39.5 -39.666 -45.5 -66.999c-0.666992 -3.33301 -1 -8.66602 -1 -15.999c0 -22 7.16699 -41.5 21.5 -58.5s35.833 -28.167 64.5 -33.5
c20 -4.66699 56.667 -11.667 110 -21c60 -11.333 106.333 -34.666 139 -69.999s49 -80.333 49 -135c0 -42.667 -11.5 -79.834 -34.5 -111.501s-53.5 -55.667 -91.5 -72s-79.667 -24.5 -125 -24.5c-44 0 -85.5 7.66699 -124.5 23s-71.167 37.333 -96.5 66
s-39.666 62.667 -42.999 102l102 15c4.66699 -31.333 23.334 -56.666 56.001 -75.999s69.334 -29 110.001 -29c41.333 0 75.166 10 101.499 30s39.5 44.667 39.5 74c0 21.333 -7.16699 41.166 -21.5 59.499s-35.166 31.166 -62.499 38.499
c-24.667 6.66699 -70.334 16.334 -137.001 29.001c-51.333 11.333 -91 33.333 -119 66s-42 75 -42 127c0 39.333 10.667 75 32 107s50 57.333 86 76s75.333 28 118 28c44 0 84.333 -7.5 121 -22.5s67 -35.5 91 -61.5s39.667 -55.333 47 -88z" />
    <glyph glyph-name="T" unicode="T" horiz-adv-x="586" 
d="M571 609h-227v-609h-101v609h-227v101h555v-101z" />
    <glyph glyph-name="U" unicode="U" horiz-adv-x="702" 
d="M626 710l-0.00195312 -460c0 -51.333 -12.833 -97.166 -38.5 -137.499s-59.667 -71.666 -102 -93.999s-87.166 -33.5 -134.499 -33.5s-92.166 11.167 -134.499 33.5s-76.333 53.666 -102 93.999s-38.5 86.166 -38.5 137.499v460h102v-460c0 -31.333 8.5 -59.5 25.5 -84.5
s38.833 -44.5 65.5 -58.5s54 -21 82 -21s55.333 7 82 21s48.5 33.5 65.5 58.5s25.5 53.167 25.5 84.5v460h102z" />
    <glyph glyph-name="V" unicode="V" horiz-adv-x="680" 
d="M670 710l-280 -710h-100l-280 710h118l212 -574l212 574h118z" />
    <glyph glyph-name="W" unicode="W" horiz-adv-x="1086" 
d="M1069 710l-237 -710h-102l-187 539l-188 -539h-101l-237 710h119l169 -550l178 550h119l178 -550l170 550h119z" />
    <glyph glyph-name="X" unicode="X" horiz-adv-x="629" 
d="M499 0l-184 272l-185 -272h-119l244 360l-237 350h119l177 -262l178 262h119l-237 -350l245 -360h-120z" />
    <glyph glyph-name="Y" unicode="Y" horiz-adv-x="610" 
d="M355 294v-294h-100v292l-245 418h119l175 -320v1l177 319h119z" />
    <glyph glyph-name="Z" unicode="Z" horiz-adv-x="577" 
d="M534 609l-372 -508h367v-101h-486l-2 101l372 508l-371 -1v101l492 1v-101z" />
    <glyph glyph-name="bracketleft" unicode="[" horiz-adv-x="268" 
d="M263 -72h-211v855h211v-82h-124v-691h124v-82z" />
    <glyph glyph-name="backslash" unicode="\" horiz-adv-x="379" 
d="M278 0l-278 710h102l277 -710h-101z" />
    <glyph glyph-name="bracketright" unicode="]" horiz-adv-x="268" 
d="M129 10v690h-124v82h212v-854h-212v82h124z" />
    <glyph glyph-name="asciicircum" unicode="^" horiz-adv-x="480" 
d="M301 480l-53 118l-52 -118h-101l103 230h101l103 -230h-101z" />
    <glyph glyph-name="underscore" unicode="_" horiz-adv-x="425" 
d="M397 -17v-76h-337v76h337z" />
    <glyph glyph-name="grave" unicode="`" horiz-adv-x="230" 
d="M-2 946h111l86 -167h-106z" />
    <glyph glyph-name="a" unicode="a" horiz-adv-x="520" 
d="M367 473.5c29.333 -14.333 52.5029 -34.999 69.5029 -61.999s25.5 -59.167 25.5 -96.5v-319h-99v49c-16.667 -18 -36.667 -32.167 -60 -42.5s-48.333 -15.5 -75 -15.5c-53.333 0 -97 14.167 -131 42.5s-51.333 65.5 -52 111.5c-1.33301 26.667 4 51.667 16 75
s29.333 42.333 52 57c15.333 10 33.666 17.167 54.999 21.5s47.666 6.5 78.999 6.5h83c23.333 0 34 10.667 32 32c-2.66699 25.333 -13.5 43.666 -32.5 54.999s-42.833 17 -71.5 17c-28 0 -52.333 -5.5 -73 -16.5s-38.334 -29.167 -53.001 -54.5l-76 42
c44.667 79.333 115.667 119 213 119c36 0 68.667 -7.16699 98 -21.5zM324.003 104.501c23.333 21 36.334 51.5 39.001 91.5v28c-22.667 -1.33301 -61 -2 -115 -2c-34.667 0 -61.834 -6.83301 -81.501 -20.5s-29.5 -32.167 -29.5 -55.5c0 -24.667 8.83301 -43 26.5 -55
s40.167 -18 67.5 -18c38.667 0 69.667 10.5 93 31.5z" />
    <glyph glyph-name="b" unicode="b" horiz-adv-x="605" 
d="M459 463c35.333 -22 63 -53.332 83 -93.999s29 -87.667 27 -141h-1c-2.66699 -52 -15 -96.333 -37 -133s-49.833 -64 -83.5 -82s-69.167 -27 -106.5 -27c-31.333 0 -61.333 6.16699 -90 18.5s-53.667 30.166 -75 53.499v-58h-102v710h102v-290
c20.667 25.333 45.5 44.5 74.5 57.5s59.833 19.5 92.5 19.5c42 -0.666992 80.667 -12 116 -34zM424 116.001c28.667 27.333 44.334 67.002 47.001 119.002c0.666992 34.667 -5.5 65.167 -18.5 91.5s-30.667 46.5 -53 60.5s-46.833 21 -73.5 21
s-51.334 -6.83301 -74.001 -20.5s-40.5 -33.334 -53.5 -59.001s-19.5 -55.834 -19.5 -90.501s6.66699 -64.167 20 -88.5s31 -42.833 53 -55.5s45.333 -19 70 -19c39.333 0 73.333 13.667 102 41z" />
    <glyph glyph-name="c" unicode="c" horiz-adv-x="533" 
d="M415 313c-10 26.667 -25.8301 48.1689 -47.4971 64.502s-49.834 24.5 -84.501 24.5c-44 0 -79.5 -15.667 -106.5 -47s-40.5 -70.333 -40.5 -117c0 -46 13.5 -84.5 40.5 -115.5s62.5 -46.5 106.5 -46.5c32 0 58.833 7.5 80.5 22.5s36.834 33.167 45.501 54.5l87 -34
c-16.667 -40.667 -44 -72.834 -82 -96.501s-81.667 -35.5 -131 -35.5c-44.667 0 -85.834 11.167 -123.501 33.5s-67.667 52.666 -90 90.999s-33.5 80.5 -33.5 126.5s11.167 88.5 33.5 127.5s52.5 70 90.5 93s79 34.5 123 34.5c51.333 0 97.166 -13.5 137.499 -40.5
s68.166 -62.833 83.499 -107.5z" />
    <glyph glyph-name="d" unicode="d" horiz-adv-x="602" 
d="M531 710l-0.00195312 -710h-102v60c-20.667 -24.667 -45.167 -43.667 -73.5 -57s-58.5 -20 -90.5 -20c-42.667 0 -81.834 11 -117.501 33s-63.667 53.333 -84 94s-29.5 87.667 -27.5 141h1c2.66699 53.333 15.334 98.5 38.001 135.5s51.334 64.667 86.001 83
s71.334 27.5 110.001 27.5c30.667 0 59.667 -5.83301 87 -17.5s51 -28.167 71 -49.5v280h102zM352.998 92.5c22.667 13.667 40.498 33.334 53.498 59.001s19.5 55.5 19.5 89.5c0 35.333 -6.5 65.5 -19.5 90.5s-30.333 44 -52 57s-45.5 19.5 -71.5 19.5
c-24.667 0 -48 -6.16699 -70 -18.5s-40.167 -30.833 -54.5 -55.5s-22.166 -54.334 -23.499 -89.001h-1c-0.666992 -34.667 5.5 -65.167 18.5 -91.5s30.667 -46.5 53 -60.5s46.833 -21 73.5 -21s51.334 6.83301 74.001 20.5z" />
    <glyph glyph-name="e" unicode="e" horiz-adv-x="553" 
d="M516 200h-379.999c8.66699 -34 26 -62 52 -84s55.667 -33 89 -33c30 0 56.333 6.66699 79 20s38.667 31 48 53l88 -33c-16.667 -41.333 -44.334 -74.333 -83.001 -99s-82.667 -37 -132 -37c-43.333 0 -83.5 11.5 -120.5 34.5s-66.333 54 -88 93s-32.5 81.5 -32.5 127.5
s10.833 88.5 32.5 127.5s51 69.833 88 92.5s77.167 34 120.5 34c50 0 94.833 -13.167 134.5 -39.5s68.167 -61.833 85.5 -106.5c8.66699 -20.667 14.167 -41.667 16.5 -63s3.5 -37.333 3.5 -48zM420.001 277c-1.33301 10 -4.83301 21.5 -10.5 34.5
s-12.167 23.833 -19.5 32.5c-11.333 18 -27 32.167 -47 42.5s-42 15.5 -66 15.5c-34 0 -64.5 -11.833 -91.5 -35.5s-44.167 -53.5 -51.5 -89.5h286z" />
    <glyph glyph-name="f" unicode="f" horiz-adv-x="314" 
d="M188 480h93.998v-87h-94l1 -393h-102v393h-71v87h71v82c0 50 14.833 89.833 44.5 119.5s67.5 44.5 113.5 44.5c18.667 0 36.334 -2.33301 53.001 -7l-21 -94c-9.33301 2 -17.666 3 -24.999 3c-20 0 -35.667 -6.33301 -47 -19s-17 -31 -17 -55v-74z" />
    <glyph glyph-name="g" unicode="g" horiz-adv-x="594" 
d="M528 481l-0.000976562 -465.995c0 -64.667 -18 -120.334 -54 -167.001c-22 -28 -49 -49.667 -81 -65s-67.333 -23 -106 -23c-74.667 0 -135.334 22.333 -182.001 67c-26 25.333 -45.667 57 -59 95l88 32c7.33301 -24.667 20 -44.334 38 -59.001
c14 -12.667 30.333 -22.334 49 -29.001s38.334 -10 59.001 -10c26.667 0 50.167 5 70.5 15s36.5 24.667 48.5 44c18 26.667 27 60 27 100v55c-36.667 -46 -87.334 -69 -152.001 -69c-45.333 0 -85.666 9.83301 -120.999 29.5s-63.166 48.167 -83.499 85.5
s-30.5 81.333 -30.5 132s9.83301 94.667 29.5 132s47.167 66.166 82.5 86.499s76.333 30.5 123 30.5c30.667 0 59 -5.83301 85 -17.5s48.333 -28.834 67 -51.501v53h102zM384.499 134.505c26.333 29 39.834 67.5 40.501 115.5v1v0v1v1c0 32 -6.66699 59.667 -20 83
s-30.5 40.833 -51.5 52.5s-43.5 17.5 -67.5 17.5c-43.333 0 -78.833 -14.5 -106.5 -43.5s-41.5 -67.167 -41.5 -114.5s13.833 -85.333 41.5 -114s63.167 -43 106.5 -43c39.333 0 72.166 14.5 98.499 43.5z" />
    <glyph glyph-name="h" unicode="h" horiz-adv-x="615" 
d="M485 448.5c42.667 -39.667 64 -103.833 64 -192.5v-256h-102v252c0 51.333 -11.833 89.666 -35.5 114.999s-53.5 38 -89.5 38c-38 0 -71 -13.667 -99 -41s-43.667 -66.666 -47 -117.999l-1 -246h-101v710h102v-272c36 46.667 84.667 70 146 70
c66 0 120.333 -19.833 163 -59.5z" />
    <glyph glyph-name="i" unicode="i" horiz-adv-x="255" 
d="M77.5 597.5c-14.333 14.333 -21.5 31.166 -21.5 50.499s7.16699 36.166 21.5 50.499s31.5 21.5 51.5 21.5c18.667 0 35 -7.16699 49 -21.5s21 -31.166 21 -50.499s-7 -36.166 -21 -50.499s-30.333 -21.5 -49 -21.5c-20 0 -37.167 7.16699 -51.5 21.5zM176 480v-480h-101
v480h101z" />
    <glyph glyph-name="j" unicode="j" horiz-adv-x="281" 
d="M98 594c-14.667 14.667 -22 32 -22 52c0 20.667 7.16699 38.167 21.5 52.5s31.833 21.5 52.5 21.5s38 -7.16699 52 -21.5s21 -31.833 21 -52.5c0 -20 -7.16699 -37.333 -21.5 -52s-31.5 -22 -51.5 -22s-37.333 7.33301 -52 22zM-22 -134
c34 0 59.832 5.33203 77.499 15.999s29.334 24.834 35.001 42.501s9.16699 40.167 10.5 67.5l-2 489h105l-3 -503c0 -55.333 -15.167 -105.5 -45.5 -150.5s-89.5 -67.5 -177.5 -67.5v106z" />
    <glyph glyph-name="k" unicode="k" horiz-adv-x="488" 
d="M216 208l-41 -43v-165h-101v710h101v-416l181 186h124l-200 -207l200 -273h-112z" />
    <glyph glyph-name="l" unicode="l" horiz-adv-x="315" 
d="M176 1c-68 0 -102 41 -102 123v586h101l1 -571c0 -18.667 3.66699 -31 11 -37s18.333 -9 33 -9l54 -1v-92z" />
    <glyph glyph-name="m" unicode="m" horiz-adv-x="872" 
d="M714.5 468c29 -18 51.499 -43.001 67.499 -75.001s24 -68 24 -108v-285h-99l2 290c0 36.667 -10.333 64.834 -31 84.501s-46 29.5 -76 29.5c-31.333 0 -58.166 -11 -80.499 -33s-33.833 -51 -34.5 -87v-284h-98l1 291c0 35.333 -9.83301 63.166 -29.5 83.499
s-44.167 30.5 -73.5 30.5c-30 0 -55.833 -10 -77.5 -30s-33.834 -47.667 -36.501 -83v-292h-99v481h99v-48c14.667 18.667 32.834 33.5 54.501 44.5s45.5 17.167 71.5 18.5c38 0 71 -8.83301 99 -26.5s49.667 -42.167 65 -73.5c14.667 30 34.667 53.833 60 71.5
s55.333 26.834 90 27.501c38.667 0 72.5 -9 101.5 -27z" />
    <glyph glyph-name="n" unicode="n" horiz-adv-x="607" 
d="M480.5 439.5c40.333 -37 60.501 -97.499 60.501 -181.499v-258h-99v253c0 52.667 -11.667 91.167 -35 115.5s-54 36.5 -92 36.5c-38.667 0 -71.5 -13.333 -98.5 -40s-41.833 -63.334 -44.5 -110.001v-255h-98l1 480h97v-64c18.667 26 41.5 45.833 68.5 59.5
s56.167 20.5 87.5 20.5c61.333 -0.666992 112.166 -19.5 152.499 -56.5z" />
    <glyph glyph-name="o" unicode="o" horiz-adv-x="557" 
d="M489 112c-21.333 -38.667 -50.499 -69.166 -87.499 -91.499s-77.833 -33.5 -122.5 -33.5c-44 0 -84.667 11.333 -122 34s-66.833 53.5 -88.5 92.5s-32.5 81.167 -32.5 126.5c0 46.667 10.667 89.5 32 128.5s50.666 69.833 87.999 92.5s78.333 34 123 34
s85.5 -11.333 122.5 -34s66.167 -53.5 87.5 -92.5s32 -81.833 32 -128.5s-10.667 -89.334 -32 -128.001zM382.001 353.501c-26 30.333 -60.333 45.5 -103 45.5c-43.333 0 -78 -15.333 -104 -46s-39 -68.667 -39 -114c0 -28.667 6 -55 18 -79s28.833 -43.167 50.5 -57.5
s46.5 -21.5 74.5 -21.5c43.333 0 77.833 14.833 103.5 44.5s38.5 67.5 38.5 113.5s-13 84.167 -39 114.5z" />
    <glyph glyph-name="p" unicode="p" horiz-adv-x="605" 
d="M459 463c35.333 -22 62.999 -53.332 82.999 -93.999s29 -87.667 27 -141h-1c-2.66699 -50.667 -14.667 -94.334 -36 -131.001s-48.666 -64.667 -81.999 -84s-70 -29.333 -110 -30c-31.333 0 -60.833 6.16699 -88.5 18.5s-51.5 29.833 -71.5 52.5v-280h-106v706h106v-56
c20 24 44.167 42.167 72.5 54.5s58.5 18.5 90.5 18.5c42 -0.666992 80.667 -12 116 -34zM422.999 114.001c29.333 28 45.334 68.332 48.001 120.999c0.666992 34.667 -5.5 65.167 -18.5 91.5s-30.667 46.5 -53 60.5s-46.833 21 -73.5 21
c-40.667 0 -74.834 -14.667 -102.501 -44s-42.167 -68.666 -43.5 -117.999v-26c1.33301 -30.667 8.83301 -57.167 22.5 -79.5s30.834 -39.333 51.501 -51s42.667 -17.5 66 -17.5c39.333 0 73.666 14 102.999 42z" />
    <glyph glyph-name="q" unicode="q" horiz-adv-x="605" 
d="M531 481l0.00195312 -706.002h-106v247c-18.667 -22.667 -40.834 -40 -66.501 -52s-53.167 -18 -82.5 -18c-48 0 -90 11.333 -126 34s-63.833 54.334 -83.5 95.001s-29.834 87.334 -30.501 140.001v0c0 53.333 10 100.833 30 142.5s48.167 74 84.5 97
s78.833 34.5 127.5 34.5c28.667 0 55.667 -6 81 -18s47.333 -29.333 66 -52v56h106zM378.002 86.498c28 27 43.666 63.833 46.999 110.5v55c-3.33301 46 -18.666 82.5 -45.999 109.5s-60 40.833 -98 41.5c-42.667 0 -77.667 -16.5 -105 -49.5s-41.333 -76.5 -42 -130.5
c0.666992 -54 14.5 -97 41.5 -129s61.5 -48 103.5 -48c38 0 71 13.5 99 40.5z" />
    <glyph glyph-name="r" unicode="r" horiz-adv-x="356" 
d="M236 467.5c27.333 10.333 60.667 14.501 100 12.501v-92c-10.667 2 -21 3 -31 3c-37.333 0 -68 -12.667 -92 -38s-37 -58.333 -39 -99v-254h-99l-1 480h99v-60c14.667 21.333 35.667 37.166 63 47.499z" />
    <glyph glyph-name="s" unicode="s" horiz-adv-x="445" 
d="M313 351c-4.66699 18 -15.1641 32.167 -31.4971 42.5s-35.833 15.5 -58.5 15.5c-24 0 -43.333 -5.5 -58 -16.5s-22 -26.167 -22 -45.5c0 -12 4 -22.5 12 -31.5s19.667 -15.167 35 -18.5c40 -10 71.667 -17.333 95 -22c78 -18.667 117 -65.667 117 -141
c0 -43.333 -16.5 -78.666 -49.5 -105.999s-75.167 -41 -126.5 -41c-50.667 0 -93.834 11.833 -129.501 35.5s-57.5 55.5 -65.5 95.5l95 16c3.33301 -18 14 -32.5 32 -43.5s40.667 -16.5 68 -16.5c25.333 0 45 5 59 15s21 24.333 21 43c0 13.333 -4.33301 24.166 -13 32.499
s-23 14.833 -43 19.5c-26.667 5.33301 -57 12.666 -91 21.999c-34.667 8.66699 -61.834 25.334 -81.501 50.001s-29.5 53.667 -29.5 87c0 28 7.5 53.667 22.5 77s35.667 41.833 62 55.5s55.166 20.5 86.499 20.5c47.333 0 88 -11.333 122 -34s55.667 -52.667 65 -90z" />
    <glyph glyph-name="t" unicode="t" horiz-adv-x="342" 
d="M203 394v-254.999c0 -18.667 3.66699 -31 11 -37s18.333 -9 33 -9l54 -1v-92l-98 1c-34 0 -59.5 10.667 -76.5 32s-25.5 51.666 -25.5 90.999v270h-85v86h85v152h102v-152h98v-86h-98z" />
    <glyph glyph-name="u" unicode="u" horiz-adv-x="597" 
d="M528 480l0.000976562 -479.999h-99v58c-32 -47.333 -80.333 -71 -145 -71c-143.333 0 -215 79.333 -215 238v255h99v-250c0 -50.667 11.667 -88.834 35 -114.501s53.666 -38.5 90.999 -38.5c42 0 75 14.667 99 44s36 73.333 36 132v227h99z" />
    <glyph glyph-name="v" unicode="v" horiz-adv-x="513" 
d="M503 480l-202 -480h-94h-1l-196 480h102l142 -363l147 363h102z" />
    <glyph glyph-name="w" unicode="w" horiz-adv-x="764" 
d="M750 480l-166 -480h-93h-1l-109 325l-113 -325h-93h-1l-161 480h106l103 -334l107 334h106l103 -334l108 334h104z" />
    <glyph glyph-name="x" unicode="x" horiz-adv-x="479" 
d="M469 0h-109l-120 169l-120 -169h-109l172 240l-171 240h108l120 -169l120 169h108l-171 -240z" />
    <glyph glyph-name="y" unicode="y" horiz-adv-x="533" 
d="M523 480l-283 -704h-106l91 227l-217 477h107l159 -356l143 356h106z" />
    <glyph glyph-name="z" unicode="z" horiz-adv-x="455" 
d="M417 388l-255 -296h255v-92h-379v92l259 296h-259v92h379v-92z" />
    <glyph glyph-name="braceleft" unicode="{" horiz-adv-x="289" 
d="M192 407.5c-10 -20.333 -23.332 -37.833 -39.999 -52.5c17.333 -14.667 30.833 -32 40.5 -52s14.5 -42 14.5 -66v-174c0 -22.667 5.5 -39.167 16.5 -49.5s25.833 -15.5 44.5 -15.5v-71c-6 0 -14.833 0.5 -26.5 1.5s-20.167 2.16699 -25.5 3.5c-28 6 -50.167 19 -66.5 39
s-24.5 45.667 -24.5 77v173c0 21.333 -4.5 39 -13.5 53s-19.667 24.167 -32 30.5s-22.833 9.5 -31.5 9.5v78c8.66699 0 19.167 3.66699 31.5 11s23 18.333 32 33s13.5 32 13.5 52v174c0 32 8.33301 57.833 25 77.5s40 32.5 70 38.5c8 1.33301 16.667 2.33301 26 3
s16.666 1 21.999 1v-72c-18.667 0 -33.5 -4.33301 -44.5 -13s-16.5 -22 -16.5 -40v-185c0 -22.667 -5 -44.167 -15 -64.5z" />
    <glyph glyph-name="bar" unicode="|" horiz-adv-x="207" 
d="M154 788v-878h-101v878h101z" />
    <glyph glyph-name="braceright" unicode="}" horiz-adv-x="276" 
d="M161.5 436c9 -14.667 19.668 -25.667 32.001 -33s22.833 -11 31.5 -11v-78c-8.66699 0 -19.167 -3.16699 -31.5 -9.5s-23 -16.5 -32 -30.5s-13.5 -31.667 -13.5 -53v-171c0 -31.333 -8.16699 -57 -24.5 -77s-38.5 -33 -66.5 -39
c-5.33301 -1.33301 -13.833 -2.5 -25.5 -3.5s-20.5 -1.5 -26.5 -1.5v71c18.667 0 33.5 5.16699 44.5 15.5s16.5 26.833 16.5 49.5v172c0 24 4.83301 46 14.5 66s23.167 37.333 40.5 52c-16.667 14.667 -30 32.167 -40 52.5s-15 41.833 -15 64.5v185
c0 18 -5.5 31.333 -16.5 40s-25.833 13 -44.5 13v72c5.33301 0 12.666 -0.333008 21.999 -1s17.666 -1.66699 24.999 -3c30.667 -6 54.334 -18.833 71.001 -38.5s25 -45.5 25 -77.5v-174c0 -20 4.5 -37.333 13.5 -52z" />
    <glyph glyph-name="asciitilde" unicode="~" horiz-adv-x="463" 
d="M423 354c0 -30 -10.668 -55.167 -32.001 -75.5s-47.666 -30.5 -78.999 -30.5c-27.333 0 -60.333 14.333 -99 43c-28 20 -49.667 30 -65 30c-14 0 -25 -3.5 -33 -10.5s-12.667 -15.5 -14 -25.5h-61c0 30 10.5 55.167 31.5 75.5s47.5 30.5 79.5 30.5
c27.333 0 60 -14 98 -42c28 -20.667 50 -31 66 -31c14 0 24.833 3.5 32.5 10.5s12.167 15.5 13.5 25.5h62z" />
    <glyph glyph-name="exclamdown" unicode="&#xa1;" horiz-adv-x="288" 
d="M194.5 590c13.667 -13.333 20.5 -29 20.5 -47c0 -18.667 -6.83301 -34.667 -20.5 -48s-29.5 -20 -47.5 -20c-18.667 0 -34.834 6.66699 -48.501 20s-20.5 29.333 -20.5 48c0 18 6.83301 33.667 20.5 47s29.834 20 48.501 20c18 0 33.833 -6.66699 47.5 -20zM203 172v-286
h-118v286l12 259h93z" />
    <glyph glyph-name="cent" unicode="&#xa2;" horiz-adv-x="555" 
d="M69 467.5c16.667 35 39.666 64.5 68.999 88.5s62.333 40 99 48l-1 106h89v-102c44 -5.33301 82.667 -21 116 -47s57 -58.667 71 -98l-90 -32c-9.33301 26 -25 47.333 -47 64s-50.333 25 -85 25c-29.333 0 -55.166 -7.33301 -77.499 -22s-39.5 -34.5 -51.5 -59.5
s-18 -52.5 -18 -82.5s6 -57.667 18 -83s29.167 -45.333 51.5 -60s48.166 -22 77.499 -22c62.667 0 104.667 26.333 126 79l90 -35c-14.667 -35.333 -38.167 -64.5 -70.5 -87.5s-69.166 -37.167 -110.499 -42.5v-106h-89l1 110c-36.667 8 -69.667 23.833 -99 47.5
s-52.333 53 -69 88s-25 72.167 -25 111.5s8.33301 76.5 25 111.5z" />
    <glyph glyph-name="sterling" unicode="&#xa3;" horiz-adv-x="602" 
d="M576 198c0 -60 -18.501 -107.996 -55.501 -143.996s-86.5 -54 -148.5 -54h-341v101c20.667 0 39.5 7 56.5 21s30.333 32.833 40 56.5s14.5 48.834 14.5 75.501c0 22.667 -3.33301 44 -10 64h-108v88h79c-8 27.333 -12 51.666 -12 72.999c0 12 1.66699 27 5 45
c5.33301 58 28.166 105 68.499 141s90.5 54 150.5 54c50 0 94.833 -14.833 134.5 -44.5s66.5 -67.834 80.5 -114.501c-12.667 -4.66699 -25.167 -8.83398 -37.5 -12.501s-22.833 -6.83398 -31.5 -9.50098l-27 -9c-7.33301 26.667 -22.166 48.834 -44.499 66.501
s-47.166 26.5 -74.499 26.5c-33.333 0 -60.5 -9.66699 -81.5 -29s-33.5 -45.333 -37.5 -78c-2 -10.667 -3 -21.334 -3 -32.001c0 -18.667 4.66699 -44.334 14 -77.001h248v-88h-221c4.66699 -16.667 7 -36 7 -58c0 -32.667 -6 -63.5 -18 -92.5s-30 -51.167 -54 -66.5h203
c34 0 59.667 8 77 24s26 39.667 26 71l-1 15l101 6z" />
    <glyph glyph-name="currency" unicode="&#xa4;" horiz-adv-x="629" 
d="M515 214l68 -70l-67 -66l-68 71c-41.333 -26.667 -85.666 -40 -132.999 -40c-51.333 0 -97.333 14.667 -138 44l-71 -70l-66 68l71 69c-26.667 40.667 -40 85 -40 133c0 51.333 14.667 98 44 140l-69 68l66 67l70 -69c41.333 26 85.666 39 132.999 39
c51.333 0 98.333 -15 141 -45l67 67l66 -65l-68 -69c26 -42 39 -86.333 39 -133c0 -50.667 -15 -97 -45 -139zM185.5 278.5c13.667 -23 32 -41.333 55 -55s47.833 -20.5 74.5 -20.5s51.667 6.83301 75 20.5s41.833 32 55.5 55s20.5 47.833 20.5 74.5
c0 27.333 -6.83301 52.5 -20.5 75.5s-32 41.333 -55 55s-48.167 20.5 -75.5 20.5s-52.5 -6.83301 -75.5 -20.5s-41.167 -32 -54.5 -55s-20 -48.167 -20 -75.5c0 -26.667 6.83301 -51.5 20.5 -74.5z" />
    <glyph glyph-name="yen" unicode="&#xa5;" horiz-adv-x="640" 
d="M409 361h117v-85h-157v-63h157v-85h-157v-128h-100v128h-158v85h158v63h-158v85h119l-205 349h119l175 -320v1l177 319h119z" />
    <glyph glyph-name="brokenbar" unicode="&#xa6;" horiz-adv-x="373" 
d="M237 791v-338h-101v338h101zM237 278v-348h-101v348h101z" />
    <glyph glyph-name="section" unicode="&#xa7;" horiz-adv-x="516" 
d="M391 250c32.667 -26 48.9971 -63.333 48.9971 -112c0 -28.667 -7.5 -54.667 -22.5 -78s-35.833 -41.5 -62.5 -54.5s-56.667 -19.5 -90 -19.5c-50.667 0 -94 12.167 -130 36.5s-58 56.5 -66 96.5l95 16c3.33301 -18.667 13.833 -33.334 31.5 -44.001
s40.834 -16 69.501 -16c24.667 0 44 5.5 58 16.5s21 25.833 21 44.5c0 27.333 -18.333 44.666 -55 51.999l-91 23c-34.667 8.66699 -62 25.334 -82 50.001s-30 54.334 -30 89.001c0 22.667 4.83301 43.834 14.5 63.501s23.5 36.5 41.5 50.5
c-17.333 12 -30.666 27.333 -39.999 46s-14 39.334 -14 62.001c0 28.667 7.5 54.667 22.5 78s35.667 41.666 62 54.999s55.166 20 86.499 20c47.333 0 88 -11.167 122 -33.5s55.667 -52.833 65 -91.5l-92 -21c-5.33301 18 -16.166 32.167 -32.499 42.5
s-37.166 15.5 -62.499 15.5c-23.333 0 -41.833 -5.83301 -55.5 -17.5s-20.5 -26.5 -20.5 -44.5c0 -25.333 15.667 -42 47 -50l44 -10c20 -4 36.667 -8 50 -12c42 -10.667 72.167 -28 90.5 -52s27.5 -54.333 27.5 -91c0 -44.667 -17 -81.334 -51 -110.001zM345.997 376
c-8.66699 18 -25.665 29.668 -50.998 35.001c-6.66699 1.33301 -12.334 2 -17.001 2l-11 1h-4c-26 0 -45.667 -6.33301 -59 -19s-20 -27 -20 -43c0 -14.667 5.16699 -27.334 15.5 -38.001s26.166 -16.667 47.499 -18l18 -2h3c24.667 -0.666992 44.667 4.33301 60 15
s23 25 23 43c0 9.33301 -1.66699 17.333 -5 24z" />
    <glyph glyph-name="dieresis" unicode="&#xa8;" horiz-adv-x="387" 
d="M41 810c-14 14 -21 30.666 -21 49.999c0 20 7 37 21 51s31.333 21 52 21c19.333 0 36 -7.16699 50 -21.5s21 -31.166 21 -50.499s-7 -36 -21 -50s-30.667 -21 -50 -21c-20.667 0 -38 7 -52 21zM243.5 809.999c-14.333 14 -21.5 30.666 -21.5 49.999
c0 20 7.16699 37 21.5 51s31.5 21 51.5 21c19.333 0 36.166 -7.16699 50.499 -21.5s21.5 -31.166 21.5 -50.499s-7.16699 -36 -21.5 -50s-31.166 -21 -50.499 -21c-20 0 -37.167 7 -51.5 21z" />
    <glyph glyph-name="copyright" unicode="&#xa9;" horiz-adv-x="820" 
d="M224 36.5c-56.667 33 -101.501 78 -134.501 135s-49.5 119.167 -49.5 186.5c0 66.667 16.667 128.334 50 185.001s78.333 101.5 135 134.5s118.334 49.5 185.001 49.5c67.333 0 129.333 -16.5 186 -49.5s101.5 -77.833 134.5 -134.5s49.5 -118.334 49.5 -185.001
c0 -67.333 -16.5 -129.5 -49.5 -186.5s-77.833 -102 -134.5 -135s-118.667 -49.5 -186 -49.5s-129.333 16.5 -186 49.5zM553.499 110.5c43.667 25.667 78.167 60.334 103.5 104.001s38 91.5 38 143.5c0 51.333 -12.667 98.833 -38 142.5s-59.833 78.167 -103.5 103.5
s-91.5 38 -143.5 38c-51.333 0 -98.833 -12.667 -142.5 -38s-78.167 -59.833 -103.5 -103.5s-38 -91.167 -38 -142.5c0 -52 12.667 -99.833 38 -143.5s59.833 -78.334 103.5 -104.001s91.167 -38.5 142.5 -38.5c52 0 99.833 12.833 143.5 38.5zM507.999 408
c-6.66699 19.333 -18.002 35.1689 -34.002 47.502s-36.667 18.5 -62 18.5c-31.333 0 -56.5 -11.5 -75.5 -34.5s-28.5 -50.833 -28.5 -83.5s9.5 -60.334 28.5 -83.001s44.167 -34 75.5 -34c46 0 76.333 19.333 91 58l68 -27c-12 -30 -32.5 -54 -61.5 -72s-61.5 -27 -97.5 -27
c-32 0 -61.833 8.33301 -89.5 25s-49.667 39.167 -66 67.5s-24.5 59.166 -24.5 92.499c0 34 8.16699 65.167 24.5 93.5s38.333 50.833 66 67.5s57.5 25 89.5 25c38.667 0 72.834 -10 102.501 -30s49.834 -47 60.501 -81z" />
    <glyph glyph-name="guillemotleft" unicode="&#xab;" horiz-adv-x="559" 
d="M148 240l162 -240h-108l-162 240l162 240h108zM373 240l162 -240h-108l-162 240l162 240h108z" />
    <glyph glyph-name="logicalnot" unicode="&#xac;" horiz-adv-x="551" 
d="M417 76v173h-377v94h471v-267h-94z" />
    <glyph glyph-name="registered" unicode="&#xae;" horiz-adv-x="346" 
d="M250 702.5c23.333 -13.667 41.833 -32.167 55.5 -55.5s20.5 -48.666 20.5 -75.999c0 -28 -6.83301 -53.833 -20.5 -77.5s-32.167 -42.334 -55.5 -56.001s-48.666 -20.5 -75.999 -20.5c-28 0 -53.833 6.83301 -77.5 20.5s-42.334 32.334 -56.001 56.001
s-20.5 49.5 -20.5 77.5c0 27.333 6.83301 52.666 20.5 75.999s32.334 41.833 56.001 55.5s49.5 20.5 77.5 20.5c27.333 0 52.666 -6.83301 75.999 -20.5zM259 485c23.333 23.333 35 52 35 86c0 33.333 -11.667 61.666 -35 84.999s-51.666 35 -84.999 35
c-34 0 -62.667 -11.667 -86 -35s-35 -51.666 -35 -84.999c0 -34.667 11.5 -63.5 34.5 -86.5s51.833 -34.5 86.5 -34.5c33.333 0 61.666 11.667 84.999 35zM204 559l25 -56.999h-34l-23 52h-15v-52h-29v137h29h17c33.333 1.33301 50.666 -11.334 51.999 -38.001v-3v-4
c-1.33301 -17.333 -8.66602 -29 -21.999 -35zM157 581.001l24.001 -0.000976562v-1c5.33301 0.666992 8.83301 2.33398 10.5 5.00098s2.5 7 2.5 13c-0.666992 8 -7.33398 12 -20.001 12h-17v-29z" />
    <glyph glyph-name="macron" unicode="&#xaf;" horiz-adv-x="351" 
d="M328 899v-91h-304v91h304z" />
    <glyph glyph-name="degree" unicode="&#xb0;" horiz-adv-x="270" 
d="M54 529c-22.667 22.667 -34 49.667 -34 81s11.333 58.333 34 81s49.667 34 81 34s58.333 -11.333 81 -34s34 -49.667 34 -81s-11.333 -58.333 -34 -81s-49.667 -34 -81 -34s-58.333 11.333 -81 34zM168.5 576.5c9.66699 9.66699 14.5 20.832 14.5 33.499
s-4.83301 23.834 -14.5 33.501s-20.834 14.5 -33.501 14.5s-23.834 -4.66699 -33.501 -14s-14.5 -20.666 -14.5 -33.999c0 -12.667 4.83301 -23.834 14.5 -33.501s20.834 -14.5 33.501 -14.5s23.834 4.83301 33.501 14.5z" />
    <glyph glyph-name="plusminus" unicode="&#xb1;" horiz-adv-x="527" 
d="M474 377v-94h-163v-104h-94v104h-164v94h164v103h94v-103h163zM53 95h421v-95h-421v95z" />
    <glyph glyph-name="uni00B2" unicode="&#xb2;" horiz-adv-x="324" 
d="M281 533c-8 -14.667 -18.6689 -28.001 -32.002 -40.001s-33 -27.667 -59 -47l-41 -31h135v-72l-253 -1c-1.33301 26 1.5 47.167 8.5 63.5s20.167 31.166 39.5 44.499c65.333 50 104 80.333 116 91c14.667 12.667 23.334 25.334 26.001 38.001
c2 19.333 -2.16699 34.833 -12.5 46.5s-24.833 17.5 -43.5 17.5c-17.333 0 -30.666 -4.5 -39.999 -13.5s-14 -21.833 -14 -38.5c0 -5.33301 0.333008 -9.66602 1 -12.999h-73c-2 26 2.66699 49.333 14 70s27.5 36.834 48.5 48.501s44.5 17.5 70.5 17.5
c37.333 0 66.833 -11.833 88.5 -35.5s32.5 -54.834 32.5 -93.501c0 -20 -4 -37.333 -12 -52z" />
    <glyph glyph-name="uni00B3" unicode="&#xb3;" horiz-adv-x="371" 
d="M314 465c0 -36 -12.502 -66.168 -37.502 -90.501s-55.5 -36.5 -91.5 -36.5c-24.667 0 -47.167 6 -67.5 18s-36 28.5 -47 49.5s-15.5 43.833 -13.5 68.5h72c-0.666992 -2.66699 -1 -6.66699 -1 -12c0 -15.333 5.33301 -27.833 16 -37.5s24.334 -14.5 41.001 -14.5
c16 0 29.5 5.16699 40.5 15.5s16.5 23.5 16.5 39.5c0 18.667 -7 33.334 -21 44.001c-10 8 -22 12 -36 12c-11.333 0 -21.666 -2.33301 -30.999 -7l-30 57l65 66h-118v73h230v-63l-65 -66c22 -8.66699 38.667 -20.667 50 -36c18.667 -23.333 28 -50 28 -80z" />
    <glyph glyph-name="acute" unicode="&#xb4;" horiz-adv-x="222" 
d="M1 779l86 167h115l-92 -167h-109z" />
    <glyph glyph-name="uni00B5" unicode="&#xb5;" horiz-adv-x="674" 
d="M626 92l0.000976562 -92.001l-98 1c-46 0 -76.333 19.333 -91 58c-31.333 -46 -78.333 -70 -141 -72h-4h-4c-55.333 0.666992 -99 20.334 -131 59.001v-287h-100v720h100v-226c0 -58.667 12.167 -102.667 36.5 -132s57.166 -44 98.499 -44c40 0 71.833 13.333 95.5 40
s36.834 66.667 39.501 120v243h101v-341c0 -18.667 3.66699 -31 11 -37s18.666 -9 33.999 -9z" />
    <glyph glyph-name="paragraph" unicode="&#xb6;" horiz-adv-x="445" 
d="M84.5 639c29.667 37.333 67.5 61.666 113.5 72.999h101v-710h-101v305c-46 11.333 -83.833 35.833 -113.5 73.5s-44.5 80.834 -44.5 129.501s14.833 91.667 44.5 129zM405 710v-710h-46v710h46z" />
    <glyph glyph-name="periodcentered" unicode="&#xb7;" horiz-adv-x="290" 
d="M79.5 192c-18.333 18 -27.5 39.333 -27.5 64c0 25.333 9.16699 47 27.5 65s40.166 27 65.499 27s47 -9 65 -27s27 -39.667 27 -65c0 -24.667 -9.16699 -46 -27.5 -64s-39.833 -27 -64.5 -27c-25.333 0 -47.166 9 -65.499 27z" />
    <glyph glyph-name="cedilla" unicode="&#xb8;" horiz-adv-x="600" 
d="M240 -108h87c6.66699 0 11.834 2 15.501 6s5.5 9 5.5 15c0 5.33301 -1.83301 9.5 -5.5 12.5s-8.83398 4.5 -15.501 4.5h-87v53l44 58l48 -1v-29l-23 -29h32c20.667 0 36.667 -7.16699 48 -21.5s17 -30.833 17 -49.5c0 -18 -6 -34.333 -18 -49s-27 -22 -45 -22h-103v52z
" />
    <glyph glyph-name="uni00B9" unicode="&#xb9;" horiz-adv-x="254" 
d="M125 342v256c-2 -0.666992 -5 -1 -9 -1h-59v73h43c6 0 11.333 1.66699 16 5s7.66699 8.33301 9 15v20h73v-368h-73z" />
    <glyph glyph-name="guillemotright" unicode="&#xbb;" horiz-adv-x="559" 
d="M294 240l-162 -240h-109l162 240l-162 240h109zM519 240l-162 -240h-109l162 240l-162 240h109z" />
    <glyph glyph-name="onequarter" unicode="&#xbc;" horiz-adv-x="953" 
d="M104 343v255c-2 -0.666992 -5 -1 -9 -1h-59v73h43c6 0 11.333 1.66699 16 5s7.66699 8.33301 9 15v20h73v-367h-73zM85 0l541 710h104l-541 -710h-104zM903 62h-47v-69h-75v69h-173v74l173 232h75v-232l47 -1v-73zM781 136v112l-82 -112h82z" />
    <glyph glyph-name="onehalf" unicode="&#xbd;" horiz-adv-x="909" 
d="M104 343v255c-2 -0.666992 -5 -1 -9 -1h-59v73h43c6 0 11.333 1.66699 16 5s7.66699 8.33301 9 15v20h73v-367h-73zM85 0l541 710h104l-541 -710h-104zM859.5 197c-7.66699 -16.667 -18.332 -31.333 -31.999 -44s-34.834 -29.667 -63.501 -51l-40 -30h135v-72l-254 -1
c-0.666992 26.667 2.5 48 9.5 64s19.833 30.667 38.5 44c33.333 25.333 72 55.666 116 90.999c14.667 12.667 23.334 25.334 26.001 38.001c2.66699 19.333 -1.33301 34.833 -12 46.5s-25 17.5 -43 17.5c-17.333 0 -30.833 -4.5 -40.5 -13.5s-14.5 -21.833 -14.5 -38.5
c0 -6 0.333008 -10.333 1 -13h-73c-2.66699 39.333 8.66602 71.833 33.999 97.5s58 38.5 98 38.5c35.333 0 64 -10.5 86 -31.5s34 -48.5 36 -82.5h1c2 -23.333 -0.833008 -43.333 -8.5 -60z" />
    <glyph glyph-name="threequarters" unicode="&#xbe;" horiz-adv-x="1054" 
d="M308 464c0 -36 -12.501 -66.167 -37.501 -90.5s-55.5 -36.5 -91.5 -36.5c-24.667 0 -47.167 6 -67.5 18s-36 28.5 -47 49.5s-15.5 43.833 -13.5 68.5h72c-0.666992 -2.66699 -1 -6.66699 -1 -12c0 -15.333 5.5 -28 16.5 -38s24.5 -15 40.5 -15s29.5 5.33301 40.5 16
s16.5 24 16.5 40c0 18.667 -6.66699 33.667 -20 45c-10 8 -22.333 12 -37 12c-11.333 0 -21.666 -2.33301 -30.999 -7l-30 57l65 66h-118v73h230v-63l-65 -66c22 -8.66699 38.667 -20.667 50 -36c18.667 -23.333 28 -50.333 28 -81zM185.999 0l541 710h104l-541 -710h-104z
M1004 62h-47v-69h-75v69h-173v74l173 232h75v-232l47 -1v-73zM881.999 136v112l-82 -112h82z" />
    <glyph glyph-name="questiondown" unicode="&#xbf;" horiz-adv-x="593" 
d="M267.5 508.5c-13.667 13.667 -20.5 29.834 -20.5 48.501c0 18 6.83301 33.833 20.5 47.5s29.834 20.5 48.501 20.5s34.834 -6.83301 48.501 -20.5s20.5 -29.5 20.5 -47.5c0 -18.667 -6.83301 -34.834 -20.5 -48.501s-29.834 -20.5 -48.501 -20.5
s-34.834 6.83301 -48.501 20.5zM529 119c0 -42.667 -10.3311 -81.665 -30.998 -116.998s-48.834 -63.333 -84.501 -84s-74.834 -31 -117.501 -31s-81.667 10.333 -117 31s-63.333 48.667 -84 84s-31 74.333 -31 117c0 36 6.83301 68 20.5 96s37.167 55.333 70.5 82l30 23
c28 21.333 49 39.166 63 53.499s21.333 30.166 22 47.499v24h101v-29c0 -34.667 -11 -65 -33 -91s-51 -53 -87 -81l-21 -17c-42.667 -34.667 -64 -70.667 -64 -108c0 -39.333 12.667 -71 38 -95s56 -36 92 -36c22.667 0 44 6 64 18s36 28 48 48s18 41.667 18 65h103z" />
    <glyph glyph-name="Agrave" unicode="&#xc0;" horiz-adv-x="709" 
d="M508 186h-308l-72 -186h-118l287 710h108h7l287 -710h-118zM473 277l-119 303l-118 -303h237zM212 946h111l86 -167h-106z" />
    <glyph glyph-name="Aacute" unicode="&#xc1;" horiz-adv-x="709" 
d="M508 186h-308l-72 -186h-118l287 710h108h7l287 -710h-118zM473 277l-119 303l-118 -303h237zM303 779l86 167h115l-92 -167h-109z" />
    <glyph glyph-name="Acircumflex" unicode="&#xc2;" horiz-adv-x="709" 
d="M508 186h-308l-72 -186h-118l287 710h108h7l287 -710h-118zM473 277l-119 303l-118 -303h237zM409 779l-53 98l-54 -98h-92l85 167h98h23l86 -167h-93z" />
    <glyph glyph-name="Atilde" unicode="&#xc3;" horiz-adv-x="709" 
d="M508 186h-308l-72 -186h-118l287 710h108h7l287 -710h-118zM473 277l-119 303l-118 -303h237zM191 897c8.66699 18.667 21.166 33.667 37.499 45s34.5 17 54.5 17c44.667 0 79 -21 103 -63c10 -14 18.333 -23.667 25 -29s14 -8 22 -8c7.33301 0 13.333 2.83301 18 8.5
s7 12.834 7 21.501c0 7.33301 -1.33301 14.666 -4 21.999h81c0.666992 -3.33301 1 -8.66602 1 -15.999c0 -32 -10 -59.167 -30 -81.5s-44.333 -33.5 -73 -33.5c-22 0 -42.167 5.83301 -60.5 17.5s-33.833 28.167 -46.5 49.5c-8.66699 13.333 -15.667 22.166 -21 26.499
s-12.666 6.5 -21.999 6.5c-7.33301 0 -13.5 -3.33301 -18.5 -10s-7.5 -15 -7.5 -25c0 -4 0.333008 -7 1 -9h-77c-2 22 1.33301 42.333 10 61z" />
    <glyph glyph-name="Adieresis" unicode="&#xc4;" horiz-adv-x="709" 
d="M508 186h-308l-72 -186h-118l287 710h108h7l287 -710h-118zM473 277l-119 303l-118 -303h237zM204 810c-14 14 -21 30.666 -21 49.999c0 20 7 37 21 51s31.333 21 52 21c19.333 0 36 -7.16699 50 -21.5s21 -31.166 21 -50.499s-7 -36 -21 -50s-30.667 -21 -50 -21
c-20.667 0 -38 7 -52 21zM406.5 809.999c-14.333 14 -21.5 30.666 -21.5 49.999c0 20 7.16699 37 21.5 51s31.5 21 51.5 21c19.333 0 36.166 -7.16699 50.499 -21.5s21.5 -31.166 21.5 -50.499s-7.16699 -36 -21.5 -50s-31.166 -21 -50.499 -21c-20 0 -37.167 7 -51.5 21z
" />
    <glyph glyph-name="Aring" unicode="&#xc5;" horiz-adv-x="709" 
d="M508 186h-308l-72 -186h-118l287 710h108h7l287 -710h-118zM473 277l-119 303l-118 -303h237zM267.5 794c-23.667 24 -35.5 53.667 -35.5 89c0 22 5.66699 42.667 17 62s26.5 34.833 45.5 46.5s39.5 17.5 61.5 17.5s42.5 -5.83301 61.5 -17.5s34.167 -27.167 45.5 -46.5
s17 -40 17 -62c0 -22.667 -5.66699 -43.5 -17 -62.5s-26.5 -34.167 -45.5 -45.5s-39.5 -17 -61.5 -17c-35.333 0 -64.833 12 -88.5 36zM396 843.5c10.667 11 16 24.833 16 41.5c0 15.333 -5.33301 28.333 -16 39s-24 16 -40 16s-29.333 -5.33301 -40 -16
s-16 -23.667 -16 -39c0 -16.667 5.33301 -30.5 16 -41.5s24 -16.5 40 -16.5s29.333 5.5 40 16.5z" />
    <glyph glyph-name="AE" unicode="&#xc6;" horiz-adv-x="940" 
d="M885 0l-335 1v-1h-101v186h-242l-69 -186h-118l276 710h109h44h101l336 -1l-1 -101l-335 1v-202h303l-1 -98h-302v-208l336 -1zM449 277v332h-82l-125 -332h207z" />
    <glyph glyph-name="Ccedilla" unicode="&#xc7;" horiz-adv-x="752" 
d="M602 48.5c-49.333 -33.667 -105.336 -53.5 -168.003 -59.5l-21 -27h32c20.667 0 36.667 -7.16699 48 -21.5s17 -30.833 17 -49.5c0 -18 -6 -34.333 -18 -49s-27 -22 -45 -22h-103v52h87c6.66699 0 11.834 2 15.501 6s5.5 9 5.5 15c0 5.33301 -1.83301 9.5 -5.5 12.5
s-8.83398 4.5 -15.501 4.5h-87v53l19 26c-58.667 5.33301 -112.667 25 -162 59s-88.166 78 -116.499 132s-42.5 112.333 -42.5 175c0 66.667 15.833 128.334 47.5 185.001s74.667 101.667 129 135s113.5 50 177.5 50c59.333 0 110.666 -11.5 153.999 -34.5
s77.5 -50.167 102.5 -81.5s43.167 -62 54.5 -92l-102 -38c-15.333 40.667 -41.666 74.167 -78.999 100.5s-80.666 39.5 -129.999 39.5c-45.333 0 -86.666 -11.667 -123.999 -35s-66.666 -55.166 -87.999 -95.499s-32 -84.833 -32 -133.5s10.667 -92.834 32 -132.501
s50.666 -70.834 87.999 -93.501s78.666 -34 123.999 -34c48 0 91.333 12.167 130 36.5s67.334 55.833 86.001 94.5l101 -47c-24.667 -53.333 -61.667 -96.833 -111 -130.5z" />
    <glyph glyph-name="Egrave" unicode="&#xc8;" horiz-adv-x="579" 
d="M521 100l-1 -100h-430h-6v710h101h336l-1 -101h-335v-202h303l-1 -98h-302v-209h336zM153 945h111l86 -167h-106z" />
    <glyph glyph-name="Eacute" unicode="&#xc9;" horiz-adv-x="579" 
d="M521 100l-1 -100h-430h-6v710h101h336l-1 -101h-335v-202h303l-1 -98h-302v-209h336zM244 778l86 167h115l-92 -167h-109z" />
    <glyph glyph-name="Ecircumflex" unicode="&#xca;" horiz-adv-x="579" 
d="M521 100l-1 -100h-430h-6v710h101h336l-1 -101h-335v-202h303l-1 -98h-302v-209h336zM350 778l-53 98l-54 -98h-92l85 167h98h23l86 -167h-93z" />
    <glyph glyph-name="Edieresis" unicode="&#xcb;" horiz-adv-x="579" 
d="M521 100l-1 -100h-430h-6v710h101h336l-1 -101h-335v-202h303l-1 -98h-302v-209h336zM145 809c-14 14 -21 30.666 -21 49.999c0 20 7 37 21 51s31.333 21 52 21c19.333 0 36 -7.16699 50 -21.5s21 -31.166 21 -50.499s-7 -36 -21 -50s-30.667 -21 -50 -21
c-20.667 0 -38 7 -52 21zM347.5 808.999c-14.333 14 -21.5 30.666 -21.5 49.999c0 20 7.16699 37 21.5 51s31.5 21 51.5 21c19.333 0 36.166 -7.16699 50.499 -21.5s21.5 -31.166 21.5 -50.499s-7.16699 -36 -21.5 -50s-31.166 -21 -50.499 -21c-20 0 -37.167 7 -51.5 21z
" />
    <glyph glyph-name="Igrave" unicode="&#xcc;" horiz-adv-x="269" 
d="M84 0v710h101v-710h-101zM-10 946h111l86 -167h-106z" />
    <glyph glyph-name="Iacute" unicode="&#xcd;" horiz-adv-x="269" 
d="M84 0v710h101v-710h-101zM81 779l86 167h115l-92 -167h-109z" />
    <glyph glyph-name="Icircumflex" unicode="&#xce;" horiz-adv-x="269" 
d="M84 0v710h101v-710h-101zM187 779l-53 98l-54 -98h-92l85 167h98h23l86 -167h-93z" />
    <glyph glyph-name="Idieresis" unicode="&#xcf;" horiz-adv-x="269" 
d="M84 0v710h101v-710h-101zM-18 810c-14 14 -21 30.666 -21 49.999c0 20 7 37 21 51s31.333 21 52 21c19.333 0 36 -7.16699 50 -21.5s21 -31.166 21 -50.499s-7 -36 -21 -50s-30.667 -21 -50 -21c-20.667 0 -38 7 -52 21zM184.5 809.999
c-14.333 14 -21.5 30.666 -21.5 49.999c0 20 7.16699 37 21.5 51s31.5 21 51.5 21c19.333 0 36.166 -7.16699 50.499 -21.5s21.5 -31.166 21.5 -50.499s-7.16699 -36 -21.5 -50s-31.166 -21 -50.499 -21c-20 0 -37.167 7 -51.5 21z" />
    <glyph glyph-name="Eth" unicode="&#xd0;" horiz-adv-x="789" 
d="M686 170c-30.667 -54 -73.667 -95.833 -129 -125.5s-118.333 -44.5 -189 -44.5h-164h-62v305h-84v101h84v305h101h125c70 0 132.667 -15 188 -45s98.5 -72 129.5 -126s46.5 -115.667 46.5 -185s-15.333 -131 -46 -185zM554 163.5
c45.333 47 67.999 110.831 67.999 191.498c0 52.667 -10.333 98.834 -31 138.501s-50.167 70.334 -88.5 92.001s-83.166 32.5 -134.499 32.5h-125v-212h101v-101h-101v-212h125c78.667 0 140.667 23.5 186 70.5z" />
    <glyph glyph-name="Ntilde" unicode="&#xd1;" horiz-adv-x="730" 
d="M646 0h-100l-362 535v-535h-100v710h100l362 -535v535h100v-710zM205 897c8.66699 18.667 21.166 33.667 37.499 45s34.5 17 54.5 17c44.667 0 79 -21 103 -63c10 -14 18.333 -23.667 25 -29s14 -8 22 -8c7.33301 0 13.333 2.83301 18 8.5s7 12.834 7 21.501
c0 7.33301 -1.33301 14.666 -4 21.999h81c0.666992 -3.33301 1 -8.66602 1 -15.999c0 -32 -10 -59.167 -30 -81.5s-44.333 -33.5 -73 -33.5c-22 0 -42.167 5.83301 -60.5 17.5s-33.833 28.167 -46.5 49.5c-8.66699 13.333 -15.667 22.166 -21 26.499
s-12.666 6.5 -21.999 6.5c-7.33301 0 -13.5 -3.33301 -18.5 -10s-7.5 -15 -7.5 -25c0 -4 0.333008 -7 1 -9h-77c-2 22 1.33301 42.333 10 61z" />
    <glyph glyph-name="Ograve" unicode="&#xd2;" horiz-adv-x="783" 
d="M695.5 543.5c-30.333 56.333 -72.167 100.499 -125.5 132.499s-113.333 48 -180 48c-66 0 -125.5 -16 -178.5 -48s-94.5 -76.167 -124.5 -132.5s-45 -119.5 -45 -189.5c0 -68.667 15.333 -131 46 -187s72.667 -100 126 -132s112.333 -48 177 -48
c66.667 0 126.667 15.667 180 47s95 74.833 125 130.5s45 118.834 45 189.501c0 70 -15.167 133.167 -45.5 189.5zM600.499 216.999c-19.667 -39.333 -47.667 -69.667 -84 -91s-78.166 -32 -125.499 -32c-46 0 -87 11 -123 33s-64.167 52.667 -84.5 92
s-30.5 84.333 -30.5 135c0 51.333 10 97 30 137s48 71.167 84 93.5s77 33.5 123 33.5c47.333 0 89.166 -11 125.499 -33s64.5 -53 84.5 -93s30 -86 30 -138s-9.83301 -97.667 -29.5 -137zM245.999 945.998h111l86 -167h-106z" />
    <glyph glyph-name="Oacute" unicode="&#xd3;" horiz-adv-x="783" 
d="M695.5 543.5c-30.333 56.333 -72.167 100.499 -125.5 132.499s-113.333 48 -180 48c-66 0 -125.5 -16 -178.5 -48s-94.5 -76.167 -124.5 -132.5s-45 -119.5 -45 -189.5c0 -68.667 15.333 -131 46 -187s72.667 -100 126 -132s112.333 -48 177 -48
c66.667 0 126.667 15.667 180 47s95 74.833 125 130.5s45 118.834 45 189.501c0 70 -15.167 133.167 -45.5 189.5zM600.499 216.999c-19.667 -39.333 -47.667 -69.667 -84 -91s-78.166 -32 -125.499 -32c-46 0 -87 11 -123 33s-64.167 52.667 -84.5 92
s-30.5 84.333 -30.5 135c0 51.333 10 97 30 137s48 71.167 84 93.5s77 33.5 123 33.5c47.333 0 89.166 -11 125.499 -33s64.5 -53 84.5 -93s30 -86 30 -138s-9.83301 -97.667 -29.5 -137zM336.999 778.998l86 167h115l-92 -167h-109z" />
    <glyph glyph-name="Ocircumflex" unicode="&#xd4;" horiz-adv-x="783" 
d="M695.5 543.5c-30.333 56.333 -72.167 100.499 -125.5 132.499s-113.333 48 -180 48c-66 0 -125.5 -16 -178.5 -48s-94.5 -76.167 -124.5 -132.5s-45 -119.5 -45 -189.5c0 -68.667 15.333 -131 46 -187s72.667 -100 126 -132s112.333 -48 177 -48
c66.667 0 126.667 15.667 180 47s95 74.833 125 130.5s45 118.834 45 189.501c0 70 -15.167 133.167 -45.5 189.5zM600.499 216.999c-19.667 -39.333 -47.667 -69.667 -84 -91s-78.166 -32 -125.499 -32c-46 0 -87 11 -123 33s-64.167 52.667 -84.5 92
s-30.5 84.333 -30.5 135c0 51.333 10 97 30 137s48 71.167 84 93.5s77 33.5 123 33.5c47.333 0 89.166 -11 125.499 -33s64.5 -53 84.5 -93s30 -86 30 -138s-9.83301 -97.667 -29.5 -137zM442.999 778.998l-53 98l-54 -98h-92l85 167h98h23l86 -167h-93z" />
    <glyph glyph-name="Otilde" unicode="&#xd5;" horiz-adv-x="783" 
d="M695.5 543.5c-30.333 56.333 -72.167 100.499 -125.5 132.499s-113.333 48 -180 48c-66 0 -125.5 -16 -178.5 -48s-94.5 -76.167 -124.5 -132.5s-45 -119.5 -45 -189.5c0 -68.667 15.333 -131 46 -187s72.667 -100 126 -132s112.333 -48 177 -48
c66.667 0 126.667 15.667 180 47s95 74.833 125 130.5s45 118.834 45 189.501c0 70 -15.167 133.167 -45.5 189.5zM600.499 216.999c-19.667 -39.333 -47.667 -69.667 -84 -91s-78.166 -32 -125.499 -32c-46 0 -87 11 -123 33s-64.167 52.667 -84.5 92
s-30.5 84.333 -30.5 135c0 51.333 10 97 30 137s48 71.167 84 93.5s77 33.5 123 33.5c47.333 0 89.166 -11 125.499 -33s64.5 -53 84.5 -93s30 -86 30 -138s-9.83301 -97.667 -29.5 -137zM225.999 896.998c8.66699 18.667 21.166 33.667 37.499 45s34.5 17 54.5 17
c44.667 0 79 -21 103 -63c10 -14 18.333 -23.667 25 -29s14 -8 22 -8c7.33301 0 13.333 2.83301 18 8.5s7 12.834 7 21.501c0 7.33301 -1.33301 14.666 -4 21.999h81c0.666992 -3.33301 1 -8.66602 1 -15.999c0 -32 -10 -59.167 -30 -81.5s-44.333 -33.5 -73 -33.5
c-22 0 -42.167 5.83301 -60.5 17.5s-33.833 28.167 -46.5 49.5c-8.66699 13.333 -15.667 22.166 -21 26.499s-12.666 6.5 -21.999 6.5c-7.33301 0 -13.5 -3.33301 -18.5 -10s-7.5 -15 -7.5 -25c0 -4 0.333008 -7 1 -9h-77c-2 22 1.33301 42.333 10 61z" />
    <glyph glyph-name="Odieresis" unicode="&#xd6;" horiz-adv-x="783" 
d="M695.5 543.5c-30.333 56.333 -72.167 100.499 -125.5 132.499s-113.333 48 -180 48c-66 0 -125.5 -16 -178.5 -48s-94.5 -76.167 -124.5 -132.5s-45 -119.5 -45 -189.5c0 -68.667 15.333 -131 46 -187s72.667 -100 126 -132s112.333 -48 177 -48
c66.667 0 126.667 15.667 180 47s95 74.833 125 130.5s45 118.834 45 189.501c0 70 -15.167 133.167 -45.5 189.5zM600.499 216.999c-19.667 -39.333 -47.667 -69.667 -84 -91s-78.166 -32 -125.499 -32c-46 0 -87 11 -123 33s-64.167 52.667 -84.5 92
s-30.5 84.333 -30.5 135c0 51.333 10 97 30 137s48 71.167 84 93.5s77 33.5 123 33.5c47.333 0 89.166 -11 125.499 -33s64.5 -53 84.5 -93s30 -86 30 -138s-9.83301 -97.667 -29.5 -137zM237.999 809.998c-14 14 -21 30.666 -21 49.999c0 20 7 37 21 51s31.333 21 52 21
c19.333 0 36 -7.16699 50 -21.5s21 -31.166 21 -50.499s-7 -36 -21 -50s-30.667 -21 -50 -21c-20.667 0 -38 7 -52 21zM440.499 809.997c-14.333 14 -21.5 30.666 -21.5 49.999c0 20 7.16699 37 21.5 51s31.5 21 51.5 21c19.333 0 36.166 -7.16699 50.499 -21.5
s21.5 -31.166 21.5 -50.499s-7.16699 -36 -21.5 -50s-31.166 -21 -50.499 -21c-20 0 -37.167 7 -51.5 21z" />
    <glyph glyph-name="multiply" unicode="&#xd7;" horiz-adv-x="792" 
d="M462 356l283 -290l-68 -66l-281 288l-281 -288l-68 66l283 290l-283 289l68 67l281 -288l281 288l68 -67z" />
    <glyph glyph-name="Oslash" unicode="&#xd8;" horiz-adv-x="814" 
d="M727 510c20 -48 30 -99.999 30 -155.999c0 -70.667 -15.167 -134.167 -45.5 -190.5s-72 -100.5 -125 -132.5s-112.833 -48 -179.5 -48c-51.333 0 -99.333 10.333 -144 31l-10 -16h-127l48 76c-36.667 34.667 -65.167 76.167 -85.5 124.5s-30.5 100.166 -30.5 155.499
c0 70 15 133.167 45 189.5s71.5 100.5 124.5 132.5s112.5 48 178.5 48c54 0 105 -11 153 -33l11 18h119l-46 -76c36 -34 64 -75 84 -123zM185.5 251.001c11 -31.333 26.5 -59.002 46.5 -83.002l270 431c-30.667 12.667 -62.667 19 -96 19c-46 0 -87 -11.167 -123 -33.5
s-64 -53.666 -84 -93.999s-30 -86.166 -30 -137.499c0 -36.667 5.5 -70.667 16.5 -102zM532.5 121.999c36.333 22 64.334 53 84.001 93s29.5 86 29.5 138c0 37.333 -5.16699 71.833 -15.5 103.5s-25.5 59.167 -45.5 82.5l-266 -433c28 -11.333 57.333 -17 88 -17
c47.333 0 89.166 11 125.499 33z" />
    <glyph glyph-name="Ugrave" unicode="&#xd9;" horiz-adv-x="702" 
d="M626 710l-0.00195312 -460c0 -51.333 -12.833 -97.166 -38.5 -137.499s-59.667 -71.666 -102 -93.999s-87.166 -33.5 -134.499 -33.5s-92.166 11.167 -134.499 33.5s-76.333 53.666 -102 93.999s-38.5 86.166 -38.5 137.499v460h102v-460c0 -31.333 8.5 -59.5 25.5 -84.5
s38.833 -44.5 65.5 -58.5s54 -21 82 -21s55.333 7 82 21s48.5 33.5 65.5 58.5s25.5 53.167 25.5 84.5v460h102zM206.998 946h111l86 -167h-106z" />
    <glyph glyph-name="Uacute" unicode="&#xda;" horiz-adv-x="702" 
d="M626 710l-0.00195312 -460c0 -51.333 -12.833 -97.166 -38.5 -137.499s-59.667 -71.666 -102 -93.999s-87.166 -33.5 -134.499 -33.5s-92.166 11.167 -134.499 33.5s-76.333 53.666 -102 93.999s-38.5 86.166 -38.5 137.499v460h102v-460c0 -31.333 8.5 -59.5 25.5 -84.5
s38.833 -44.5 65.5 -58.5s54 -21 82 -21s55.333 7 82 21s48.5 33.5 65.5 58.5s25.5 53.167 25.5 84.5v460h102zM297.998 779l86 167h115l-92 -167h-109z" />
    <glyph glyph-name="Ucircumflex" unicode="&#xdb;" horiz-adv-x="702" 
d="M626 710l-0.00195312 -460c0 -51.333 -12.833 -97.166 -38.5 -137.499s-59.667 -71.666 -102 -93.999s-87.166 -33.5 -134.499 -33.5s-92.166 11.167 -134.499 33.5s-76.333 53.666 -102 93.999s-38.5 86.166 -38.5 137.499v460h102v-460c0 -31.333 8.5 -59.5 25.5 -84.5
s38.833 -44.5 65.5 -58.5s54 -21 82 -21s55.333 7 82 21s48.5 33.5 65.5 58.5s25.5 53.167 25.5 84.5v460h102zM403.998 779l-53 98l-54 -98h-92l85 167h98h23l86 -167h-93z" />
    <glyph glyph-name="Udieresis" unicode="&#xdc;" horiz-adv-x="702" 
d="M626 710l-0.00195312 -460c0 -51.333 -12.833 -97.166 -38.5 -137.499s-59.667 -71.666 -102 -93.999s-87.166 -33.5 -134.499 -33.5s-92.166 11.167 -134.499 33.5s-76.333 53.666 -102 93.999s-38.5 86.166 -38.5 137.499v460h102v-460c0 -31.333 8.5 -59.5 25.5 -84.5
s38.833 -44.5 65.5 -58.5s54 -21 82 -21s55.333 7 82 21s48.5 33.5 65.5 58.5s25.5 53.167 25.5 84.5v460h102zM198.998 810c-14 14 -21 30.666 -21 49.999c0 20 7 37 21 51s31.333 21 52 21c19.333 0 36 -7.16699 50 -21.5s21 -31.166 21 -50.499s-7 -36 -21 -50
s-30.667 -21 -50 -21c-20.667 0 -38 7 -52 21zM401.498 809.999c-14.333 14 -21.5 30.666 -21.5 49.999c0 20 7.16699 37 21.5 51s31.5 21 51.5 21c19.333 0 36.166 -7.16699 50.499 -21.5s21.5 -31.166 21.5 -50.499s-7.16699 -36 -21.5 -50s-31.166 -21 -50.499 -21
c-20 0 -37.167 7 -51.5 21z" />
    <glyph glyph-name="Yacute" unicode="&#xdd;" horiz-adv-x="610" 
d="M355 294v-294h-100v292l-245 418h119l175 -320v1l177 319h119zM252 778l86 167h115l-92 -167h-109z" />
    <glyph glyph-name="Thorn" unicode="&#xde;" horiz-adv-x="597" 
d="M58 710h101v-143h144c50 0 92.833 -10 128.5 -30s62.5 -46.167 80.5 -78.5s27 -66.833 27 -103.5s-9 -71.167 -27 -103.5s-44.667 -58.333 -80 -78s-78.333 -29.5 -129 -29.5h-144v-144h-101v710zM298 241c41.333 0 73.666 11.332 96.999 33.999s35 49.334 35 80.001
c0 31.333 -11.667 58.333 -35 81s-55.666 34 -96.999 34h-139v-229h139z" />
    <glyph glyph-name="germandbls" unicode="&#xdf;" horiz-adv-x="521" 
d="M445.5 334.5c19 -31.667 28.498 -66.833 28.498 -105.5c0 -41.333 -9.16699 -79.333 -27.5 -114s-44.5 -62.5 -78.5 -83.5s-73.333 -31.5 -118 -31.5h-54v98h54c36.667 0.666992 67.667 13.334 93 38.001s38 55.667 38 93s-13.167 68.166 -39.5 92.499
s-58.833 36.5 -97.5 36.5v85c28 0 50.333 9.83301 67 29.5s25 41.834 25 66.501c0 28 -9.33301 50.667 -28 68s-41 26 -67 26s-48.167 -8.83301 -66.5 -26.5s-27.5 -40.5 -27.5 -68.5v-538h-100v543c0 32.667 9 63 27 91s41.833 50.333 71.5 67s60.5 25 92.5 25
c34.667 0 66.334 -8 95.001 -24s51.334 -38 68.001 -66s25 -59 25 -93c0 -26 -5 -50.5 -15 -73.5s-24 -42.833 -42 -59.5c32 -18.667 57.5 -43.834 76.5 -75.501z" />
    <glyph glyph-name="agrave" unicode="&#xe0;" horiz-adv-x="520" 
d="M367 473.5c29.333 -14.333 52.5029 -34.999 69.5029 -61.999s25.5 -59.167 25.5 -96.5v-319h-99v49c-16.667 -18 -36.667 -32.167 -60 -42.5s-48.333 -15.5 -75 -15.5c-53.333 0 -97 14.167 -131 42.5s-51.333 65.5 -52 111.5c-1.33301 26.667 4 51.667 16 75
s29.333 42.333 52 57c15.333 10 33.666 17.167 54.999 21.5s47.666 6.5 78.999 6.5h83c23.333 0 34 10.667 32 32c-2.66699 25.333 -13.5 43.666 -32.5 54.999s-42.833 17 -71.5 17c-28 0 -52.333 -5.5 -73 -16.5s-38.334 -29.167 -53.001 -54.5l-76 42
c44.667 79.333 115.667 119 213 119c36 0 68.667 -7.16699 98 -21.5zM324.003 104.501c23.333 21 36.334 51.5 39.001 91.5v28c-22.667 -1.33301 -61 -2 -115 -2c-34.667 0 -61.834 -6.83301 -81.501 -20.5s-29.5 -32.167 -29.5 -55.5c0 -24.667 8.83301 -43 26.5 -55
s40.167 -18 67.5 -18c38.667 0 69.667 10.5 93 31.5zM125.004 732.001h111l86 -167h-106z" />
    <glyph glyph-name="aacute" unicode="&#xe1;" horiz-adv-x="520" 
d="M367 473.5c29.333 -14.333 52.5029 -34.999 69.5029 -61.999s25.5 -59.167 25.5 -96.5v-319h-99v49c-16.667 -18 -36.667 -32.167 -60 -42.5s-48.333 -15.5 -75 -15.5c-53.333 0 -97 14.167 -131 42.5s-51.333 65.5 -52 111.5c-1.33301 26.667 4 51.667 16 75
s29.333 42.333 52 57c15.333 10 33.666 17.167 54.999 21.5s47.666 6.5 78.999 6.5h83c23.333 0 34 10.667 32 32c-2.66699 25.333 -13.5 43.666 -32.5 54.999s-42.833 17 -71.5 17c-28 0 -52.333 -5.5 -73 -16.5s-38.334 -29.167 -53.001 -54.5l-76 42
c44.667 79.333 115.667 119 213 119c36 0 68.667 -7.16699 98 -21.5zM324.003 104.501c23.333 21 36.334 51.5 39.001 91.5v28c-22.667 -1.33301 -61 -2 -115 -2c-34.667 0 -61.834 -6.83301 -81.501 -20.5s-29.5 -32.167 -29.5 -55.5c0 -24.667 8.83301 -43 26.5 -55
s40.167 -18 67.5 -18c38.667 0 69.667 10.5 93 31.5zM216.004 565.001l86 167h115l-92 -167h-109z" />
    <glyph glyph-name="acircumflex" unicode="&#xe2;" horiz-adv-x="520" 
d="M367 473.5c29.333 -14.333 52.5029 -34.999 69.5029 -61.999s25.5 -59.167 25.5 -96.5v-319h-99v49c-16.667 -18 -36.667 -32.167 -60 -42.5s-48.333 -15.5 -75 -15.5c-53.333 0 -97 14.167 -131 42.5s-51.333 65.5 -52 111.5c-1.33301 26.667 4 51.667 16 75
s29.333 42.333 52 57c15.333 10 33.666 17.167 54.999 21.5s47.666 6.5 78.999 6.5h83c23.333 0 34 10.667 32 32c-2.66699 25.333 -13.5 43.666 -32.5 54.999s-42.833 17 -71.5 17c-28 0 -52.333 -5.5 -73 -16.5s-38.334 -29.167 -53.001 -54.5l-76 42
c44.667 79.333 115.667 119 213 119c36 0 68.667 -7.16699 98 -21.5zM324.003 104.501c23.333 21 36.334 51.5 39.001 91.5v28c-22.667 -1.33301 -61 -2 -115 -2c-34.667 0 -61.834 -6.83301 -81.501 -20.5s-29.5 -32.167 -29.5 -55.5c0 -24.667 8.83301 -43 26.5 -55
s40.167 -18 67.5 -18c38.667 0 69.667 10.5 93 31.5zM322.004 565.001l-53 98l-54 -98h-92l85 167h98h23l86 -167h-93z" />
    <glyph glyph-name="atilde" unicode="&#xe3;" horiz-adv-x="520" 
d="M367 473.5c29.333 -14.333 52.5029 -34.999 69.5029 -61.999s25.5 -59.167 25.5 -96.5v-319h-99v49c-16.667 -18 -36.667 -32.167 -60 -42.5s-48.333 -15.5 -75 -15.5c-53.333 0 -97 14.167 -131 42.5s-51.333 65.5 -52 111.5c-1.33301 26.667 4 51.667 16 75
s29.333 42.333 52 57c15.333 10 33.666 17.167 54.999 21.5s47.666 6.5 78.999 6.5h83c23.333 0 34 10.667 32 32c-2.66699 25.333 -13.5 43.666 -32.5 54.999s-42.833 17 -71.5 17c-28 0 -52.333 -5.5 -73 -16.5s-38.334 -29.167 -53.001 -54.5l-76 42
c44.667 79.333 115.667 119 213 119c36 0 68.667 -7.16699 98 -21.5zM324.003 104.501c23.333 21 36.334 51.5 39.001 91.5v28c-22.667 -1.33301 -61 -2 -115 -2c-34.667 0 -61.834 -6.83301 -81.501 -20.5s-29.5 -32.167 -29.5 -55.5c0 -24.667 8.83301 -43 26.5 -55
s40.167 -18 67.5 -18c38.667 0 69.667 10.5 93 31.5zM105.004 683.001c8.66699 18.667 21.166 33.667 37.499 45s34.5 17 54.5 17c44.667 0 79 -21 103 -63c10 -14 18.333 -23.667 25 -29s14 -8 22 -8c7.33301 0 13.333 2.83301 18 8.5s7 12.834 7 21.501
c0 7.33301 -1.33301 14.666 -4 21.999h81c0.666992 -3.33301 1 -8.66602 1 -15.999c0 -32 -10 -59.167 -30 -81.5s-44.333 -33.5 -73 -33.5c-22 0 -42.167 5.83301 -60.5 17.5s-33.833 28.167 -46.5 49.5c-8.66699 13.333 -15.667 22.166 -21 26.499
s-12.666 6.5 -21.999 6.5c-7.33301 0 -13.5 -3.33301 -18.5 -10s-7.5 -15 -7.5 -25c0 -4 0.333008 -7 1 -9h-77c-2 22 1.33301 42.333 10 61z" />
    <glyph glyph-name="adieresis" unicode="&#xe4;" horiz-adv-x="520" 
d="M367 473.5c29.333 -14.333 52.5029 -34.999 69.5029 -61.999s25.5 -59.167 25.5 -96.5v-319h-99v49c-16.667 -18 -36.667 -32.167 -60 -42.5s-48.333 -15.5 -75 -15.5c-53.333 0 -97 14.167 -131 42.5s-51.333 65.5 -52 111.5c-1.33301 26.667 4 51.667 16 75
s29.333 42.333 52 57c15.333 10 33.666 17.167 54.999 21.5s47.666 6.5 78.999 6.5h83c23.333 0 34 10.667 32 32c-2.66699 25.333 -13.5 43.666 -32.5 54.999s-42.833 17 -71.5 17c-28 0 -52.333 -5.5 -73 -16.5s-38.334 -29.167 -53.001 -54.5l-76 42
c44.667 79.333 115.667 119 213 119c36 0 68.667 -7.16699 98 -21.5zM324.003 104.501c23.333 21 36.334 51.5 39.001 91.5v28c-22.667 -1.33301 -61 -2 -115 -2c-34.667 0 -61.834 -6.83301 -81.501 -20.5s-29.5 -32.167 -29.5 -55.5c0 -24.667 8.83301 -43 26.5 -55
s40.167 -18 67.5 -18c38.667 0 69.667 10.5 93 31.5zM117.004 596.001c-14 14 -21 30.666 -21 49.999c0 20 7 37 21 51s31.333 21 52 21c19.333 0 36 -7.16699 50 -21.5s21 -31.166 21 -50.499s-7 -36 -21 -50s-30.667 -21 -50 -21c-20.667 0 -38 7 -52 21zM319.504 596
c-14.333 14 -21.5 30.666 -21.5 49.999c0 20 7.16699 37 21.5 51s31.5 21 51.5 21c19.333 0 36.166 -7.16699 50.499 -21.5s21.5 -31.166 21.5 -50.499s-7.16699 -36 -21.5 -50s-31.166 -21 -50.499 -21c-20 0 -37.167 7 -51.5 21z" />
    <glyph glyph-name="aring" unicode="&#xe5;" horiz-adv-x="520" 
d="M367 473.5c29.333 -14.333 52.5029 -34.999 69.5029 -61.999s25.5 -59.167 25.5 -96.5v-319h-99v49c-16.667 -18 -36.667 -32.167 -60 -42.5s-48.333 -15.5 -75 -15.5c-53.333 0 -97 14.167 -131 42.5s-51.333 65.5 -52 111.5c-1.33301 26.667 4 51.667 16 75
s29.333 42.333 52 57c15.333 10 33.666 17.167 54.999 21.5s47.666 6.5 78.999 6.5h83c23.333 0 34 10.667 32 32c-2.66699 25.333 -13.5 43.666 -32.5 54.999s-42.833 17 -71.5 17c-28 0 -52.333 -5.5 -73 -16.5s-38.334 -29.167 -53.001 -54.5l-76 42
c44.667 79.333 115.667 119 213 119c36 0 68.667 -7.16699 98 -21.5zM324.003 104.501c23.333 21 36.334 51.5 39.001 91.5v28c-22.667 -1.33301 -61 -2 -115 -2c-34.667 0 -61.834 -6.83301 -81.501 -20.5s-29.5 -32.167 -29.5 -55.5c0 -24.667 8.83301 -43 26.5 -55
s40.167 -18 67.5 -18c38.667 0 69.667 10.5 93 31.5zM181.504 580.001c-23.667 24 -35.5 53.667 -35.5 89c0 22 5.66699 42.667 17 62s26.5 34.833 45.5 46.5s39.5 17.5 61.5 17.5s42.5 -5.83301 61.5 -17.5s34.167 -27.167 45.5 -46.5s17 -40 17 -62
c0 -22.667 -5.66699 -43.5 -17 -62.5s-26.5 -34.167 -45.5 -45.5s-39.5 -17 -61.5 -17c-35.333 0 -64.833 12 -88.5 36zM310.004 629.501c10.667 11 16 24.833 16 41.5c0 15.333 -5.33301 28.333 -16 39s-24 16 -40 16s-29.333 -5.33301 -40 -16s-16 -23.667 -16 -39
c0 -16.667 5.33301 -30.5 16 -41.5s24 -16.5 40 -16.5s29.333 5.5 40 16.5z" />
    <glyph glyph-name="ae" unicode="&#xe6;" horiz-adv-x="879" 
d="M834.5 295c3 -20.667 4.16699 -48.001 3.5 -82.001h-383c6.66699 -39.333 23.167 -70.5 49.5 -93.5s57.833 -34.5 94.5 -34.5c30 0 56.333 6.66699 79 20s39 31.333 49 54l87 -34c-16.667 -41.333 -44.5 -74.166 -83.5 -98.499s-82.833 -36.5 -131.5 -36.5
c-26.667 0 -52.5 4.66699 -77.5 14s-47.833 22.333 -68.5 39v-44h-33c-8.66699 0 -19 0.166992 -31 0.5s-24.333 0.166016 -37 -0.500977v35c-16.667 -15.333 -36.167 -27.166 -58.5 -35.499s-46.166 -12.5 -71.499 -12.5c-32.667 0 -62.834 6.33301 -90.501 19
s-49.834 30.5 -66.501 53.5s-25 49.167 -25 78.5c0 53.333 22 94.666 66 123.999c16.667 11.333 37.167 19 61.5 23s56.5 6.33301 96.5 7h52c15.333 0 25.333 3.5 30 10.5s6.33398 18.167 5.00098 33.5c-3.33301 22 -14 39 -32 51s-39.667 18 -65 18
c-28.667 0 -54.5 -6.16699 -77.5 -18.5s-40.167 -30.5 -51.5 -54.5l-77 39c24 45.333 53.667 77.833 89 97.5s75.666 29.5 120.999 29.5c34.667 0 66.5 -7 95.5 -21s52.167 -33.667 69.5 -59c22.667 25.333 49.167 45.333 79.5 60s62.5 22 96.5 22
c49.333 0 93.333 -12.667 132 -38s67.334 -59.666 86.001 -102.999c8.66699 -21.333 14.5 -42.333 17.5 -63zM742 288.999c-5.33301 34.667 -21 62.5 -47 83.5s-57.667 31.5 -95 31.5c-33.333 0 -63 -10.667 -89 -32s-43.333 -49 -52 -83h283zM314.5 109.499
c22.333 23.667 34.832 56.5 37.499 98.5v6c-23.333 -1.33301 -63.666 -2 -120.999 -2c-66 0 -99 -21.667 -99 -65c0 -24.667 8.83301 -43 26.5 -55s39.5 -18 65.5 -18c38 0 68.167 11.833 90.5 35.5z" />
    <glyph glyph-name="ccedilla" unicode="&#xe7;" horiz-adv-x="533" 
d="M363.5 98.5c21.667 15 36.835 33.168 45.502 54.501l87 -34c-14.667 -36.667 -38.667 -66.667 -72 -90s-71.666 -37 -114.999 -41l-15 -19h32c20.667 0 36.667 -7.16699 48 -21.5s17 -30.833 17 -49.5c0 -18 -6 -34.333 -18 -49s-27 -22 -45 -22h-103v52h87
c6.66699 0 11.834 2 15.501 6s5.5 9 5.5 15c0 5.33301 -1.83301 9.5 -5.5 12.5s-8.83398 4.5 -15.501 4.5h-87v53l16 21c-38.667 6.66699 -73.5 21.667 -104.5 45s-55.5 52.666 -73.5 87.999s-27 73.333 -27 114c0 46 11.167 88.5 33.5 127.5s52.5 70 90.5 93
s79 34.5 123 34.5c51.333 0 97.166 -13.5 137.499 -40.5s68.166 -62.833 83.499 -107.5l-89 -32c-10 26.667 -25.833 48.167 -47.5 64.5s-49.834 24.5 -84.501 24.5c-44 0 -79.5 -15.667 -106.5 -47s-40.5 -70.333 -40.5 -117c0 -46 13.5 -84.5 40.5 -115.5
s62.5 -46.5 106.5 -46.5c32 0 58.833 7.5 80.5 22.5z" />
    <glyph glyph-name="egrave" unicode="&#xe8;" horiz-adv-x="553" 
d="M516 200h-379.999c8.66699 -34 26 -62 52 -84s55.667 -33 89 -33c30 0 56.333 6.66699 79 20s38.667 31 48 53l88 -33c-16.667 -41.333 -44.334 -74.333 -83.001 -99s-82.667 -37 -132 -37c-43.333 0 -83.5 11.5 -120.5 34.5s-66.333 54 -88 93s-32.5 81.5 -32.5 127.5
s10.833 88.5 32.5 127.5s51 69.833 88 92.5s77.167 34 120.5 34c50 0 94.833 -13.167 134.5 -39.5s68.167 -61.833 85.5 -106.5c8.66699 -20.667 14.167 -41.667 16.5 -63s3.5 -37.333 3.5 -48zM420.001 277c-1.33301 10 -4.83301 21.5 -10.5 34.5
s-12.167 23.833 -19.5 32.5c-11.333 18 -27 32.167 -47 42.5s-42 15.5 -66 15.5c-34 0 -64.5 -11.833 -91.5 -35.5s-44.167 -53.5 -51.5 -89.5h286zM133.001 733h111l86 -167h-106z" />
    <glyph glyph-name="eacute" unicode="&#xe9;" horiz-adv-x="553" 
d="M516 200h-379.999c8.66699 -34 26 -62 52 -84s55.667 -33 89 -33c30 0 56.333 6.66699 79 20s38.667 31 48 53l88 -33c-16.667 -41.333 -44.334 -74.333 -83.001 -99s-82.667 -37 -132 -37c-43.333 0 -83.5 11.5 -120.5 34.5s-66.333 54 -88 93s-32.5 81.5 -32.5 127.5
s10.833 88.5 32.5 127.5s51 69.833 88 92.5s77.167 34 120.5 34c50 0 94.833 -13.167 134.5 -39.5s68.167 -61.833 85.5 -106.5c8.66699 -20.667 14.167 -41.667 16.5 -63s3.5 -37.333 3.5 -48zM420.001 277c-1.33301 10 -4.83301 21.5 -10.5 34.5
s-12.167 23.833 -19.5 32.5c-11.333 18 -27 32.167 -47 42.5s-42 15.5 -66 15.5c-34 0 -64.5 -11.833 -91.5 -35.5s-44.167 -53.5 -51.5 -89.5h286zM225.001 566l86 167h115l-92 -167h-109z" />
    <glyph glyph-name="ecircumflex" unicode="&#xea;" horiz-adv-x="553" 
d="M516 200h-379.999c8.66699 -34 26 -62 52 -84s55.667 -33 89 -33c30 0 56.333 6.66699 79 20s38.667 31 48 53l88 -33c-16.667 -41.333 -44.334 -74.333 -83.001 -99s-82.667 -37 -132 -37c-43.333 0 -83.5 11.5 -120.5 34.5s-66.333 54 -88 93s-32.5 81.5 -32.5 127.5
s10.833 88.5 32.5 127.5s51 69.833 88 92.5s77.167 34 120.5 34c50 0 94.833 -13.167 134.5 -39.5s68.167 -61.833 85.5 -106.5c8.66699 -20.667 14.167 -41.667 16.5 -63s3.5 -37.333 3.5 -48zM420.001 277c-1.33301 10 -4.83301 21.5 -10.5 34.5
s-12.167 23.833 -19.5 32.5c-11.333 18 -27 32.167 -47 42.5s-42 15.5 -66 15.5c-34 0 -64.5 -11.833 -91.5 -35.5s-44.167 -53.5 -51.5 -89.5h286zM331.001 566l-53 98l-54 -98h-92l85 167h98h23l86 -167h-93z" />
    <glyph glyph-name="edieresis" unicode="&#xeb;" horiz-adv-x="553" 
d="M516 200h-379.999c8.66699 -34 26 -62 52 -84s55.667 -33 89 -33c30 0 56.333 6.66699 79 20s38.667 31 48 53l88 -33c-16.667 -41.333 -44.334 -74.333 -83.001 -99s-82.667 -37 -132 -37c-43.333 0 -83.5 11.5 -120.5 34.5s-66.333 54 -88 93s-32.5 81.5 -32.5 127.5
s10.833 88.5 32.5 127.5s51 69.833 88 92.5s77.167 34 120.5 34c50 0 94.833 -13.167 134.5 -39.5s68.167 -61.833 85.5 -106.5c8.66699 -20.667 14.167 -41.667 16.5 -63s3.5 -37.333 3.5 -48zM420.001 277c-1.33301 10 -4.83301 21.5 -10.5 34.5
s-12.167 23.833 -19.5 32.5c-11.333 18 -27 32.167 -47 42.5s-42 15.5 -66 15.5c-34 0 -64.5 -11.833 -91.5 -35.5s-44.167 -53.5 -51.5 -89.5h286zM124.001 579c-14 14 -21 30.666 -21 49.999c0 20 7 37 21 51s31.333 21 52 21c19.333 0 36 -7.16699 50 -21.5
s21 -31.166 21 -50.499s-7 -36 -21 -50s-30.667 -21 -50 -21c-20.667 0 -38 7 -52 21zM326.501 578.999c-14.333 14 -21.5 30.666 -21.5 49.999c0 20 7.16699 37 21.5 51s31.5 21 51.5 21c19.333 0 36.166 -7.16699 50.499 -21.5s21.5 -31.166 21.5 -50.499
s-7.16699 -36 -21.5 -50s-31.166 -21 -50.499 -21c-20 0 -37.167 7 -51.5 21z" />
    <glyph glyph-name="igrave" unicode="&#xec;" horiz-adv-x="221" 
d="M-24 743h111l86 -166h-106zM174 491v-491h-100v491h100z" />
    <glyph glyph-name="iacute" unicode="&#xed;" horiz-adv-x="221" 
d="M49 572l86 167h115l-92 -167h-109zM148 491v-491h-101v491h101z" />
    <glyph glyph-name="icircumflex" unicode="&#xee;" horiz-adv-x="340" 
d="M315 567h-92l-54 98l-54 -98h-92l86 166h98h23zM120 491h101v-491h-101v491z" />
    <glyph glyph-name="idieresis" unicode="&#xef;" horiz-adv-x="351" 
d="M20 586c-14 14 -21 30.666 -21 49.999c0 20 7 37 21 51s31 21 51 21c19.333 0 36.166 -7.16699 50.499 -21.5s21.5 -31.166 21.5 -50.499s-7.16699 -36 -21.5 -50s-31.166 -21 -50.499 -21c-20 0 -37 7 -51 21zM222 585.999c-14 14 -21 30.666 -21 49.999
c0 20 7 37 21 51s31 21 51 21c19.333 0 36.166 -7.16699 50.499 -21.5s21.5 -31.166 21.5 -50.499s-7.16699 -36 -21.5 -50s-31.166 -21 -50.499 -21c-20 0 -37 7 -51 21zM226 485.998v-486h-100v486h100z" />
    <glyph glyph-name="eth" unicode="&#xf0;" horiz-adv-x="625" 
d="M546.5 473.5c28.333 -73 41.167 -150.832 38.5 -233.499c0.666992 -46 -9.33301 -89.5 -30 -130.5s-49.334 -75 -86.001 -102s-78 -43.167 -124 -48.5c-14.667 -1.33301 -25.334 -2 -32.001 -2c-46.667 0 -90.667 11.667 -132 35s-74.666 55.166 -99.999 95.499
s-38.666 84.833 -39.999 133.5c-2.66699 51.333 5.33301 98.5 24 141.5s46.5 78.167 83.5 105.5s80.5 44 130.5 50c14.667 1.33301 25.334 2 32.001 2c43.333 0 84.333 -10 123 -30c-20.667 38.667 -47.667 76 -81 112l-69 -61l-52 58l64 56c-26 21.333 -54 40 -84 56l50 70
c36 -16.667 70.667 -38 104 -64l66 58l50 -59l-58 -51c53.333 -54.667 94.166 -118.5 122.499 -191.5zM401.501 74.001c27 15.333 48.667 36.667 65 64s24.833 58 25.5 92c-0.666992 60 -17.667 107.5 -51 142.5s-76.333 52.5 -129 52.5c-10 0 -17.667 -0.333008 -23 -1
c-30.667 -2.66699 -58 -13 -82 -31s-42.5 -41 -55.5 -69s-19.167 -58.667 -18.5 -92h1c0 -33.333 8 -63.833 24 -91.5s37.667 -49.5 65 -65.5s57.333 -24 90 -24c32 0 61.5 7.66699 88.5 23z" />
    <glyph glyph-name="ntilde" unicode="&#xf1;" horiz-adv-x="607" 
d="M480.5 439.5c40.333 -37 60.501 -97.499 60.501 -181.499v-258h-99v253c0 52.667 -11.667 91.167 -35 115.5s-54 36.5 -92 36.5c-38.667 0 -71.5 -13.333 -98.5 -40s-41.833 -63.334 -44.5 -110.001v-255h-98l1 480h97v-64c18.667 26 41.5 45.833 68.5 59.5
s56.167 20.5 87.5 20.5c61.333 -0.666992 112.166 -19.5 152.499 -56.5zM144.001 684.001c8.66699 18.667 21.166 33.667 37.499 45s34.5 17 54.5 17c44.667 0 79 -21 103 -63c10 -14 18.333 -23.667 25 -29s14 -8 22 -8c7.33301 0 13.333 2.83301 18 8.5s7 12.834 7 21.501
c0 7.33301 -1.33301 14.666 -4 21.999h81c0.666992 -3.33301 1 -8.66602 1 -15.999c0 -32 -10 -59.167 -30 -81.5s-44.333 -33.5 -73 -33.5c-22 0 -42.167 5.83301 -60.5 17.5s-33.833 28.167 -46.5 49.5c-8.66699 13.333 -15.667 22.166 -21 26.499
s-12.666 6.5 -21.999 6.5c-7.33301 0 -13.5 -3.33301 -18.5 -10s-7.5 -15 -7.5 -25c0 -4 0.333008 -7 1 -9h-77c-2 22 1.33301 42.333 10 61z" />
    <glyph glyph-name="ograve" unicode="&#xf2;" horiz-adv-x="557" 
d="M489 112c-21.333 -38.667 -50.499 -69.166 -87.499 -91.499s-77.833 -33.5 -122.5 -33.5c-44 0 -84.667 11.333 -122 34s-66.833 53.5 -88.5 92.5s-32.5 81.167 -32.5 126.5c0 46.667 10.667 89.5 32 128.5s50.666 69.833 87.999 92.5s78.333 34 123 34
s85.5 -11.333 122.5 -34s66.167 -53.5 87.5 -92.5s32 -81.833 32 -128.5s-10.667 -89.334 -32 -128.001zM382.001 353.501c-26 30.333 -60.333 45.5 -103 45.5c-43.333 0 -78 -15.333 -104 -46s-39 -68.667 -39 -114c0 -28.667 6 -55 18 -79s28.833 -43.167 50.5 -57.5
s46.5 -21.5 74.5 -21.5c43.333 0 77.833 14.833 103.5 44.5s38.5 67.5 38.5 113.5s-13 84.167 -39 114.5zM139.001 732.001h111l86 -167h-106z" />
    <glyph glyph-name="oacute" unicode="&#xf3;" horiz-adv-x="557" 
d="M489 112c-21.333 -38.667 -50.499 -69.166 -87.499 -91.499s-77.833 -33.5 -122.5 -33.5c-44 0 -84.667 11.333 -122 34s-66.833 53.5 -88.5 92.5s-32.5 81.167 -32.5 126.5c0 46.667 10.667 89.5 32 128.5s50.666 69.833 87.999 92.5s78.333 34 123 34
s85.5 -11.333 122.5 -34s66.167 -53.5 87.5 -92.5s32 -81.833 32 -128.5s-10.667 -89.334 -32 -128.001zM382.001 353.501c-26 30.333 -60.333 45.5 -103 45.5c-43.333 0 -78 -15.333 -104 -46s-39 -68.667 -39 -114c0 -28.667 6 -55 18 -79s28.833 -43.167 50.5 -57.5
s46.5 -21.5 74.5 -21.5c43.333 0 77.833 14.833 103.5 44.5s38.5 67.5 38.5 113.5s-13 84.167 -39 114.5zM231.001 565.001l86 167h115l-92 -167h-109z" />
    <glyph glyph-name="ocircumflex" unicode="&#xf4;" horiz-adv-x="557" 
d="M489 112c-21.333 -38.667 -50.499 -69.166 -87.499 -91.499s-77.833 -33.5 -122.5 -33.5c-44 0 -84.667 11.333 -122 34s-66.833 53.5 -88.5 92.5s-32.5 81.167 -32.5 126.5c0 46.667 10.667 89.5 32 128.5s50.666 69.833 87.999 92.5s78.333 34 123 34
s85.5 -11.333 122.5 -34s66.167 -53.5 87.5 -92.5s32 -81.833 32 -128.5s-10.667 -89.334 -32 -128.001zM382.001 353.501c-26 30.333 -60.333 45.5 -103 45.5c-43.333 0 -78 -15.333 -104 -46s-39 -68.667 -39 -114c0 -28.667 6 -55 18 -79s28.833 -43.167 50.5 -57.5
s46.5 -21.5 74.5 -21.5c43.333 0 77.833 14.833 103.5 44.5s38.5 67.5 38.5 113.5s-13 84.167 -39 114.5zM337.001 565.001l-53 98l-54 -98h-92l85 167h98h23l86 -167h-93z" />
    <glyph glyph-name="otilde" unicode="&#xf5;" horiz-adv-x="557" 
d="M489 112c-21.333 -38.667 -50.499 -69.166 -87.499 -91.499s-77.833 -33.5 -122.5 -33.5c-44 0 -84.667 11.333 -122 34s-66.833 53.5 -88.5 92.5s-32.5 81.167 -32.5 126.5c0 46.667 10.667 89.5 32 128.5s50.666 69.833 87.999 92.5s78.333 34 123 34
s85.5 -11.333 122.5 -34s66.167 -53.5 87.5 -92.5s32 -81.833 32 -128.5s-10.667 -89.334 -32 -128.001zM382.001 353.501c-26 30.333 -60.333 45.5 -103 45.5c-43.333 0 -78 -15.333 -104 -46s-39 -68.667 -39 -114c0 -28.667 6 -55 18 -79s28.833 -43.167 50.5 -57.5
s46.5 -21.5 74.5 -21.5c43.333 0 77.833 14.833 103.5 44.5s38.5 67.5 38.5 113.5s-13 84.167 -39 114.5zM119.001 683.001c8.66699 18.667 21.166 33.667 37.499 45s34.5 17 54.5 17c44.667 0 79 -21 103 -63c10 -14 18.333 -23.667 25 -29s14 -8 22 -8
c7.33301 0 13.333 2.83301 18 8.5s7 12.834 7 21.501c0 7.33301 -1.33301 14.666 -4 21.999h81c0.666992 -3.33301 1 -8.66602 1 -15.999c0 -32 -10 -59.167 -30 -81.5s-44.333 -33.5 -73 -33.5c-22 0 -42.167 5.83301 -60.5 17.5s-33.833 28.167 -46.5 49.5
c-8.66699 13.333 -15.667 22.166 -21 26.499s-12.666 6.5 -21.999 6.5c-7.33301 0 -13.5 -3.33301 -18.5 -10s-7.5 -15 -7.5 -25c0 -4 0.333008 -7 1 -9h-77c-2 22 1.33301 42.333 10 61z" />
    <glyph glyph-name="odieresis" unicode="&#xf6;" horiz-adv-x="557" 
d="M489 112c-21.333 -38.667 -50.499 -69.166 -87.499 -91.499s-77.833 -33.5 -122.5 -33.5c-44 0 -84.667 11.333 -122 34s-66.833 53.5 -88.5 92.5s-32.5 81.167 -32.5 126.5c0 46.667 10.667 89.5 32 128.5s50.666 69.833 87.999 92.5s78.333 34 123 34
s85.5 -11.333 122.5 -34s66.167 -53.5 87.5 -92.5s32 -81.833 32 -128.5s-10.667 -89.334 -32 -128.001zM382.001 353.501c-26 30.333 -60.333 45.5 -103 45.5c-43.333 0 -78 -15.333 -104 -46s-39 -68.667 -39 -114c0 -28.667 6 -55 18 -79s28.833 -43.167 50.5 -57.5
s46.5 -21.5 74.5 -21.5c43.333 0 77.833 14.833 103.5 44.5s38.5 67.5 38.5 113.5s-13 84.167 -39 114.5zM131.001 596.001c-14 14 -21 30.666 -21 49.999c0 20 7 37 21 51s31.333 21 52 21c19.333 0 36 -7.16699 50 -21.5s21 -31.166 21 -50.499s-7 -36 -21 -50
s-30.667 -21 -50 -21c-20.667 0 -38 7 -52 21zM333.501 596c-14.333 14 -21.5 30.666 -21.5 49.999c0 20 7.16699 37 21.5 51s31.5 21 51.5 21c19.333 0 36.166 -7.16699 50.499 -21.5s21.5 -31.166 21.5 -50.499s-7.16699 -36 -21.5 -50s-31.166 -21 -50.499 -21
c-20 0 -37.167 7 -51.5 21z" />
    <glyph glyph-name="divide" unicode="&#xf7;" horiz-adv-x="470" 
d="M187 379c-13.333 13.333 -20 29 -20 47c0 18.667 6.66699 34.667 20 48s29.333 20 48 20s34.667 -6.66699 48 -20s20 -29.333 20 -48c0 -18 -6.66699 -33.667 -20 -47s-29.333 -20 -48 -20s-34.667 6.66699 -48 20zM423 285v-82h-376v82h376zM187 7
c-13.333 13.333 -20 29 -20 47c0 18.667 6.66699 34.667 20 48s29.333 20 48 20s34.667 -6.66699 48 -20s20 -29.333 20 -48c0 -18 -6.66699 -33.667 -20 -47s-29.333 -20 -48 -20s-34.667 6.66699 -48 20z" />
    <glyph glyph-name="oslash" unicode="&#xf8;" horiz-adv-x="561" 
d="M491 110c-21.333 -38.667 -50.499 -69.166 -87.499 -91.499s-77.833 -33.5 -122.5 -33.5c-36 0 -69.333 7.66699 -100 23l-6 -9h-95l35 55c-24 23.333 -42.667 51 -56 83s-20 65.667 -20 101c0 46.667 10.667 89.5 32 128.5s50.5 70 87.5 93s77.833 34.5 122.5 34.5
c35.333 0 69.666 -8 102.999 -24l6 10h91l-34 -54c24 -24 42.667 -52.167 56 -84.5s20 -66.833 20 -103.5c0 -46.667 -10.667 -89.334 -32 -128.001zM169.001 137.001l162 252c-16 5.33301 -32.667 8 -50 8c-42.667 0 -77.167 -15.167 -103.5 -45.5
s-39.5 -68.5 -39.5 -114.5c0 -38 10.333 -71.333 31 -100zM384.501 124.001c25.667 29.333 38.5 67 38.5 113c0 40 -10 74.667 -30 104l-161 -253c16 -5.33301 32.333 -8 49 -8c43.333 0 77.833 14.667 103.5 44z" />
    <glyph glyph-name="ugrave" unicode="&#xf9;" horiz-adv-x="597" 
d="M528 480l0.000976562 -479.999h-99v58c-32 -47.333 -80.333 -71 -145 -71c-143.333 0 -215 79.333 -215 238v255h99v-250c0 -50.667 11.667 -88.834 35 -114.501s53.666 -38.5 90.999 -38.5c42 0 75 14.667 99 44s36 73.333 36 132v227h99zM155.001 729.001h111l86 -167
h-106z" />
    <glyph glyph-name="uacute" unicode="&#xfa;" horiz-adv-x="597" 
d="M528 480l0.000976562 -479.999h-99v58c-32 -47.333 -80.333 -71 -145 -71c-143.333 0 -215 79.333 -215 238v255h99v-250c0 -50.667 11.667 -88.834 35 -114.501s53.666 -38.5 90.999 -38.5c42 0 75 14.667 99 44s36 73.333 36 132v227h99zM246.001 562.001l86 167h115
l-92 -167h-109z" />
    <glyph glyph-name="ucircumflex" unicode="&#xfb;" horiz-adv-x="597" 
d="M528 480l0.000976562 -479.999h-99v58c-32 -47.333 -80.333 -71 -145 -71c-143.333 0 -215 79.333 -215 238v255h99v-250c0 -50.667 11.667 -88.834 35 -114.501s53.666 -38.5 90.999 -38.5c42 0 75 14.667 99 44s36 73.333 36 132v227h99zM352.001 562.001l-53 98
l-54 -98h-92l85 167h98h23l86 -167h-93z" />
    <glyph glyph-name="udieresis" unicode="&#xfc;" horiz-adv-x="597" 
d="M528 480l0.000976562 -479.999h-99v58c-32 -47.333 -80.333 -71 -145 -71c-143.333 0 -215 79.333 -215 238v255h99v-250c0 -50.667 11.667 -88.834 35 -114.501s53.666 -38.5 90.999 -38.5c42 0 75 14.667 99 44s36 73.333 36 132v227h99zM147.001 593.001
c-14 14 -21 30.666 -21 49.999c0 20 7 37 21 51s31.333 21 52 21c19.333 0 36 -7.16699 50 -21.5s21 -31.166 21 -50.499s-7 -36 -21 -50s-30.667 -21 -50 -21c-20.667 0 -38 7 -52 21zM349.501 593c-14.333 14 -21.5 30.666 -21.5 49.999c0 20 7.16699 37 21.5 51
s31.5 21 51.5 21c19.333 0 36.166 -7.16699 50.499 -21.5s21.5 -31.166 21.5 -50.499s-7.16699 -36 -21.5 -50s-31.166 -21 -50.499 -21c-20 0 -37.167 7 -51.5 21z" />
    <glyph glyph-name="yacute" unicode="&#xfd;" horiz-adv-x="533" 
d="M523 480l-283 -704h-106l91 227l-217 477h107l159 -356l143 356h106zM213 549l86 167h115l-92 -167h-109z" />
    <glyph glyph-name="thorn" unicode="&#xfe;" horiz-adv-x="606" 
d="M569 235c-0.666992 -52.667 -11.168 -99.166 -31.501 -139.499s-48.5 -71.833 -84.5 -94.5s-78 -34 -126 -34c-28.667 0 -55.5 6 -80.5 18s-47.167 29 -66.5 51v-296h-106v970h106v-270c18.667 22.667 40.834 39.834 66.501 51.501s53.167 17.5 82.5 17.5
c47.333 0 89 -11.333 125 -34s64 -54.334 84 -95.001s30.333 -87.334 31 -140.001v-2v-3zM428.499 108.501c27.667 32.333 41.8311 75.5 42.498 129.5c-0.666992 54 -14.834 97.167 -42.501 129.5s-62.834 48.5 -105.501 48.5c-37.333 0 -69.666 -13.5 -96.999 -40.5
s-42.666 -63.5 -45.999 -109.5v-54c3.33301 -46 18.833 -82.833 46.5 -110.5s59.834 -41.5 96.501 -41.5c42.667 0 77.834 16.167 105.501 48.5z" />
    <glyph glyph-name="ydieresis" unicode="&#xff;" horiz-adv-x="533" 
d="M523 480l-283 -704h-106l91 227l-217 477h107l159 -356l143 356h106zM114 580c-14 14 -21 30.666 -21 49.999c0 20 7 37 21 51s31.333 21 52 21c19.333 0 36 -7.16699 50 -21.5s21 -31.166 21 -50.499s-7 -36 -21 -50s-30.667 -21 -50 -21c-20.667 0 -38 7 -52 21z
M316.5 579.999c-14.333 14 -21.5 30.666 -21.5 49.999c0 20 7.16699 37 21.5 51s31.5 21 51.5 21c19.333 0 36.166 -7.16699 50.499 -21.5s21.5 -31.166 21.5 -50.499s-7.16699 -36 -21.5 -50s-31.166 -21 -50.499 -21c-20 0 -37.167 7 -51.5 21z" />
    <glyph glyph-name="Amacron" unicode="&#x100;" horiz-adv-x="709" 
d="M508 186h-308l-72 -186h-118l287 710h108h7l287 -710h-118zM473 277l-119 303l-118 -303h237zM508 901v-91h-304v91h304z" />
    <glyph glyph-name="amacron" unicode="&#x101;" horiz-adv-x="520" 
d="M367 473.5c29.333 -14.333 52.5029 -34.999 69.5029 -61.999s25.5 -59.167 25.5 -96.5v-319h-99v49c-16.667 -18 -36.667 -32.167 -60 -42.5s-48.333 -15.5 -75 -15.5c-53.333 0 -97 14.167 -131 42.5s-51.333 65.5 -52 111.5c-1.33301 26.667 4 51.667 16 75
s29.333 42.333 52 57c15.333 10 33.666 17.167 54.999 21.5s47.666 6.5 78.999 6.5h83c23.333 0 34 10.667 32 32c-2.66699 25.333 -13.5 43.666 -32.5 54.999s-42.833 17 -71.5 17c-28 0 -52.333 -5.5 -73 -16.5s-38.334 -29.167 -53.001 -54.5l-76 42
c44.667 79.333 115.667 119 213 119c36 0 68.667 -7.16699 98 -21.5zM324.003 104.501c23.333 21 36.334 51.5 39.001 91.5v28c-22.667 -1.33301 -61 -2 -115 -2c-34.667 0 -61.834 -6.83301 -81.501 -20.5s-29.5 -32.167 -29.5 -55.5c0 -24.667 8.83301 -43 26.5 -55
s40.167 -18 67.5 -18c38.667 0 69.667 10.5 93 31.5zM422.004 688.001v-91h-304v91h304z" />
    <glyph glyph-name="Abreve" unicode="&#x102;" horiz-adv-x="709" 
d="M508 186h-308l-72 -186h-118l287 710h108h7l287 -710h-118zM473 277l-119 303l-118 -303h237zM525 947c-1.33301 -29.333 -9.83398 -56.833 -25.501 -82.5s-36 -46 -61 -61s-52.167 -22.5 -81.5 -22.5c-30 0 -57.833 7.33301 -83.5 22s-46.334 34.834 -62.001 60.501
s-24.167 53.5 -25.5 83.5h90c0.666992 -24 9 -43 25 -57s34.667 -21 56 -21c20.667 0 38.834 7.16699 54.501 21.5s23.834 33.166 24.501 56.499h89z" />
    <glyph glyph-name="abreve" unicode="&#x103;" horiz-adv-x="520" 
d="M367 473.5c29.333 -14.333 52.5029 -34.999 69.5029 -61.999s25.5 -59.167 25.5 -96.5v-319h-99v49c-16.667 -18 -36.667 -32.167 -60 -42.5s-48.333 -15.5 -75 -15.5c-53.333 0 -97 14.167 -131 42.5s-51.333 65.5 -52 111.5c-1.33301 26.667 4 51.667 16 75
s29.333 42.333 52 57c15.333 10 33.666 17.167 54.999 21.5s47.666 6.5 78.999 6.5h83c23.333 0 34 10.667 32 32c-2.66699 25.333 -13.5 43.666 -32.5 54.999s-42.833 17 -71.5 17c-28 0 -52.333 -5.5 -73 -16.5s-38.334 -29.167 -53.001 -54.5l-76 42
c44.667 79.333 115.667 119 213 119c36 0 68.667 -7.16699 98 -21.5zM324.003 104.501c23.333 21 36.334 51.5 39.001 91.5v28c-22.667 -1.33301 -61 -2 -115 -2c-34.667 0 -61.834 -6.83301 -81.501 -20.5s-29.5 -32.167 -29.5 -55.5c0 -24.667 8.83301 -43 26.5 -55
s40.167 -18 67.5 -18c38.667 0 69.667 10.5 93 31.5zM438.004 733.001c-1.33301 -29.333 -9.83398 -56.833 -25.501 -82.5s-36 -46 -61 -61s-52.167 -22.5 -81.5 -22.5c-30 0 -57.833 7.33301 -83.5 22s-46.334 34.834 -62.001 60.501s-24.167 53.5 -25.5 83.5h90
c0.666992 -24 9 -43 25 -57s34.667 -21 56 -21c20.667 0 38.834 7.16699 54.501 21.5s23.834 33.166 24.501 56.499h89z" />
    <glyph glyph-name="Aogonek" unicode="&#x104;" horiz-adv-x="709" 
d="M508 186h-308l-72 -186h-118l287 710h108h7l287 -710h-118zM473 277l-119 303l-118 -303h237zM677 0c-22.667 -2 -39.667 -8.66699 -51 -20s-17 -23.666 -17 -36.999c0 -10.667 3.16699 -19.667 9.5 -27s14.5 -10.666 24.5 -9.99902v-70c-9.33301 -1.33301 -16 -2 -20 -2
c-26 0 -46.833 8.16699 -62.5 24.5s-23.5 36.166 -23.5 59.499c0 14.667 3.66699 29.167 11 43.5s18.333 27.166 33 38.499h96z" />
    <glyph glyph-name="aogonek" unicode="&#x105;" horiz-adv-x="520" 
d="M403.5 -26c-7.66699 -10 -11.4971 -20.665 -11.4971 -31.998c0 -10.667 3.16699 -19.667 9.5 -27s14.5 -10.333 24.5 -9v-70c-9.33301 -1.33301 -16.333 -2 -21 -2c-25.333 0 -45.833 8.16699 -61.5 24.5s-23.5 35.833 -23.5 58.5c0 14.667 3.5 29.167 10.5 43.5
s17.833 27.166 32.5 38.499v46c-16.667 -18 -36.667 -32.167 -60 -42.5s-48.333 -15.5 -75 -15.5c-53.333 0 -97 14.167 -131 42.5s-51.333 65.5 -52 111.5c-1.33301 26.667 4 51.667 16 75s29.333 42.333 52 57c15.333 10 33.666 17.167 54.999 21.5s47.666 6.5 78.999 6.5
h83c23.333 0 34 10.667 32 32c-2.66699 25.333 -13.5 43.666 -32.5 54.999s-42.833 17 -71.5 17c-28 0 -52.333 -5.5 -73 -16.5s-38.334 -29.167 -53.001 -54.5l-76 42c44.667 79.333 115.667 119 213 119c36 0 68.667 -7.16699 98 -21.5s52.5 -35 69.5 -62
s25.5 -59.167 25.5 -96.5v-319h-23c-16 -4.66699 -27.833 -12 -35.5 -22zM324.003 104.502c23.333 21 36.334 51.5 39.001 91.5v28c-22.667 -1.33301 -61 -2 -115 -2c-34.667 0 -61.834 -6.83301 -81.501 -20.5s-29.5 -32.167 -29.5 -55.5c0 -24.667 8.83301 -43 26.5 -55
s40.167 -18 67.5 -18c38.667 0 69.667 10.5 93 31.5z" />
    <glyph glyph-name="Cacute" unicode="&#x106;" horiz-adv-x="752" 
d="M605 479c-15.333 40.667 -41.667 74.168 -79 100.501s-80.666 39.5 -129.999 39.5c-45.333 0 -86.666 -11.667 -123.999 -35s-66.666 -55.166 -87.999 -95.499s-32 -84.833 -32 -133.5s10.667 -92.834 32 -132.501s50.666 -70.834 87.999 -93.501s78.666 -34 123.999 -34
c48 0 91.333 12.167 130 36.5s67.334 55.833 86.001 94.5l101 -47c-26.667 -58.667 -68.334 -105.334 -125.001 -140.001s-120.667 -52 -192 -52c-64 0 -123.167 16.5 -177.5 49.5s-97.333 77.667 -129 134s-47.5 117.833 -47.5 184.5s15.833 128.334 47.5 185.001
s74.667 101.667 129 135s113.5 50 177.5 50c59.333 0 110.666 -11.5 153.999 -34.5s77.5 -50.167 102.5 -81.5s43.167 -62 54.5 -92zM343.999 779.001l86 167h111l-91 -167h-106z" />
    <glyph glyph-name="cacute" unicode="&#x107;" horiz-adv-x="533" 
d="M415 313c-10 26.667 -25.8301 48.1689 -47.4971 64.502s-49.834 24.5 -84.501 24.5c-44 0 -79.5 -15.667 -106.5 -47s-40.5 -70.333 -40.5 -117c0 -46 13.5 -84.5 40.5 -115.5s62.5 -46.5 106.5 -46.5c32 0 58.833 7.5 80.5 22.5s36.834 33.167 45.501 54.5l87 -34
c-16.667 -40.667 -44 -72.834 -82 -96.501s-81.667 -35.5 -131 -35.5c-44.667 0 -85.834 11.167 -123.501 33.5s-67.667 52.666 -90 90.999s-33.5 80.5 -33.5 126.5s11.167 88.5 33.5 127.5s52.5 70 90.5 93s79 34.5 123 34.5c51.333 0 97.166 -13.5 137.499 -40.5
s68.166 -62.833 83.499 -107.5zM230.003 566.002l86 167h111l-91 -167h-106z" />
    <glyph glyph-name="Cdotaccent" unicode="&#x10a;" horiz-adv-x="752" 
d="M605 479c-15.333 40.667 -41.667 74.168 -79 100.501s-80.666 39.5 -129.999 39.5c-45.333 0 -86.666 -11.667 -123.999 -35s-66.666 -55.166 -87.999 -95.499s-32 -84.833 -32 -133.5s10.667 -92.834 32 -132.501s50.666 -70.834 87.999 -93.501s78.666 -34 123.999 -34
c48 0 91.333 12.167 130 36.5s67.334 55.833 86.001 94.5l101 -47c-26.667 -58.667 -68.334 -105.334 -125.001 -140.001s-120.667 -52 -192 -52c-64 0 -123.167 16.5 -177.5 49.5s-97.333 77.667 -129 134s-47.5 117.833 -47.5 184.5s15.833 128.334 47.5 185.001
s74.667 101.667 129 135s113.5 50 177.5 50c59.333 0 110.666 -11.5 153.999 -34.5s77.5 -50.167 102.5 -81.5s43.167 -62 54.5 -92zM341.999 809.501c-14 13.667 -21 30.5 -21 50.5c0 19.333 7 36.166 21 50.499s30.667 21.5 50 21.5s36.166 -7.16699 50.499 -21.5
s21.5 -31.166 21.5 -50.499s-7.16699 -36 -21.5 -50s-31.166 -21 -50.499 -21s-36 6.83301 -50 20.5z" />
    <glyph glyph-name="cdotaccent" unicode="&#x10b;" horiz-adv-x="533" 
d="M415 313c-10 26.667 -25.8301 48.1689 -47.4971 64.502s-49.834 24.5 -84.501 24.5c-44 0 -79.5 -15.667 -106.5 -47s-40.5 -70.333 -40.5 -117c0 -46 13.5 -84.5 40.5 -115.5s62.5 -46.5 106.5 -46.5c32 0 58.833 7.5 80.5 22.5s36.834 33.167 45.501 54.5l87 -34
c-16.667 -40.667 -44 -72.834 -82 -96.501s-81.667 -35.5 -131 -35.5c-44.667 0 -85.834 11.167 -123.501 33.5s-67.667 52.666 -90 90.999s-33.5 80.5 -33.5 126.5s11.167 88.5 33.5 127.5s52.5 70 90.5 93s79 34.5 123 34.5c51.333 0 97.166 -13.5 137.499 -40.5
s68.166 -62.833 83.499 -107.5zM228.003 596.502c-14 13.667 -21 30.5 -21 50.5c0 19.333 7 36.166 21 50.499s30.667 21.5 50 21.5s36.166 -7.16699 50.499 -21.5s21.5 -31.166 21.5 -50.499s-7.16699 -36 -21.5 -50s-31.166 -21 -50.499 -21s-36 6.83301 -50 20.5z" />
    <glyph glyph-name="Ccaron" unicode="&#x10c;" horiz-adv-x="752" 
d="M605 479c-15.333 40.667 -41.667 74.168 -79 100.501s-80.666 39.5 -129.999 39.5c-45.333 0 -86.666 -11.667 -123.999 -35s-66.666 -55.166 -87.999 -95.499s-32 -84.833 -32 -133.5s10.667 -92.834 32 -132.501s50.666 -70.834 87.999 -93.501s78.666 -34 123.999 -34
c48 0 91.333 12.167 130 36.5s67.334 55.833 86.001 94.5l101 -47c-26.667 -58.667 -68.334 -105.334 -125.001 -140.001s-120.667 -52 -192 -52c-64 0 -123.167 16.5 -177.5 49.5s-97.333 77.667 -129 134s-47.5 117.833 -47.5 184.5s15.833 128.334 47.5 185.001
s74.667 101.667 129 135s113.5 50 177.5 50c59.333 0 110.666 -11.5 153.999 -34.5s77.5 -50.167 102.5 -81.5s43.167 -62 54.5 -92zM542.999 946.001l-86 -167h-98h-23l-85 167h92l54 -98l53 98h93z" />
    <glyph glyph-name="ccaron" unicode="&#x10d;" horiz-adv-x="533" 
d="M415 313c-10 26.667 -25.8301 48.1689 -47.4971 64.502s-49.834 24.5 -84.501 24.5c-44 0 -79.5 -15.667 -106.5 -47s-40.5 -70.333 -40.5 -117c0 -46 13.5 -84.5 40.5 -115.5s62.5 -46.5 106.5 -46.5c32 0 58.833 7.5 80.5 22.5s36.834 33.167 45.501 54.5l87 -34
c-16.667 -40.667 -44 -72.834 -82 -96.501s-81.667 -35.5 -131 -35.5c-44.667 0 -85.834 11.167 -123.501 33.5s-67.667 52.666 -90 90.999s-33.5 80.5 -33.5 126.5s11.167 88.5 33.5 127.5s52.5 70 90.5 93s79 34.5 123 34.5c51.333 0 97.166 -13.5 137.499 -40.5
s68.166 -62.833 83.499 -107.5zM429.003 733.002l-86 -167h-98h-23l-85 167h92l54 -98l53 98h93z" />
    <glyph glyph-name="Dcaron" unicode="&#x10e;" horiz-adv-x="724" 
d="M507.5 666c55 -30 98 -72 129 -126s46.5 -115.667 46.5 -185s-15.333 -131 -46 -185s-73.5 -95.833 -128.5 -125.5s-117.833 -44.5 -188.5 -44.5h-173h-63v711h101h135c70 0 132.5 -15 187.5 -45zM455 125c38 21.333 67.167 51.666 87.5 90.999s30.5 85.666 30.5 138.999
c0 52.667 -10.333 98.834 -31 138.501s-50 70.334 -88 92.001s-82.667 32.5 -134 32.5h-135v-525h135c52 0 97 10.667 135 32zM461 946l-86 -167h-98h-23l-85 167h92l54 -98l53 98h93z" />
    <glyph glyph-name="dcaron" unicode="&#x10f;" horiz-adv-x="741" 
d="M437 710l101.997 0.00195312v-710h-102v61c-20 -24 -44.167 -42.5 -72.5 -55.5s-58.5 -19.5 -90.5 -19.5c-42.667 0 -82 10.667 -118 32s-64 52.166 -84 92.499s-29 87.166 -27 140.499c2.66699 53.333 15.334 98.5 38.001 135.5s51.334 64.667 86.001 83
s71.334 27.5 110.001 27.5c30.667 0 59.667 -5.83301 87 -17.5s51 -28.167 71 -49.5v280zM693.997 710.002v-304h-91v304h91zM360.997 92.502c22.667 13.667 40.498 33.334 53.498 59.001s19.5 55.5 19.5 89.5c0 35.333 -6.5 65.5 -19.5 90.5s-30.333 44 -52 57
s-45.5 19.5 -71.5 19.5c-24.667 0 -48 -6.16699 -70 -18.5s-40.167 -30.833 -54.5 -55.5s-22.166 -54.334 -23.499 -89.001h-1c-0.666992 -34.667 5.5 -65.167 18.5 -91.5s30.667 -46.5 53 -60.5s46.833 -21 73.5 -21s51.334 6.83301 74.001 20.5z" />
    <glyph glyph-name="Dcroat" unicode="&#x110;" horiz-adv-x="789" 
d="M686 170c-30.667 -54 -73.667 -95.833 -129 -125.5s-118.333 -44.5 -189 -44.5h-164h-62v305h-84v101h84v305h101h125c70 0 132.667 -15 188 -45s98.5 -72 129.5 -126s46.5 -115.667 46.5 -185s-15.333 -131 -46 -185zM554 163.5
c45.333 47 67.999 110.831 67.999 191.498c0 52.667 -10.333 98.834 -31 138.501s-50.167 70.334 -88.5 92.001s-83.166 32.5 -134.499 32.5h-125v-212h101v-101h-101v-212h125c78.667 0 140.667 23.5 186 70.5z" />
    <glyph glyph-name="dcroat" unicode="&#x111;" horiz-adv-x="602" 
d="M611 573h-80.002v-573h-102v60c-20.667 -24.667 -45.167 -43.667 -73.5 -57s-58.5 -20 -90.5 -20c-42.667 0 -81.834 11 -117.501 33s-63.667 53.333 -84 94s-29.5 87.667 -27.5 141h1c2.66699 53.333 15.334 98.5 38.001 135.5s51.334 64.667 86.001 83
s71.334 27.5 110.001 27.5c30.667 0 59.667 -5.83301 87 -17.5s51 -28.167 71 -49.5v143h-173v90h173v47h102v-47h80v-90zM352.998 92.5c22.667 13.667 40.498 33.334 53.498 59.001s19.5 55.5 19.5 89.5c0 35.333 -6.5 65.5 -19.5 90.5s-30.333 44 -52 57
s-45.5 19.5 -71.5 19.5c-24.667 0 -48 -6.16699 -70 -18.5s-40.167 -30.833 -54.5 -55.5s-22.166 -54.334 -23.499 -89.001h-1c-0.666992 -34.667 5.5 -65.167 18.5 -91.5s30.667 -46.5 53 -60.5s46.833 -21 73.5 -21s51.334 6.83301 74.001 20.5z" />
    <glyph glyph-name="Emacron" unicode="&#x112;" horiz-adv-x="579" 
d="M521 100l-1 -100h-430h-6v710h101h336l-1 -101h-335v-202h303l-1 -98h-302v-209h336zM450 901v-91h-304v91h304z" />
    <glyph glyph-name="emacron" unicode="&#x113;" horiz-adv-x="553" 
d="M516 200h-379.999c8.66699 -34 26 -62 52 -84s55.667 -33 89 -33c30 0 56.333 6.66699 79 20s38.667 31 48 53l88 -33c-16.667 -41.333 -44.334 -74.333 -83.001 -99s-82.667 -37 -132 -37c-43.333 0 -83.5 11.5 -120.5 34.5s-66.333 54 -88 93s-32.5 81.5 -32.5 127.5
s10.833 88.5 32.5 127.5s51 69.833 88 92.5s77.167 34 120.5 34c50 0 94.833 -13.167 134.5 -39.5s68.167 -61.833 85.5 -106.5c8.66699 -20.667 14.167 -41.667 16.5 -63s3.5 -37.333 3.5 -48zM420.001 277c-1.33301 10 -4.83301 21.5 -10.5 34.5
s-12.167 23.833 -19.5 32.5c-11.333 18 -27 32.167 -47 42.5s-42 15.5 -66 15.5c-34 0 -64.5 -11.833 -91.5 -35.5s-44.167 -53.5 -51.5 -89.5h286zM430.001 688v-91h-304v91h304z" />
    <glyph glyph-name="Edotaccent" unicode="&#x116;" horiz-adv-x="579" 
d="M521 100l-1 -100h-430h-6v710h101h336l-1 -101h-335v-202h303l-1 -98h-302v-209h336zM243 808.5c-14 13.667 -21 30.5 -21 50.5c0 19.333 7 36.166 21 50.499s30.667 21.5 50 21.5s36.166 -7.16699 50.499 -21.5s21.5 -31.166 21.5 -50.499s-7.16699 -36 -21.5 -50
s-31.166 -21 -50.499 -21s-36 6.83301 -50 20.5z" />
    <glyph glyph-name="edotaccent" unicode="&#x117;" horiz-adv-x="553" 
d="M516 200h-379.999c8.66699 -34 26 -62 52 -84s55.667 -33 89 -33c30 0 56.333 6.66699 79 20s38.667 31 48 53l88 -33c-16.667 -41.333 -44.334 -74.333 -83.001 -99s-82.667 -37 -132 -37c-43.333 0 -83.5 11.5 -120.5 34.5s-66.333 54 -88 93s-32.5 81.5 -32.5 127.5
s10.833 88.5 32.5 127.5s51 69.833 88 92.5s77.167 34 120.5 34c50 0 94.833 -13.167 134.5 -39.5s68.167 -61.833 85.5 -106.5c8.66699 -20.667 14.167 -41.667 16.5 -63s3.5 -37.333 3.5 -48zM420.001 277c-1.33301 10 -4.83301 21.5 -10.5 34.5
s-12.167 23.833 -19.5 32.5c-11.333 18 -27 32.167 -47 42.5s-42 15.5 -66 15.5c-34 0 -64.5 -11.833 -91.5 -35.5s-44.167 -53.5 -51.5 -89.5h286zM223.001 596.5c-14 13.667 -21 30.5 -21 50.5c0 19.333 7 36.166 21 50.499s30.667 21.5 50 21.5
s36.166 -7.16699 50.499 -21.5s21.5 -31.166 21.5 -50.499s-7.16699 -36 -21.5 -50s-31.166 -21 -50.499 -21s-36 6.83301 -50 20.5z" />
    <glyph glyph-name="Eogonek" unicode="&#x118;" horiz-adv-x="579" 
d="M300.5 -21.5c-9 -10.333 -13.5 -21.833 -13.5 -34.5c0 -10.667 3.16699 -19.5 9.5 -26.5s14.5 -10.167 24.5 -9.5v-70c-9.33301 -1.33301 -16 -2 -20 -2c-25.333 0 -45.833 8.16699 -61.5 24.5s-23.5 35.833 -23.5 58.5c0 14.667 3.33301 29 10 43s17 26.667 31 38h-167
h-6v710h101h336l-1 -101h-335v-202h303l-1 -98h-302v-209h336l-1 -100h-178c-18.667 -4 -32.5 -11.167 -41.5 -21.5z" />
    <glyph glyph-name="eogonek" unicode="&#x119;" horiz-adv-x="553" 
d="M516 200l-379.999 0.00390625c8.66699 -34 26 -62 52 -84s55.667 -33 89 -33c30 0 56.333 6.66699 79 20s38.667 31 48 53l88 -33c-14.667 -36.667 -38.334 -66.834 -71.001 -90.501s-70 -38.167 -112 -43.5c-16 -4 -27.833 -11 -35.5 -21s-11.5 -20.667 -11.5 -32
c0 -10.667 3.33301 -19.834 10 -27.501s14.667 -10.834 24 -9.50098v-70c-9.33301 -1.33301 -16 -2 -20 -2c-25.333 0 -45.833 8.16699 -61.5 24.5s-23.5 36.166 -23.5 59.499c0 14.667 3.33301 29 10 43s17 26.667 31 38c-36.667 7.33301 -70 23 -100 47
s-53.5 53.667 -70.5 89s-25.5 73.333 -25.5 114c0 46 10.833 88.5 32.5 127.5s51 69.833 88 92.5s77.167 34 120.5 34c50 0 94.833 -13.167 134.5 -39.5s68.167 -61.833 85.5 -106.5c8.66699 -20.667 14.167 -41.667 16.5 -63s3.5 -37.333 3.5 -48zM420.001 277.004
c-1.33301 10 -4.83301 21.5 -10.5 34.5s-12.167 23.833 -19.5 32.5c-11.333 18 -27 32.167 -47 42.5s-42 15.5 -66 15.5c-34 0 -64.5 -11.833 -91.5 -35.5s-44.167 -53.5 -51.5 -89.5h286z" />
    <glyph glyph-name="Ecaron" unicode="&#x11a;" horiz-adv-x="579" 
d="M521 100l-1 -100h-430h-6v710h101h336l-1 -101h-335v-202h303l-1 -98h-302v-209h336zM443 945l-86 -167h-98h-23l-85 167h92l54 -98l53 98h93z" />
    <glyph glyph-name="ecaron" unicode="&#x11b;" horiz-adv-x="553" 
d="M516 200h-379.999c8.66699 -34 26 -62 52 -84s55.667 -33 89 -33c30 0 56.333 6.66699 79 20s38.667 31 48 53l88 -33c-16.667 -41.333 -44.334 -74.333 -83.001 -99s-82.667 -37 -132 -37c-43.333 0 -83.5 11.5 -120.5 34.5s-66.333 54 -88 93s-32.5 81.5 -32.5 127.5
s10.833 88.5 32.5 127.5s51 69.833 88 92.5s77.167 34 120.5 34c50 0 94.833 -13.167 134.5 -39.5s68.167 -61.833 85.5 -106.5c8.66699 -20.667 14.167 -41.667 16.5 -63s3.5 -37.333 3.5 -48zM420.001 277c-1.33301 10 -4.83301 21.5 -10.5 34.5
s-12.167 23.833 -19.5 32.5c-11.333 18 -27 32.167 -47 42.5s-42 15.5 -66 15.5c-34 0 -64.5 -11.833 -91.5 -35.5s-44.167 -53.5 -51.5 -89.5h286zM424.001 733l-86 -167h-98h-23l-85 167h92l54 -98l53 98h93z" />
    <glyph glyph-name="Gbreve" unicode="&#x11e;" horiz-adv-x="784" 
d="M383 402l339.003 0.000976562v-402h-101v77c-26 -29.333 -58 -51.666 -96 -66.999s-78.667 -23 -122 -23c-72.667 0 -136.334 16 -191.001 48s-96.834 75.667 -126.501 131s-44.5 117.333 -44.5 186c0 67.333 15.833 129.666 47.5 186.999
s74.834 102.666 129.501 135.999s114.667 50 180 50c78 0 146.167 -19 204.5 -57s100.5 -89.667 126.5 -155l-102 -36c-20 46 -50.167 81.833 -90.5 107.5s-86.5 38.5 -138.5 38.5c-46 0 -87.833 -11.833 -125.5 -35.5s-67.334 -56.167 -89.001 -97.5
s-32.5 -87.333 -32.5 -138c0 -50 10.667 -94.667 32 -134s51.166 -70 89.499 -92s81.833 -33 130.5 -33c53.333 0 101.5 15.5 144.5 46.5s67.5 83.167 73.5 156.5v11h-238v95zM567.003 947.001c-1.33301 -29.333 -9.83301 -56.833 -25.5 -82.5s-36.167 -46 -61.5 -61
s-52.666 -22.5 -81.999 -22.5c-30 0 -57.667 7.33301 -83 22s-46 34.834 -62 60.501s-24.667 53.5 -26 83.5h90c0.666992 -24 9 -43 25 -57s34.667 -21 56 -21s39.666 7.16699 54.999 21.5s23.333 33.166 24 56.499h90z" />
    <glyph glyph-name="gbreve" unicode="&#x11f;" horiz-adv-x="594" 
d="M528 481l-0.000976562 -465.995c0 -64.667 -18 -120.334 -54 -167.001c-22 -28 -49 -49.667 -81 -65s-67.333 -23 -106 -23c-74.667 0 -135.334 22.333 -182.001 67c-26 25.333 -45.667 57 -59 95l88 32c7.33301 -24.667 20 -44.334 38 -59.001
c14 -12.667 30.333 -22.334 49 -29.001s38.334 -10 59.001 -10c26.667 0 50.167 5 70.5 15s36.5 24.667 48.5 44c18 26.667 27 60 27 100v55c-36.667 -46 -87.334 -69 -152.001 -69c-45.333 0 -85.666 9.83301 -120.999 29.5s-63.166 48.167 -83.499 85.5
s-30.5 81.333 -30.5 132s9.83301 94.667 29.5 132s47.167 66.166 82.5 86.499s76.333 30.5 123 30.5c30.667 0 59 -5.83301 85 -17.5s48.333 -28.834 67 -51.501v53h102zM384.499 134.505c26.333 29 39.834 67.5 40.501 115.5v1v0v1v1c0 32 -6.66699 59.667 -20 83
s-30.5 40.833 -51.5 52.5s-43.5 17.5 -67.5 17.5c-43.333 0 -78.833 -14.5 -106.5 -43.5s-41.5 -67.167 -41.5 -114.5s13.833 -85.333 41.5 -114s63.167 -43 106.5 -43c39.333 0 72.166 14.5 98.499 43.5zM457 735.005c-1.33301 -29.333 -9.83301 -56.833 -25.5 -82.5
s-36.167 -46 -61.5 -61s-52.666 -22.5 -81.999 -22.5c-30 0 -57.667 7.33301 -83 22s-46 34.834 -62 60.501s-24.667 53.5 -26 83.5h90c0.666992 -24 9 -43 25 -57s34.667 -21 56 -21s39.666 7.16699 54.999 21.5s23.333 33.166 24 56.499h90z" />
    <glyph glyph-name="Gdotaccent" unicode="&#x120;" horiz-adv-x="784" 
d="M383 402l339.003 0.000976562v-402h-101v77c-26 -29.333 -58 -51.666 -96 -66.999s-78.667 -23 -122 -23c-72.667 0 -136.334 16 -191.001 48s-96.834 75.667 -126.501 131s-44.5 117.333 -44.5 186c0 67.333 15.833 129.666 47.5 186.999
s74.834 102.666 129.501 135.999s114.667 50 180 50c78 0 146.167 -19 204.5 -57s100.5 -89.667 126.5 -155l-102 -36c-20 46 -50.167 81.833 -90.5 107.5s-86.5 38.5 -138.5 38.5c-46 0 -87.833 -11.833 -125.5 -35.5s-67.334 -56.167 -89.001 -97.5
s-32.5 -87.333 -32.5 -138c0 -50 10.667 -94.667 32 -134s51.166 -70 89.499 -92s81.833 -33 130.5 -33c53.333 0 101.5 15.5 144.5 46.5s67.5 83.167 73.5 156.5v11h-238v95zM343.003 809.501c-14 13.667 -21 30.5 -21 50.5c0 19.333 7 36.166 21 50.499
s30.667 21.5 50 21.5s36.166 -7.16699 50.499 -21.5s21.5 -31.166 21.5 -50.499s-7.16699 -36 -21.5 -50s-31.166 -21 -50.499 -21s-36 6.83301 -50 20.5z" />
    <glyph glyph-name="gdotaccent" unicode="&#x121;" horiz-adv-x="594" 
d="M528 481l-0.000976562 -465.995c0 -64.667 -18 -120.334 -54 -167.001c-22 -28 -49 -49.667 -81 -65s-67.333 -23 -106 -23c-74.667 0 -135.334 22.333 -182.001 67c-26 25.333 -45.667 57 -59 95l88 32c7.33301 -24.667 20 -44.334 38 -59.001
c14 -12.667 30.333 -22.334 49 -29.001s38.334 -10 59.001 -10c26.667 0 50.167 5 70.5 15s36.5 24.667 48.5 44c18 26.667 27 60 27 100v55c-36.667 -46 -87.334 -69 -152.001 -69c-45.333 0 -85.666 9.83301 -120.999 29.5s-63.166 48.167 -83.499 85.5
s-30.5 81.333 -30.5 132s9.83301 94.667 29.5 132s47.167 66.166 82.5 86.499s76.333 30.5 123 30.5c30.667 0 59 -5.83301 85 -17.5s48.333 -28.834 67 -51.501v53h102zM384.499 134.505c26.333 29 39.834 67.5 40.501 115.5v1v0v1v1c0 32 -6.66699 59.667 -20 83
s-30.5 40.833 -51.5 52.5s-43.5 17.5 -67.5 17.5c-43.333 0 -78.833 -14.5 -106.5 -43.5s-41.5 -67.167 -41.5 -114.5s13.833 -85.333 41.5 -114s63.167 -43 106.5 -43c39.333 0 72.166 14.5 98.499 43.5zM233 597.505c-14 13.667 -21 30.5 -21 50.5
c0 19.333 7 36.166 21 50.499s30.667 21.5 50 21.5s36.166 -7.16699 50.499 -21.5s21.5 -31.166 21.5 -50.499s-7.16699 -36 -21.5 -50s-31.166 -21 -50.499 -21s-36 6.83301 -50 20.5z" />
    <glyph glyph-name="Gcommaaccent" unicode="&#x122;" horiz-adv-x="784" 
d="M383 402l339.003 0.000976562v-402h-101v77c-26 -29.333 -58 -51.666 -96 -66.999s-78.667 -23 -122 -23c-72.667 0 -136.334 16 -191.001 48s-96.834 75.667 -126.501 131s-44.5 117.333 -44.5 186c0 67.333 15.833 129.666 47.5 186.999
s74.834 102.666 129.501 135.999s114.667 50 180 50c78 0 146.167 -19 204.5 -57s100.5 -89.667 126.5 -155l-102 -36c-20 46 -50.167 81.833 -90.5 107.5s-86.5 38.5 -138.5 38.5c-46 0 -87.833 -11.833 -125.5 -35.5s-67.334 -56.167 -89.001 -97.5
s-32.5 -87.333 -32.5 -138c0 -50 10.667 -94.667 32 -134s51.166 -70 89.499 -92s81.833 -33 130.5 -33c53.333 0 101.5 15.5 144.5 46.5s67.5 83.167 73.5 156.5v11h-238v95zM459.003 -81.999l-86 -167h-98l91 167h93z" />
    <glyph glyph-name="gcommaaccent" unicode="&#x123;" horiz-adv-x="594" 
d="M528 481l-0.000976562 -465.995c0 -64.667 -18 -120.334 -54 -167.001c-22 -28 -49 -49.667 -81 -65s-67.333 -23 -106 -23c-74.667 0 -135.334 22.333 -182.001 67c-26 25.333 -45.667 57 -59 95l88 32c7.33301 -24.667 20 -44.334 38 -59.001
c14 -12.667 30.333 -22.334 49 -29.001s38.334 -10 59.001 -10c26.667 0 50.167 5 70.5 15s36.5 24.667 48.5 44c18 26.667 27 60 27 100v55c-36.667 -46 -87.334 -69 -152.001 -69c-45.333 0 -85.666 9.83301 -120.999 29.5s-63.166 48.167 -83.499 85.5
s-30.5 81.333 -30.5 132s9.83301 94.667 29.5 132s47.167 66.166 82.5 86.499s76.333 30.5 123 30.5c30.667 0 59 -5.83301 85 -17.5s48.333 -28.834 67 -51.501v53h102zM384.499 134.505c26.333 29 39.834 67.5 40.501 115.5v1v0v1v1c0 32 -6.66699 59.667 -20 83
s-30.5 40.833 -51.5 52.5s-43.5 17.5 -67.5 17.5c-43.333 0 -78.833 -14.5 -106.5 -43.5s-41.5 -67.167 -41.5 -114.5s13.833 -85.333 41.5 -114s63.167 -43 106.5 -43c39.333 0 72.166 14.5 98.499 43.5zM235 567.005l86 167h115l-92 -167h-109z" />
    <glyph glyph-name="Hbar" unicode="&#x126;" horiz-adv-x="708" 
d="M707 549h-83v-549h-100v310l-339 1v-311h-101v549h-83v101h83v60h101v-60h339v60h100v-60h83v-101zM524 549h-339v-140l339 -1v141z" />
    <glyph glyph-name="hbar" unicode="&#x127;" horiz-adv-x="615" 
d="M485 448.5c42.667 -39.667 64 -103.833 64 -192.5v-256h-102v252c0 51.333 -11.833 89.666 -35.5 114.999s-53.5 38 -89.5 38c-38 0 -71 -13.667 -99 -41s-43.667 -66.666 -47 -117.999l-1 -246h-101v573h-76v90h76v47h102v-47h177v-90h-177v-135
c36 46.667 84.667 70 146 70c66 0 120.333 -19.833 163 -59.5z" />
    <glyph glyph-name="Imacron" unicode="&#x12a;" horiz-adv-x="269" 
d="M84 0v710h101v-710h-101zM287 901v-91h-304v91h304z" />
    <glyph glyph-name="imacron" unicode="&#x12b;" horiz-adv-x="417" 
d="M360 688v-91h-304v91h304zM259 480v-480h-101v480h101z" />
    <glyph glyph-name="Iogonek" unicode="&#x12e;" horiz-adv-x="269" 
d="M84 0v710h101v-710h-101zM180 0c-22.667 -2 -39.667 -8.66699 -51 -20s-17 -23.666 -17 -36.999c0 -10.667 3.16699 -19.667 9.5 -27s14.5 -10.666 24.5 -9.99902v-70c-9.33301 -1.33301 -16 -2 -20 -2c-26 0 -46.833 8.16699 -62.5 24.5s-23.5 36.166 -23.5 59.499
c0 14.667 3.66699 29.167 11 43.5s18.333 27.166 33 38.499h96z" />
    <glyph glyph-name="iogonek" unicode="&#x12f;" horiz-adv-x="255" 
d="M77.5 597.5c-14.333 14.333 -21.5 31.166 -21.5 50.499s7.16699 36.166 21.5 50.499s31.5 21.5 51.5 21.5c18.667 0 35 -7.16699 49 -21.5s21 -31.166 21 -50.499s-7 -36.166 -21 -50.499s-30.333 -21.5 -49 -21.5c-20 0 -37.167 7.16699 -51.5 21.5zM176 480v-480h-101
v480h101zM171 0c-22.667 -2 -39.667 -8.66699 -51 -20s-17 -23.666 -17 -36.999c0 -10.667 3.16699 -19.667 9.5 -27s14.5 -10.666 24.5 -9.99902v-70c-9.33301 -1.33301 -16 -2 -20 -2c-26 0 -46.833 8.16699 -62.5 24.5s-23.5 36.166 -23.5 59.499
c0 14.667 3.66699 29.167 11 43.5s18.333 27.166 33 38.499h96z" />
    <glyph glyph-name="Idotaccent" unicode="&#x130;" horiz-adv-x="269" 
d="M84 0v710h101v-710h-101zM80 809.5c-14 13.667 -21 30.5 -21 50.5c0 19.333 7 36.166 21 50.499s30.667 21.5 50 21.5s36.166 -7.16699 50.499 -21.5s21.5 -31.166 21.5 -50.499s-7.16699 -36 -21.5 -50s-31.166 -21 -50.499 -21s-36 6.83301 -50 20.5z" />
    <glyph glyph-name="dotlessi" unicode="&#x131;" horiz-adv-x="214" 
d="M157 480v-480h-100v480h100z" />
    <glyph glyph-name="Kcommaaccent" unicode="&#x136;" horiz-adv-x="634" 
d="M331 352l284 -352h-136l-215 269l-79 -99v-171h-101v711h101v-376l297 376h136zM179 -69l-86 -167h-98l91 167h93z" />
    <glyph glyph-name="kcommaaccent" unicode="&#x137;" horiz-adv-x="488" 
d="M216 208l-41 -43v-165h-101v710h101v-416l181 186h124l-200 -207l200 -273h-112zM170 -69l-86 -167h-98l91 167h93z" />
    <glyph glyph-name="Lacute" unicode="&#x139;" horiz-adv-x="521" 
d="M494 101v-101h-396h-14v710h101v-609h309zM147 775l86 167h111l-91 -167h-106z" />
    <glyph glyph-name="lacute" unicode="&#x13a;" horiz-adv-x="315" 
d="M176 1c-68 0 -102 41 -102 123v586h101l1 -571c0 -18.667 3.66699 -31 11 -37s18.333 -9 33 -9l54 -1v-92zM72 779l86 167h115l-92 -167h-109z" />
    <glyph glyph-name="Lcommaaccent" unicode="&#x13b;" horiz-adv-x="521" 
d="M494 101v-101h-396h-14v710h101v-609h309zM349 -69l-86 -167h-98l91 167h93z" />
    <glyph glyph-name="lcommaaccent" unicode="&#x13c;" horiz-adv-x="315" 
d="M176 1c-68 0 -102 41 -102 123v586h101l1 -571c0 -18.667 3.66699 -31 11 -37s18.333 -9 33 -9l54 -1v-92zM239 -77l-86 -167h-98l91 167h93z" />
    <glyph glyph-name="Lcaron" unicode="&#x13d;" horiz-adv-x="524" 
d="M494 101v-101h-396h-14v710h101v-609h309zM403 406h-91v304h91v-304z" />
    <glyph glyph-name="lcaron" unicode="&#x13e;" horiz-adv-x="374" 
d="M176 1c-68 0 -102 41 -102 123v586h101l1 -571c0 -18.667 3.66699 -31 11 -37s18.333 -9 33 -9l54 -1v-92zM333 406h-92v304h92v-304z" />
    <glyph glyph-name="Lslash" unicode="&#x141;" horiz-adv-x="524" 
d="M494 101v-101h-396h-14v322l-68 -32v98l68 32v290h101v-242l168 81v-98l-168 -81v-269h309z" />
    <glyph glyph-name="lslash" unicode="&#x142;" horiz-adv-x="320" 
d="M275 92l0.000976562 -91.999l-98 1c-34 0 -59.333 10.667 -76 32s-25 51.666 -25 90.999v207l-59 -27v84l59 28v294h101v-246l67 32v-84l-67 -32v-241c0 -18.667 3.66699 -31 11 -37s18.666 -9 33.999 -9z" />
    <glyph glyph-name="Nacute" unicode="&#x143;" horiz-adv-x="730" 
d="M646 0h-100l-362 535v-535h-100v710h100l362 -535v535h100v-710zM317 779l86 167h111l-91 -167h-106z" />
    <glyph glyph-name="nacute" unicode="&#x144;" horiz-adv-x="607" 
d="M480.5 439.5c40.333 -37 60.501 -97.499 60.501 -181.499v-258h-99v253c0 52.667 -11.667 91.167 -35 115.5s-54 36.5 -92 36.5c-38.667 0 -71.5 -13.333 -98.5 -40s-41.833 -63.334 -44.5 -110.001v-255h-98l1 480h97v-64c18.667 26 41.5 45.833 68.5 59.5
s56.167 20.5 87.5 20.5c61.333 -0.666992 112.166 -19.5 152.499 -56.5zM255.001 566.001l86 167h111l-91 -167h-106z" />
    <glyph glyph-name="Ncommaaccent" unicode="&#x145;" horiz-adv-x="730" 
d="M646 0h-100l-362 535v-535h-100v710h100l362 -535v535h100v-710zM416 -69l-86 -167h-98l91 167h93z" />
    <glyph glyph-name="ncommaaccent" unicode="&#x146;" horiz-adv-x="607" 
d="M480.5 439.5c40.333 -37 60.501 -97.499 60.501 -181.499v-258h-99v253c0 52.667 -11.667 91.167 -35 115.5s-54 36.5 -92 36.5c-38.667 0 -71.5 -13.333 -98.5 -40s-41.833 -63.334 -44.5 -110.001v-255h-98l1 480h97v-64c18.667 26 41.5 45.833 68.5 59.5
s56.167 20.5 87.5 20.5c61.333 -0.666992 112.166 -19.5 152.499 -56.5zM363.001 -68.999l-86 -167h-98l91 167h93z" />
    <glyph glyph-name="Ncaron" unicode="&#x147;" horiz-adv-x="730" 
d="M646 0h-100l-362 535v-535h-100v710h100l362 -535v535h100v-710zM516 946l-86 -167h-98h-23l-85 167h92l54 -98l53 98h93z" />
    <glyph glyph-name="ncaron" unicode="&#x148;" horiz-adv-x="607" 
d="M480.5 439.5c40.333 -37 60.501 -97.499 60.501 -181.499v-258h-99v253c0 52.667 -11.667 91.167 -35 115.5s-54 36.5 -92 36.5c-38.667 0 -71.5 -13.333 -98.5 -40s-41.833 -63.334 -44.5 -110.001v-255h-98l1 480h97v-64c18.667 26 41.5 45.833 68.5 59.5
s56.167 20.5 87.5 20.5c61.333 -0.666992 112.166 -19.5 152.499 -56.5zM454.001 733.001l-86 -167h-98h-23l-85 167h92l54 -98l53 98h93z" />
    <glyph glyph-name="Eng" unicode="&#x14a;" horiz-adv-x="720" 
d="M636 0l-0.000976562 -38.999c0 -50.667 -13.667 -87.834 -41 -111.501s-59.666 -35.5 -96.999 -35.5c-20 0 -38 3 -54 9v65c10 -3.33301 19.667 -5 29 -5c18 0 33 6.33301 45 19s18 32.667 18 60v38l-352 535v-535h-100v710h100l352 -535v535h100v-710z" />
    <glyph glyph-name="eng" unicode="&#x14b;" horiz-adv-x="607" 
d="M480.5 439.5c40.333 -37 60.501 -97.498 60.501 -181.498v-297c0 -50.667 -13.667 -87.834 -41 -111.501s-60 -35.5 -98 -35.5c-20 0 -38 3 -54 9v65c10 -3.33301 19.667 -5 29 -5c18.667 0 34.167 6.33301 46.5 19s18.5 32.667 18.5 60v291
c0 52.667 -11.667 91.167 -35 115.5s-54 36.5 -92 36.5c-38.667 0 -71.5 -13.333 -98.5 -40s-41.833 -63.334 -44.5 -110.001v-255h-98l1 480h97v-64c18.667 26 41.5 45.833 68.5 59.5s56.167 20.5 87.5 20.5c61.333 -0.666992 112.166 -19.5 152.499 -56.5z" />
    <glyph glyph-name="Omacron" unicode="&#x14c;" horiz-adv-x="783" 
d="M695.5 543.5c-30.333 56.333 -72.167 100.499 -125.5 132.499s-113.333 48 -180 48c-66 0 -125.5 -16 -178.5 -48s-94.5 -76.167 -124.5 -132.5s-45 -119.5 -45 -189.5c0 -68.667 15.333 -131 46 -187s72.667 -100 126 -132s112.333 -48 177 -48
c66.667 0 126.667 15.667 180 47s95 74.833 125 130.5s45 118.834 45 189.501c0 70 -15.167 133.167 -45.5 189.5zM600.499 216.999c-19.667 -39.333 -47.667 -69.667 -84 -91s-78.166 -32 -125.499 -32c-46 0 -87 11 -123 33s-64.167 52.667 -84.5 92
s-30.5 84.333 -30.5 135c0 51.333 10 97 30 137s48 71.167 84 93.5s77 33.5 123 33.5c47.333 0 89.166 -11 125.499 -33s64.5 -53 84.5 -93s30 -86 30 -138s-9.83301 -97.667 -29.5 -137zM542.999 900.998v-91h-304v91h304z" />
    <glyph glyph-name="omacron" unicode="&#x14d;" horiz-adv-x="557" 
d="M489 112c-21.333 -38.667 -50.499 -69.166 -87.499 -91.499s-77.833 -33.5 -122.5 -33.5c-44 0 -84.667 11.333 -122 34s-66.833 53.5 -88.5 92.5s-32.5 81.167 -32.5 126.5c0 46.667 10.667 89.5 32 128.5s50.666 69.833 87.999 92.5s78.333 34 123 34
s85.5 -11.333 122.5 -34s66.167 -53.5 87.5 -92.5s32 -81.833 32 -128.5s-10.667 -89.334 -32 -128.001zM382.001 353.501c-26 30.333 -60.333 45.5 -103 45.5c-43.333 0 -78 -15.333 -104 -46s-39 -68.667 -39 -114c0 -28.667 6 -55 18 -79s28.833 -43.167 50.5 -57.5
s46.5 -21.5 74.5 -21.5c43.333 0 77.833 14.833 103.5 44.5s38.5 67.5 38.5 113.5s-13 84.167 -39 114.5zM436.001 688.001v-91h-304v91h304z" />
    <glyph glyph-name="Ohungarumlaut" unicode="&#x150;" horiz-adv-x="783" 
d="M695.5 543.5c-30.333 56.333 -72.167 100.499 -125.5 132.499s-113.333 48 -180 48c-66 0 -125.5 -16 -178.5 -48s-94.5 -76.167 -124.5 -132.5s-45 -119.5 -45 -189.5c0 -68.667 15.333 -131 46 -187s72.667 -100 126 -132s112.333 -48 177 -48
c66.667 0 126.667 15.667 180 47s95 74.833 125 130.5s45 118.834 45 189.501c0 70 -15.167 133.167 -45.5 189.5zM600.499 216.999c-19.667 -39.333 -47.667 -69.667 -84 -91s-78.166 -32 -125.499 -32c-46 0 -87 11 -123 33s-64.167 52.667 -84.5 92
s-30.5 84.333 -30.5 135c0 51.333 10 97 30 137s48 71.167 84 93.5s77 33.5 123 33.5c47.333 0 89.166 -11 125.499 -33s64.5 -53 84.5 -93s30 -86 30 -138s-9.83301 -97.667 -29.5 -137zM251.999 792.998l86 167h111l-92 -167h-105zM431.999 792.998l92 167h111l-97 -167
h-106z" />
    <glyph glyph-name="ohungarumlaut" unicode="&#x151;" horiz-adv-x="557" 
d="M489 112c-21.333 -38.667 -50.499 -69.166 -87.499 -91.499s-77.833 -33.5 -122.5 -33.5c-44 0 -84.667 11.333 -122 34s-66.833 53.5 -88.5 92.5s-32.5 81.167 -32.5 126.5c0 46.667 10.667 89.5 32 128.5s50.666 69.833 87.999 92.5s78.333 34 123 34
s85.5 -11.333 122.5 -34s66.167 -53.5 87.5 -92.5s32 -81.833 32 -128.5s-10.667 -89.334 -32 -128.001zM382.001 353.501c-26 30.333 -60.333 45.5 -103 45.5c-43.333 0 -78 -15.333 -104 -46s-39 -68.667 -39 -114c0 -28.667 6 -55 18 -79s28.833 -43.167 50.5 -57.5
s46.5 -21.5 74.5 -21.5c43.333 0 77.833 14.833 103.5 44.5s38.5 67.5 38.5 113.5s-13 84.167 -39 114.5zM149.001 564.001l86 167h111l-92 -167h-105zM329.001 564.001l92 167h111l-97 -167h-106z" />
    <glyph glyph-name="OE" unicode="&#x152;" horiz-adv-x="1150" 
d="M1092 0l-335 0.998047v-1h-101v86c-31.333 -32.667 -68.333 -58 -111 -76s-88.667 -27 -138 -27c-64.667 0 -123.667 16.333 -177 49s-95.333 77.334 -126 134.001s-46 119.334 -46 188.001c0 70 15 133.167 45 189.5s71.5 100.5 124.5 132.5s112.5 48 178.5 48
c49.333 0 95.5 -9.16699 138.5 -27.5s80.167 -43.833 111.5 -76.5v90h101l335 -1v-101l-335 1v-202h303l-1 -98h-302v-208l336 -1zM532.5 122.998c36.333 22 64.333 53 84 93s29.5 86 29.5 138s-10 98 -30 138s-48.167 71 -84.5 93s-78.166 33 -125.499 33
c-46 0 -87 -11.167 -123 -33.5s-64 -53.5 -84 -93.5s-30 -85.667 -30 -137c0 -50.667 10.167 -96 30.5 -136s48.5 -71.333 84.5 -94s77 -34 123 -34c47.333 0 89.166 11 125.499 33z" />
    <glyph glyph-name="oe" unicode="&#x153;" horiz-adv-x="945" 
d="M905 195l-380.996 -0.000976562c8.66699 -34.667 26.167 -63 52.5 -85s56.166 -33 89.499 -33c29.333 0 55.333 6.83301 78 20.5s39 31.834 49 54.501l88 -34c-17.333 -41.333 -45.333 -74.333 -84 -99s-82.334 -37 -131.001 -37c-38 0 -73.667 9 -107 27
s-61.333 42.333 -84 73c-22.667 -30 -50.5 -53.667 -83.5 -71s-69.167 -26 -108.5 -26c-44 0 -84.5 11.5 -121.5 34.5s-66.5 53.833 -88.5 92.5s-33 80.667 -33 126c0 46.667 10.667 89.5 32 128.5s50.666 70 87.999 93s78.333 34.5 123 34.5
c39.333 0 75.666 -9 108.999 -27s61.333 -42.667 84 -74c22.667 30.667 50.5 54.834 83.5 72.501s68.5 26.5 106.5 26.5c49.333 0 94 -13.333 134 -40s68.333 -62.334 85 -107.001c8.66699 -20.667 14.167 -41.667 16.5 -63s3.5 -37.333 3.5 -48v-39zM808.004 271.999
c-1.33301 14.667 -4.66504 28 -9.99805 40c-10 26 -26.833 46.667 -50.5 62s-50.834 23 -81.501 23c-34.667 0 -65.334 -11.833 -92.001 -35.5s-43.667 -53.5 -51 -89.5h285zM386.505 123.999c25.667 29.333 38.5 67.001 38.5 113.001s-13 84.167 -39 114.5
s-60.333 45.5 -103 45.5c-43.333 0 -78 -15.167 -104 -45.5s-39 -68.5 -39 -114.5c0 -28.667 6 -54.834 18 -78.501s28.833 -42.667 50.5 -57s46.5 -21.5 74.5 -21.5c43.333 0 77.833 14.667 103.5 44z" />
    <glyph glyph-name="Racute" unicode="&#x154;" horiz-adv-x="649" 
d="M469 300l138 -300h-115l-126 284h-180v-284h-102v710h102l185 -1c38.667 0 73.834 -5.5 105.501 -16.5s57.5 -27.5 77.5 -49.5c17.333 -17.333 30.666 -38.5 39.999 -63.5s14 -51.5 14 -79.5c0 -25.333 -4 -50 -12 -74s-19.333 -44.333 -34 -61
c-26.667 -30 -57.667 -51.667 -93 -65zM186 379h180.001c51.333 0 87.666 14.333 108.999 43c14 20 21 44 21 72c0 15.333 -2.33301 30 -7 44s-11.334 26 -20.001 36c-21.333 25.333 -55.666 38 -102.999 38l-180 1v-234zM245.001 779l86 167h111l-91 -167h-106z" />
    <glyph glyph-name="racute" unicode="&#x155;" horiz-adv-x="356" 
d="M236 467.5c27.333 10.333 60.667 14.501 100 12.501v-92c-10.667 2 -21 3 -31 3c-37.333 0 -68 -12.667 -92 -38s-37 -58.333 -39 -99v-254h-99l-1 480h99v-60c14.667 21.333 35.667 37.166 63 47.499zM99.001 555.001l86 167h111l-91 -167h-106z" />
    <glyph glyph-name="Rcommaaccent" unicode="&#x156;" horiz-adv-x="649" 
d="M469 300l138 -300h-115l-126 284h-180v-284h-102v710h102l185 -1c38.667 0 73.834 -5.5 105.501 -16.5s57.5 -27.5 77.5 -49.5c17.333 -17.333 30.666 -38.5 39.999 -63.5s14 -51.5 14 -79.5c0 -25.333 -4 -50 -12 -74s-19.333 -44.333 -34 -61
c-26.667 -30 -57.667 -51.667 -93 -65zM186 379h180.001c51.333 0 87.666 14.333 108.999 43c14 20 21 44 21 72c0 15.333 -2.33301 30 -7 44s-11.334 26 -20.001 36c-21.333 25.333 -55.666 38 -102.999 38l-180 1v-234zM374.001 -69l-86 -167h-98l91 167h93z" />
    <glyph glyph-name="rcommaaccent" unicode="&#x157;" horiz-adv-x="356" 
d="M236 467.5c27.333 10.333 60.667 14.501 100 12.501v-92c-10.667 2 -21 3 -31 3c-37.333 0 -68 -12.667 -92 -38s-37 -58.333 -39 -99v-254h-99l-1 480h99v-60c14.667 21.333 35.667 37.166 63 47.499zM167.001 -68.999l-86 -167h-98l91 167h93z" />
    <glyph glyph-name="Rcaron" unicode="&#x158;" horiz-adv-x="649" 
d="M469 300l138 -300h-115l-126 284h-180v-284h-102v710h102l185 -1c38.667 0 73.834 -5.5 105.501 -16.5s57.5 -27.5 77.5 -49.5c17.333 -17.333 30.666 -38.5 39.999 -63.5s14 -51.5 14 -79.5c0 -25.333 -4 -50 -12 -74s-19.333 -44.333 -34 -61
c-26.667 -30 -57.667 -51.667 -93 -65zM186 379h180.001c51.333 0 87.666 14.333 108.999 43c14 20 21 44 21 72c0 15.333 -2.33301 30 -7 44s-11.334 26 -20.001 36c-21.333 25.333 -55.666 38 -102.999 38l-180 1v-234zM444.001 946l-86 -167h-98h-23l-85 167h92l54 -98
l53 98h93z" />
    <glyph glyph-name="rcaron" unicode="&#x159;" horiz-adv-x="356" 
d="M236 467.5c27.333 10.333 60.667 14.501 100 12.501v-92c-10.667 2 -21 3 -31 3c-37.333 0 -68 -12.667 -92 -38s-37 -58.333 -39 -99v-254h-99l-1 480h99v-60c14.667 21.333 35.667 37.166 63 47.499zM298.001 722.001l-86 -167h-98h-23l-85 167h92l54 -98l53 98h93z
" />
    <glyph glyph-name="Sacute" unicode="&#x15a;" horiz-adv-x="594" 
d="M454 525c-8 30 -26.6699 53.8311 -56.0029 71.498s-62.666 26.5 -99.999 26.5c-34 0 -63.167 -8.66699 -87.5 -26s-39.5 -39.666 -45.5 -66.999c-0.666992 -3.33301 -1 -8.66602 -1 -15.999c0 -22 7.16699 -41.5 21.5 -58.5s35.833 -28.167 64.5 -33.5
c20 -4.66699 56.667 -11.667 110 -21c60 -11.333 106.333 -34.666 139 -69.999s49 -80.333 49 -135c0 -42.667 -11.5 -79.834 -34.5 -111.501s-53.5 -55.667 -91.5 -72s-79.667 -24.5 -125 -24.5c-44 0 -85.5 7.66699 -124.5 23s-71.167 37.333 -96.5 66
s-39.666 62.667 -42.999 102l102 15c4.66699 -31.333 23.334 -56.666 56.001 -75.999s69.334 -29 110.001 -29c41.333 0 75.166 10 101.499 30s39.5 44.667 39.5 74c0 21.333 -7.16699 41.166 -21.5 59.499s-35.166 31.166 -62.499 38.499
c-24.667 6.66699 -70.334 16.334 -137.001 29.001c-51.333 11.333 -91 33.333 -119 66s-42 75 -42 127c0 39.333 10.667 75 32 107s50 57.333 86 76s75.333 28 118 28c44 0 84.333 -7.5 121 -22.5s67 -35.5 91 -61.5s39.667 -55.333 47 -88zM248.997 778.998l86 167h111
l-91 -167h-106z" />
    <glyph glyph-name="sacute" unicode="&#x15b;" horiz-adv-x="445" 
d="M313 351c-4.66699 18 -15.1641 32.167 -31.4971 42.5s-35.833 15.5 -58.5 15.5c-24 0 -43.333 -5.5 -58 -16.5s-22 -26.167 -22 -45.5c0 -12 4 -22.5 12 -31.5s19.667 -15.167 35 -18.5c40 -10 71.667 -17.333 95 -22c78 -18.667 117 -65.667 117 -141
c0 -43.333 -16.5 -78.666 -49.5 -105.999s-75.167 -41 -126.5 -41c-50.667 0 -93.834 11.833 -129.501 35.5s-57.5 55.5 -65.5 95.5l95 16c3.33301 -18 14 -32.5 32 -43.5s40.667 -16.5 68 -16.5c25.333 0 45 5 59 15s21 24.333 21 43c0 13.333 -4.33301 24.166 -13 32.499
s-23 14.833 -43 19.5c-26.667 5.33301 -57 12.666 -91 21.999c-34.667 8.66699 -61.834 25.334 -81.501 50.001s-29.5 53.667 -29.5 87c0 28 7.5 53.667 22.5 77s35.667 41.833 62 55.5s55.166 20.5 86.499 20.5c47.333 0 88 -11.333 122 -34s55.667 -52.667 65 -90z
M166.003 566l86 167h111l-91 -167h-106z" />
    <glyph glyph-name="Scedilla" unicode="&#x15e;" horiz-adv-x="594" 
d="M499 331c32.667 -35.333 48.998 -80.3359 48.998 -135.003c0 -57.333 -19.667 -104 -59 -140s-89 -57.667 -149 -65l-21 -27h32c20.667 0 36.667 -7.16699 48 -21.5s17 -30.833 17 -49.5c0 -18 -6 -34.333 -18 -49s-27 -22 -45 -22h-103v52h87
c6.66699 0 11.834 2 15.501 6s5.5 9 5.5 15c0 5.33301 -1.83301 9.5 -5.5 12.5s-8.83398 4.5 -15.501 4.5h-87v53l19 24c-62.667 5.33301 -116.5 24.833 -161.5 58.5s-69.833 77.5 -74.5 131.5l102 15c4.66699 -31.333 23.334 -56.666 56.001 -75.999
s69.334 -29 110.001 -29c41.333 0 75.166 10 101.499 30s39.5 44.667 39.5 74c0 21.333 -7.16699 41.166 -21.5 59.499s-35.166 31.166 -62.499 38.499c-24.667 6.66699 -70.334 16.334 -137.001 29.001c-51.333 11.333 -91 33.333 -119 66s-42 75 -42 127
c0 39.333 10.667 75 32 107s50 57.333 86 76s75.333 28 118 28c44 0 84.333 -7.5 121 -22.5s67 -35.5 91 -61.5s39.667 -55.333 47 -88l-101 -27c-8 30 -26.667 53.833 -56 71.5s-62.666 26.5 -99.999 26.5c-34 0 -63.167 -8.66699 -87.5 -26s-39.5 -39.666 -45.5 -66.999
c-0.666992 -3.33301 -1 -8.66602 -1 -15.999c0 -22 7.16699 -41.5 21.5 -58.5s35.833 -28.167 64.5 -33.5c20 -4.66699 56.667 -11.667 110 -21c60 -11.333 106.333 -34.666 139 -69.999z" />
    <glyph glyph-name="scedilla" unicode="&#x15f;" horiz-adv-x="445" 
d="M402 134c0 -40 -14.165 -73.333 -42.498 -100s-64.833 -42 -109.5 -46l-15 -19h32c20.667 0 36.667 -7.16699 48 -21.5s17 -30.833 17 -49.5c0 -18 -6 -34.333 -18 -49s-27 -22 -45 -22h-103v52h87c6.66699 0 11.834 2 15.501 6s5.5 9 5.5 15
c0 5.33301 -1.83301 9.5 -5.5 12.5s-8.83398 4.5 -15.501 4.5h-87v53l15 20c-39.333 6.66699 -72.5 21.334 -99.5 44.001s-43.833 50.667 -50.5 84l95 16c3.33301 -18 14 -32.5 32 -43.5s40.667 -16.5 68 -16.5c25.333 0 45 5 59 15s21 24.333 21 43
c0 13.333 -4.33301 24.166 -13 32.499s-23 14.833 -43 19.5c-26.667 5.33301 -57 12.666 -91 21.999c-34.667 8.66699 -61.834 25.334 -81.501 50.001s-29.5 53.667 -29.5 87c0 28 7.5 53.667 22.5 77s35.667 41.833 62 55.5s55.166 20.5 86.499 20.5
c47.333 0 88 -11.333 122 -34s55.667 -52.667 65 -90l-93 -21c-4.66699 18 -15.167 32.167 -31.5 42.5s-35.833 15.5 -58.5 15.5c-24 0 -43.333 -5.5 -58 -16.5s-22 -26.167 -22 -45.5c0 -12 4 -22.5 12 -31.5s19.667 -15.167 35 -18.5c40 -10 71.667 -17.333 95 -22
c78 -18.667 117 -65.667 117 -141z" />
    <glyph glyph-name="Scaron" unicode="&#x160;" horiz-adv-x="594" 
d="M454 525c-8 30 -26.6699 53.8311 -56.0029 71.498s-62.666 26.5 -99.999 26.5c-34 0 -63.167 -8.66699 -87.5 -26s-39.5 -39.666 -45.5 -66.999c-0.666992 -3.33301 -1 -8.66602 -1 -15.999c0 -22 7.16699 -41.5 21.5 -58.5s35.833 -28.167 64.5 -33.5
c20 -4.66699 56.667 -11.667 110 -21c60 -11.333 106.333 -34.666 139 -69.999s49 -80.333 49 -135c0 -42.667 -11.5 -79.834 -34.5 -111.501s-53.5 -55.667 -91.5 -72s-79.667 -24.5 -125 -24.5c-44 0 -85.5 7.66699 -124.5 23s-71.167 37.333 -96.5 66
s-39.666 62.667 -42.999 102l102 15c4.66699 -31.333 23.334 -56.666 56.001 -75.999s69.334 -29 110.001 -29c41.333 0 75.166 10 101.499 30s39.5 44.667 39.5 74c0 21.333 -7.16699 41.166 -21.5 59.499s-35.166 31.166 -62.499 38.499
c-24.667 6.66699 -70.334 16.334 -137.001 29.001c-51.333 11.333 -91 33.333 -119 66s-42 75 -42 127c0 39.333 10.667 75 32 107s50 57.333 86 76s75.333 28 118 28c44 0 84.333 -7.5 121 -22.5s67 -35.5 91 -61.5s39.667 -55.333 47 -88zM447.997 945.998l-86 -167h-98
h-23l-85 167h92l54 -98l53 98h93z" />
    <glyph glyph-name="scaron" unicode="&#x161;" horiz-adv-x="445" 
d="M313 351c-4.66699 18 -15.1641 32.167 -31.4971 42.5s-35.833 15.5 -58.5 15.5c-24 0 -43.333 -5.5 -58 -16.5s-22 -26.167 -22 -45.5c0 -12 4 -22.5 12 -31.5s19.667 -15.167 35 -18.5c40 -10 71.667 -17.333 95 -22c78 -18.667 117 -65.667 117 -141
c0 -43.333 -16.5 -78.666 -49.5 -105.999s-75.167 -41 -126.5 -41c-50.667 0 -93.834 11.833 -129.501 35.5s-57.5 55.5 -65.5 95.5l95 16c3.33301 -18 14 -32.5 32 -43.5s40.667 -16.5 68 -16.5c25.333 0 45 5 59 15s21 24.333 21 43c0 13.333 -4.33301 24.166 -13 32.499
s-23 14.833 -43 19.5c-26.667 5.33301 -57 12.666 -91 21.999c-34.667 8.66699 -61.834 25.334 -81.501 50.001s-29.5 53.667 -29.5 87c0 28 7.5 53.667 22.5 77s35.667 41.833 62 55.5s55.166 20.5 86.499 20.5c47.333 0 88 -11.333 122 -34s55.667 -52.667 65 -90z
M365.003 733l-86 -167h-98h-23l-85 167h92l54 -98l53 98h93z" />
    <glyph glyph-name="uni0162" unicode="&#x162;" horiz-adv-x="586" 
d="M571 609h-227v-609h-101v609h-227v101h555v-101zM241 -114h87c6.66699 0 11.834 2 15.501 6s5.5 9 5.5 15c0 5.33301 -1.83301 9.5 -5.5 12.5s-8.83398 4.5 -15.501 4.5h-87v53l44 58l48 -1v-29l-23 -29h32c20.667 0 36.667 -7.16699 48 -21.5s17 -30.833 17 -49.5
c0 -18 -6 -34.333 -18 -49s-27 -22 -45 -22h-103v52z" />
    <glyph glyph-name="uni0163" unicode="&#x163;" horiz-adv-x="342" 
d="M203 394v-255c0 -18.667 3.66699 -31 11 -37s18.333 -9 33 -9l54 -1v-92l-80 1l-19 -25h32c20.667 0 36.667 -7.16699 48 -21.5s17 -30.833 17 -49.5c0 -18 -6 -34.333 -18 -49s-27 -22 -45 -22h-103v52h87c6.66699 0 11.834 2 15.501 6s5.5 9 5.5 15
c0 5.33301 -1.83301 9.5 -5.5 12.5s-8.83398 4.5 -15.501 4.5h-87v53l24 32c-37.333 16.667 -56 55 -56 115v270h-85v86h85v152h102v-152h98v-86h-98z" />
    <glyph glyph-name="Tcaron" unicode="&#x164;" horiz-adv-x="586" 
d="M571 609h-227v-609h-101v609h-227v101h555v-101zM440 946l-86 -167h-98h-23l-85 167h92l54 -98l53 98h93z" />
    <glyph glyph-name="tcaron" unicode="&#x165;" horiz-adv-x="367" 
d="M309 537h-91v261h91v-261zM173 394l1 -254.999c0 -18.667 3.5 -31 10.5 -37s18.167 -9 33.5 -9l107 -1v-92l-152 1c-34 0 -59.333 10.667 -76 32s-25 51.666 -25 90.999v270h-56v86h56v152h101v-152h152v-86h-152z" />
    <glyph glyph-name="Tbar" unicode="&#x166;" horiz-adv-x="586" 
d="M344 609v-166h144v-101h-144v-342h-101v342h-131v101h131v166h-227v101h555v-101h-227z" />
    <glyph glyph-name="tbar" unicode="&#x167;" horiz-adv-x="343" 
d="M203 402v-79.999h97v-82h-97v-101c0 -18.667 3.66699 -31 11 -37s18.333 -9 33 -9l54 -1v-92l-98 1c-34 0 -59.5 10.667 -76.5 32s-25.5 51.666 -25.5 90.999v116h-85v82h85v80h-84v78h84v152h102v-152h99v-78h-99z" />
    <glyph glyph-name="Umacron" unicode="&#x16a;" horiz-adv-x="702" 
d="M626 710l-0.00195312 -460c0 -51.333 -12.833 -97.166 -38.5 -137.499s-59.667 -71.666 -102 -93.999s-87.166 -33.5 -134.499 -33.5s-92.166 11.167 -134.499 33.5s-76.333 53.666 -102 93.999s-38.5 86.166 -38.5 137.499v460h102v-460c0 -31.333 8.5 -59.5 25.5 -84.5
s38.833 -44.5 65.5 -58.5s54 -21 82 -21s55.333 7 82 21s48.5 33.5 65.5 58.5s25.5 53.167 25.5 84.5v460h102zM503.998 901v-91h-304v91h304z" />
    <glyph glyph-name="umacron" unicode="&#x16b;" horiz-adv-x="597" 
d="M528 480l0.000976562 -479.999h-99v58c-32 -47.333 -80.333 -71 -145 -71c-143.333 0 -215 79.333 -215 238v255h99v-250c0 -50.667 11.667 -88.834 35 -114.501s53.666 -38.5 90.999 -38.5c42 0 75 14.667 99 44s36 73.333 36 132v227h99zM451.001 684.001v-91h-304v91
h304z" />
    <glyph glyph-name="Uring" unicode="&#x16e;" horiz-adv-x="702" 
d="M626 710l-0.00195312 -460c0 -51.333 -12.833 -97.166 -38.5 -137.499s-59.667 -71.666 -102 -93.999s-87.166 -33.5 -134.499 -33.5s-92.166 11.167 -134.499 33.5s-76.333 53.666 -102 93.999s-38.5 86.166 -38.5 137.499v460h102v-460c0 -31.333 8.5 -59.5 25.5 -84.5
s38.833 -44.5 65.5 -58.5s54 -21 82 -21s55.333 7 82 21s48.5 33.5 65.5 58.5s25.5 53.167 25.5 84.5v460h102zM263.498 794c-23.667 24 -35.5 53.667 -35.5 89c0 22 5.66699 42.667 17 62s26.5 34.833 45.5 46.5s39.5 17.5 61.5 17.5s42.5 -5.83301 61.5 -17.5
s34.167 -27.167 45.5 -46.5s17 -40 17 -62c0 -22.667 -5.66699 -43.5 -17 -62.5s-26.5 -34.167 -45.5 -45.5s-39.5 -17 -61.5 -17c-35.333 0 -64.833 12 -88.5 36zM391.998 843.5c10.667 11 16 24.833 16 41.5c0 15.333 -5.33301 28.333 -16 39s-24 16 -40 16
s-29.333 -5.33301 -40 -16s-16 -23.667 -16 -39c0 -16.667 5.33301 -30.5 16 -41.5s24 -16.5 40 -16.5s29.333 5.5 40 16.5z" />
    <glyph glyph-name="uring" unicode="&#x16f;" horiz-adv-x="597" 
d="M528 480l0.000976562 -479.999h-99v58c-32 -47.333 -80.333 -71 -145 -71c-143.333 0 -215 79.333 -215 238v255h99v-250c0 -50.667 11.667 -88.834 35 -114.501s53.666 -38.5 90.999 -38.5c42 0 75 14.667 99 44s36 73.333 36 132v227h99zM210.501 577.001
c-23.667 24 -35.5 53.667 -35.5 89c0 22 5.66699 42.667 17 62s26.5 34.833 45.5 46.5s39.5 17.5 61.5 17.5s42.5 -5.83301 61.5 -17.5s34.167 -27.167 45.5 -46.5s17 -40 17 -62c0 -22.667 -5.66699 -43.5 -17 -62.5s-26.5 -34.167 -45.5 -45.5s-39.5 -17 -61.5 -17
c-35.333 0 -64.833 12 -88.5 36zM339.001 626.501c10.667 11 16 24.833 16 41.5c0 15.333 -5.33301 28.333 -16 39s-24 16 -40 16s-29.333 -5.33301 -40 -16s-16 -23.667 -16 -39c0 -16.667 5.33301 -30.5 16 -41.5s24 -16.5 40 -16.5s29.333 5.5 40 16.5z" />
    <glyph glyph-name="Uhungarumlaut" unicode="&#x170;" horiz-adv-x="702" 
d="M626 710l-0.00195312 -460c0 -51.333 -12.833 -97.166 -38.5 -137.499s-59.667 -71.666 -102 -93.999s-87.166 -33.5 -134.499 -33.5s-92.166 11.167 -134.499 33.5s-76.333 53.666 -102 93.999s-38.5 86.166 -38.5 137.499v460h102v-460c0 -31.333 8.5 -59.5 25.5 -84.5
s38.833 -44.5 65.5 -58.5s54 -21 82 -21s55.333 7 82 21s48.5 33.5 65.5 58.5s25.5 53.167 25.5 84.5v460h102zM205.998 779l86 167h111l-92 -167h-105zM385.998 779l92 167h111l-97 -167h-106z" />
    <glyph glyph-name="uhungarumlaut" unicode="&#x171;" horiz-adv-x="597" 
d="M528 480l0.000976562 -479.999h-99v58c-32 -47.333 -80.333 -71 -145 -71c-143.333 0 -215 79.333 -215 238v255h99v-250c0 -50.667 11.667 -88.834 35 -114.501s53.666 -38.5 90.999 -38.5c42 0 75 14.667 99 44s36 73.333 36 132v227h99zM153.001 562.001l86 167h111
l-92 -167h-105zM333.001 562.001l92 167h111l-97 -167h-106z" />
    <glyph glyph-name="Uogonek" unicode="&#x172;" horiz-adv-x="702" 
d="M626 710l-0.00195312 -460.001c0 -44 -9.66699 -84.167 -29 -120.5s-45.333 -66.333 -78 -90s-68.667 -39.834 -108 -48.501h5c-22.667 -2 -39.667 -8.66699 -51 -20s-17 -23.666 -17 -36.999c0 -10.667 3.16699 -19.667 9.5 -27s14.5 -10.666 24.5 -9.99902v-70
c-9.33301 -1.33301 -16.333 -2 -21 -2c-25.333 0 -45.666 8.16699 -60.999 24.5s-23 35.833 -23 58.5c0 14 3.16699 27.833 9.5 41.5s15.833 26.167 28.5 37.5c-43.333 5.33301 -83.166 19.833 -119.499 43.5s-65.333 54.5 -87 92.5s-32.5 80.333 -32.5 127v460h102v-460
c0 -31.333 8.5 -59.5 25.5 -84.5s38.833 -44.5 65.5 -58.5s54 -21 82 -21s55.333 7 82 21s48.5 33.5 65.5 58.5s25.5 53.167 25.5 84.5v460h102z" />
    <glyph glyph-name="uogonek" unicode="&#x173;" horiz-adv-x="597" 
d="M528 480l0.000976562 -479.999h-99v58c-32 -47.333 -80.333 -71 -145 -71c-143.333 0 -215 79.333 -215 238v255h99v-250c0 -50.667 11.667 -88.834 35 -114.501s53.666 -38.5 90.999 -38.5c42 0 75 14.667 99 44s36 73.333 36 132v227h99zM525.001 0.000976562
c-22.667 -2 -39.667 -8.66699 -51 -20s-17 -23.666 -17 -36.999c0 -10.667 3.16699 -19.667 9.5 -27s14.5 -10.666 24.5 -9.99902v-70c-9.33301 -1.33301 -16 -2 -20 -2c-26 0 -46.833 8.16699 -62.5 24.5s-23.5 36.166 -23.5 59.499c0 14.667 3.66699 29.167 11 43.5
s18.333 27.166 33 38.499h96z" />
    <glyph glyph-name="Wcircumflex" unicode="&#x174;" horiz-adv-x="1086" 
d="M1069 710l-237 -710h-102l-187 539l-188 -539h-101l-237 710h119l169 -550l178 550h119l178 -550l170 550h119zM595 779l-53 98l-54 -98h-92l85 167h98h23l86 -167h-93z" />
    <glyph glyph-name="wcircumflex" unicode="&#x175;" horiz-adv-x="764" 
d="M750 480l-166 -480h-93h-1l-109 325l-113 -325h-93h-1l-161 480h106l103 -334l107 334h106l103 -334l108 334h104zM436 549l-53 98l-54 -98h-92l85 167h98h23l86 -167h-93z" />
    <glyph glyph-name="Ycircumflex" unicode="&#x176;" horiz-adv-x="610" 
d="M355 294v-294h-100v292l-245 418h119l175 -320v1l177 319h119zM358 778l-53 98l-54 -98h-92l85 167h98h23l86 -167h-93z" />
    <glyph glyph-name="ycircumflex" unicode="&#x177;" horiz-adv-x="533" 
d="M523 480l-283 -704h-106l91 227l-217 477h107l159 -356l143 356h106zM319 549l-53 98l-54 -98h-92l85 167h98h23l86 -167h-93z" />
    <glyph glyph-name="Ydieresis" unicode="&#x178;" horiz-adv-x="610" 
d="M355 294v-294h-100v292l-245 418h119l175 -320v1l177 319h119zM153 809c-14 14 -21 30.666 -21 49.999c0 20 7 37 21 51s31.333 21 52 21c19.333 0 36 -7.16699 50 -21.5s21 -31.166 21 -50.499s-7 -36 -21 -50s-30.667 -21 -50 -21c-20.667 0 -38 7 -52 21z
M355.5 808.999c-14.333 14 -21.5 30.666 -21.5 49.999c0 20 7.16699 37 21.5 51s31.5 21 51.5 21c19.333 0 36.166 -7.16699 50.499 -21.5s21.5 -31.166 21.5 -50.499s-7.16699 -36 -21.5 -50s-31.166 -21 -50.499 -21c-20 0 -37.167 7 -51.5 21z" />
    <glyph glyph-name="Zacute" unicode="&#x179;" horiz-adv-x="577" 
d="M534 609l-372 -508h367v-101h-486l-2 101l372 508l-371 -1v101l492 1v-101zM235 779l86 167h111l-91 -167h-106z" />
    <glyph glyph-name="zacute" unicode="&#x17a;" horiz-adv-x="455" 
d="M417 388l-255 -296h255v-92h-379v92l259 296h-259v92h379v-92zM175 549l86 167h111l-91 -167h-106z" />
    <glyph glyph-name="Zdotaccent" unicode="&#x17b;" horiz-adv-x="577" 
d="M534 609l-372 -508h367v-101h-486l-2 101l372 508l-371 -1v101l492 1v-101zM233 809.5c-14 13.667 -21 30.5 -21 50.5c0 19.333 7 36.166 21 50.499s30.667 21.5 50 21.5s36.166 -7.16699 50.499 -21.5s21.5 -31.166 21.5 -50.499s-7.16699 -36 -21.5 -50
s-31.166 -21 -50.499 -21s-36 6.83301 -50 20.5z" />
    <glyph glyph-name="zdotaccent" unicode="&#x17c;" horiz-adv-x="455" 
d="M417 388l-255 -296h255v-92h-379v92l259 296h-259v92h379v-92zM173 579.5c-14 13.667 -21 30.5 -21 50.5c0 19.333 7 36.166 21 50.499s30.667 21.5 50 21.5s36.166 -7.16699 50.499 -21.5s21.5 -31.166 21.5 -50.499s-7.16699 -36 -21.5 -50s-31.166 -21 -50.499 -21
s-36 6.83301 -50 20.5z" />
    <glyph glyph-name="Zcaron" unicode="&#x17d;" horiz-adv-x="577" 
d="M534 609l-372 -508h367v-101h-486l-2 101l372 508l-371 -1v101l492 1v-101zM434 946l-86 -167h-98h-23l-85 167h92l54 -98l53 98h93z" />
    <glyph glyph-name="zcaron" unicode="&#x17e;" horiz-adv-x="455" 
d="M417 388l-255 -296h255v-92h-379v92l259 296h-259v92h379v-92zM374 716l-86 -167h-98h-23l-85 167h92l54 -98l53 98h93z" />
    <glyph glyph-name="florin" unicode="&#x192;" horiz-adv-x="447" 
d="M276 394l-4.00195 -27h1l-32 -227c-6.66699 -45.333 -25.667 -82.166 -57 -110.499s-68.666 -42.5 -111.999 -42.5h-56l3 94h60c16.667 0 30.167 5 40.5 15s16.833 24.667 19.5 44l29 204h-1l7 50h-123v86h135l13 91c6.66699 45.333 25.834 82.166 57.501 110.499
s68.834 42.5 111.501 42.5h56l-2 -94h-61c-16 0 -29.333 -5 -40 -15s-17.334 -24.667 -20.001 -44l-13 -91h139v-86h-151z" />
    <glyph glyph-name="Scommaaccent" unicode="&#x218;" horiz-adv-x="594" 
d="M454 525c-8 30 -26.6699 53.8311 -56.0029 71.498s-62.666 26.5 -99.999 26.5c-34 0 -63.167 -8.66699 -87.5 -26s-39.5 -39.666 -45.5 -66.999c-0.666992 -3.33301 -1 -8.66602 -1 -15.999c0 -22 7.16699 -41.5 21.5 -58.5s35.833 -28.167 64.5 -33.5
c20 -4.66699 56.667 -11.667 110 -21c60 -11.333 106.333 -34.666 139 -69.999s49 -80.333 49 -135c0 -42.667 -11.5 -79.834 -34.5 -111.501s-53.5 -55.667 -91.5 -72s-79.667 -24.5 -125 -24.5c-44 0 -85.5 7.66699 -124.5 23s-71.167 37.333 -96.5 66
s-39.666 62.667 -42.999 102l102 15c4.66699 -31.333 23.334 -56.666 56.001 -75.999s69.334 -29 110.001 -29c41.333 0 75.166 10 101.499 30s39.5 44.667 39.5 74c0 21.333 -7.16699 41.166 -21.5 59.499s-35.166 31.166 -62.499 38.499
c-24.667 6.66699 -70.334 16.334 -137.001 29.001c-51.333 11.333 -91 33.333 -119 66s-42 75 -42 127c0 39.333 10.667 75 32 107s50 57.333 86 76s75.333 28 118 28c44 0 84.333 -7.5 121 -22.5s67 -35.5 91 -61.5s39.667 -55.333 47 -88zM348.997 -81.002l-86 -167h-98
l91 167h93z" />
    <glyph glyph-name="scommaaccent" unicode="&#x219;" horiz-adv-x="445" 
d="M313 351c-4.66699 18 -15.1641 32.167 -31.4971 42.5s-35.833 15.5 -58.5 15.5c-24 0 -43.333 -5.5 -58 -16.5s-22 -26.167 -22 -45.5c0 -12 4 -22.5 12 -31.5s19.667 -15.167 35 -18.5c40 -10 71.667 -17.333 95 -22c78 -18.667 117 -65.667 117 -141
c0 -43.333 -16.5 -78.666 -49.5 -105.999s-75.167 -41 -126.5 -41c-50.667 0 -93.834 11.833 -129.501 35.5s-57.5 55.5 -65.5 95.5l95 16c3.33301 -18 14 -32.5 32 -43.5s40.667 -16.5 68 -16.5c25.333 0 45 5 59 15s21 24.333 21 43c0 13.333 -4.33301 24.166 -13 32.499
s-23 14.833 -43 19.5c-26.667 5.33301 -57 12.666 -91 21.999c-34.667 8.66699 -61.834 25.334 -81.501 50.001s-29.5 53.667 -29.5 87c0 28 7.5 53.667 22.5 77s35.667 41.833 62 55.5s55.166 20.5 86.499 20.5c47.333 0 88 -11.333 122 -34s55.667 -52.667 65 -90z
M265.003 -76l-86 -167h-98l91 167h93z" />
    <glyph glyph-name="uni021A" unicode="&#x21a;" horiz-adv-x="586" 
d="M571 609h-227v-609h-101v609h-227v101h555v-101zM339 -69l-86 -167h-98l91 167h93z" />
    <glyph glyph-name="uni021B" unicode="&#x21b;" horiz-adv-x="342" 
d="M203 394v-254.999c0 -18.667 3.66699 -31 11 -37s18.333 -9 33 -9l54 -1v-92l-98 1c-34 0 -59.5 10.667 -76.5 32s-25.5 51.666 -25.5 90.999v270h-85v86h85v152h102v-152h98v-86h-98zM231 -68.999l-86 -167h-98l91 167h93z" />
    <glyph glyph-name="circumflex" unicode="&#x2c6;" horiz-adv-x="339" 
d="M223 779l-53 98l-54 -98h-92l85 167h98h23l86 -167h-93z" />
    <glyph glyph-name="caron" unicode="&#x2c7;" horiz-adv-x="339" 
d="M316 946l-86 -167h-98h-23l-85 167h92l54 -98l53 98h93z" />
    <glyph glyph-name="breve" unicode="&#x2d8;" horiz-adv-x="381" 
d="M360 947c-1.33301 -29.333 -9.83398 -56.833 -25.501 -82.5s-36 -46 -61 -61s-52.167 -22.5 -81.5 -22.5c-30 0 -57.833 7.33301 -83.5 22s-46.334 34.834 -62.001 60.501s-24.167 53.5 -25.5 83.5h90c0.666992 -24 9 -43 25 -57s34.667 -21 56 -21
c20.667 0 38.834 7.16699 54.501 21.5s23.834 33.166 24.501 56.499h89z" />
    <glyph glyph-name="dotaccent" unicode="&#x2d9;" horiz-adv-x="184" 
d="M41 810c-14 14 -21 30.666 -21 49.999c0 20 7 37 21 51s31.333 21 52 21c19.333 0 36 -7.16699 50 -21.5s21 -31.166 21 -50.499s-7 -36 -21 -50s-30.667 -21 -50 -21c-20.667 0 -38 7 -52 21z" />
    <glyph glyph-name="ring" unicode="&#x2da;" horiz-adv-x="282" 
d="M49.5 794c-23.667 24 -35.5 53.667 -35.5 89c0 22 5.66699 42.667 17 62s26.5 34.833 45.5 46.5s39.5 17.5 61.5 17.5s42.5 -5.83301 61.5 -17.5s34.167 -27.167 45.5 -46.5s17 -40 17 -62c0 -22.667 -5.66699 -43.5 -17 -62.5s-26.5 -34.167 -45.5 -45.5
s-39.5 -17 -61.5 -17c-35.333 0 -64.833 12 -88.5 36zM178 843.5c10.667 11 16 24.833 16 41.5c0 15.333 -5.33301 28.333 -16 39s-24 16 -40 16s-29.333 -5.33301 -40 -16s-16 -23.667 -16 -39c0 -16.667 5.33301 -30.5 16 -41.5s24 -16.5 40 -16.5s29.333 5.5 40 16.5z
" />
    <glyph glyph-name="ogonek" unicode="&#x2db;" horiz-adv-x="600" 
d="M376 0c-22.667 -2 -39.667 -8.66699 -51 -20s-17 -23.666 -17 -36.999c0 -10.667 3.16699 -19.667 9.5 -27s14.5 -10.666 24.5 -9.99902v-70c-9.33301 -1.33301 -16 -2 -20 -2c-26 0 -46.833 8.16699 -62.5 24.5s-23.5 36.166 -23.5 59.499
c0 14.667 3.66699 29.167 11 43.5s18.333 27.166 33 38.499h96z" />
    <glyph glyph-name="tilde" unicode="&#x2dc;" horiz-adv-x="396" 
d="M34 884c8.66699 18.667 21.166 33.667 37.499 45s34.5 17 54.5 17c44.667 0 79 -21 103 -63c10 -14 18.333 -23.667 25 -29s14 -8 22 -8c7.33301 0 13.333 2.83301 18 8.5s7 12.834 7 21.501c0 7.33301 -1.33301 14.666 -4 21.999h81
c0.666992 -3.33301 1 -8.66602 1 -15.999c0 -32 -10 -59.167 -30 -81.5s-44.333 -33.5 -73 -33.5c-22 0 -42.167 5.83301 -60.5 17.5s-33.833 28.167 -46.5 49.5c-8.66699 13.333 -15.667 22.166 -21 26.499s-12.666 6.5 -21.999 6.5c-7.33301 0 -13.5 -3.33301 -18.5 -10
s-7.5 -15 -7.5 -25c0 -4 0.333008 -7 1 -9h-77c-2 22 1.33301 42.333 10 61z" />
    <glyph glyph-name="hungarumlaut" unicode="&#x2dd;" horiz-adv-x="416" 
d="M5 779l86 167h111l-92 -167h-105zM185 779l92 167h111l-97 -167h-106z" />
    <glyph glyph-name="gravecomb" unicode="&#x300;" 
d="M-239 946h111l86 -167h-106z" />
    <glyph glyph-name="acutecomb" unicode="&#x301;" 
d="M-211 779l86 167h111l-91 -167h-106z" />
    <glyph glyph-name="uni0302" unicode="&#x302;" 
d="M-48 779l-54 98l-54 -98h-92l86 167h98h23l85 -167h-92z" />
    <glyph glyph-name="tildecomb" unicode="&#x303;" 
d="M-359 884c8.66699 18.667 21.166 33.667 37.499 45s34.5 17 54.5 17c44.667 0 79 -21 103 -63c10 -14 18.333 -23.667 25 -29s14 -8 22 -8c7.33301 0 13.333 2.83301 18 8.5s7 12.834 7 21.501c0 7.33301 -1.33301 14.666 -4 21.999h81
c0.666992 -3.33301 1 -8.66602 1 -15.999c0 -32 -10 -59.167 -30 -81.5s-44.333 -33.5 -73 -33.5c-22 0 -42.167 5.83301 -60.5 17.5s-33.833 28.167 -46.5 49.5c-8.66699 13.333 -15.667 22.166 -21 26.499s-12.666 6.5 -21.999 6.5c-7.33301 0 -13.5 -3.33301 -18.5 -10
s-7.5 -15 -7.5 -25c0 -4 0.333008 -7 1 -9h-77c-2 22 1.33301 42.333 10 61z" />
    <glyph glyph-name="uni0304" unicode="&#x304;" 
d="M-23 899v-91h-304v91h304z" />
    <glyph glyph-name="uni0306" unicode="&#x306;" 
d="M-20 947c-1.33301 -29.333 -9.83301 -56.833 -25.5 -82.5s-36.167 -46 -61.5 -61s-52.666 -22.5 -81.999 -22.5c-30 0 -57.667 7.33301 -83 22s-46 34.834 -62 60.501s-24.667 53.5 -26 83.5h90c0.666992 -24 9 -43 25 -57s34.667 -21 56 -21s39.666 7.16699 54.999 21.5
s23.333 33.166 24 56.499h90z" />
    <glyph glyph-name="uni0307" unicode="&#x307;" 
d="M-271 809.5c-14 13.667 -21 30.5 -21 50.5c0 19.333 7 36.166 21 50.499s30.667 21.5 50 21.5s36.166 -7.16699 50.499 -21.5s21.5 -31.166 21.5 -50.499s-7.16699 -36 -21.5 -50s-31.166 -21 -50.499 -21s-36 6.83301 -50 20.5z" />
    <glyph glyph-name="uni0308" unicode="&#x308;" 
d="M-325.5 810c-14.333 14 -21.5 30.666 -21.5 49.999c0 20 7.16699 37 21.5 51s31.5 21 51.5 21c19.333 0 36.166 -7.16699 50.499 -21.5s21.5 -31.166 21.5 -50.499s-7.16699 -36 -21.5 -50s-31.166 -21 -50.499 -21c-20 0 -37.167 7 -51.5 21zM-132.5 809.499
c-13.667 13.667 -20.5 30.5 -20.5 50.5c0 19.333 7 36.166 21 50.499s30.667 21.5 50 21.5s36.166 -7.16699 50.499 -21.5s21.5 -31.166 21.5 -50.499s-7.16699 -36 -21.5 -50s-31.166 -21 -50.499 -21c-20 0 -36.833 6.83301 -50.5 20.5z" />
    <glyph glyph-name="uni030A" unicode="&#x30a;" 
d="M-226.5 794c-23.667 24 -35.5 53.667 -35.5 89c0 22 5.66699 42.667 17 62s26.5 34.833 45.5 46.5s39.5 17.5 61.5 17.5s42.5 -5.83301 61.5 -17.5s34.167 -27.167 45.5 -46.5s17 -40 17 -62c0 -22.667 -5.66699 -43.5 -17 -62.5s-26.5 -34.167 -45.5 -45.5
s-39.5 -17 -61.5 -17c-35.333 0 -64.833 12 -88.5 36zM-98 843.5c10.667 11 16 24.833 16 41.5c0 15.333 -5.33301 28.333 -16 39s-24 16 -40 16s-29.333 -5.33301 -40 -16s-16 -23.667 -16 -39c0 -16.667 5.33301 -30.5 16 -41.5s24 -16.5 40 -16.5s29.333 5.5 40 16.5z
" />
    <glyph glyph-name="uni030B" unicode="&#x30b;" 
d="M-345 779l86 167h111l-92 -167h-105zM-165 779l92 167h111l-97 -167h-106z" />
    <glyph glyph-name="uni030C" unicode="&#x30c;" 
d="M-16 946l-85 -167h-98h-23l-86 167h92l54 -98l54 98h92z" />
    <glyph glyph-name="uni0312" unicode="&#x312;" 
 />
    <glyph glyph-name="uni0326" unicode="&#x326;" 
d="M-23 -69l-86 -167h-98l91 167h93z" />
    <glyph glyph-name="uni0327" unicode="&#x327;" 
d="M-360 -108h87c6.66699 0 11.834 2 15.501 6s5.5 9 5.5 15c0 5.33301 -1.83301 9.5 -5.5 12.5s-8.83398 4.5 -15.501 4.5h-87v53l44 58l48 -1v-29l-23 -29h32c20.667 0 36.667 -7.16699 48 -21.5s17 -30.833 17 -49.5c0 -18 -6 -34.333 -18 -49s-27 -22 -45 -22h-103v52z
" />
    <glyph glyph-name="uni0328" unicode="&#x328;" 
 />
    <glyph glyph-name="uni0335" unicode="&#x335;" 
 />
    <glyph glyph-name="uni0336" unicode="&#x336;" 
 />
    <glyph glyph-name="uni0337" unicode="&#x337;" 
 />
    <glyph glyph-name="uni0338" unicode="&#x338;" 
d="M-592 0l458 710h133l-450 -710h-141z" />
    <glyph glyph-name="uni03A9" unicode="&#x3a9;" horiz-adv-x="638" 
d="M572 81l0.00488281 -80.9971h-206v81c35.333 20 62.666 46.167 81.999 78.5s29 66.166 29 101.499c0 41.333 -13.667 76 -41 104s-64 42.333 -110 43c-47.333 0 -84.833 -14.333 -112.5 -43s-41.5 -64.334 -41.5 -107.001c1.33301 -35.333 11.5 -69 30.5 -101
s45.833 -57.333 80.5 -76v-81h-207v81h91c-56 52 -84 115 -84 189c2 42 14 80.5 36 115.5s51.167 62.5 87.5 82.5s76.166 30 119.499 30s83.166 -10.333 119.499 -31s65.166 -48.334 86.499 -83.001s32.666 -72.667 33.999 -114c0 -74 -28 -137 -84 -189h90z" />
    <glyph glyph-name="pi" unicode="&#x3c0;" horiz-adv-x="622" 
d="M483 394l1 -254.999c0 -18.667 3.5 -31 10.5 -37s18.167 -9 33.5 -9l53 -1v-92l-98 1c-34 0 -59.333 10.667 -76 32s-25 51.666 -25 90.999v270h-174v-394h-101v394h-91v86h192h275h98v-86h-98z" />
    <glyph glyph-name="Wgrave" unicode="&#x1e80;" horiz-adv-x="1086" 
d="M1069 710l-237 -710h-102l-187 539l-188 -539h-101l-237 710h119l169 -550l178 550h119l178 -550l170 550h119zM397 946h111l86 -167h-106z" />
    <glyph glyph-name="wgrave" unicode="&#x1e81;" horiz-adv-x="764" 
d="M750 480l-166 -480h-93h-1l-109 325l-113 -325h-93h-1l-161 480h106l103 -334l107 334h106l103 -334l108 334h104zM238 716h111l86 -167h-106z" />
    <glyph glyph-name="Wacute" unicode="&#x1e82;" horiz-adv-x="1086" 
d="M1069 710l-237 -710h-102l-187 539l-188 -539h-101l-237 710h119l169 -550l178 550h119l178 -550l170 550h119zM489 779l86 167h115l-92 -167h-109z" />
    <glyph glyph-name="wacute" unicode="&#x1e83;" horiz-adv-x="764" 
d="M750 480l-166 -480h-93h-1l-109 325l-113 -325h-93h-1l-161 480h106l103 -334l107 334h106l103 -334l108 334h104zM330 549l86 167h115l-92 -167h-109z" />
    <glyph glyph-name="Wdieresis" unicode="&#x1e84;" horiz-adv-x="1086" 
d="M1069 710l-237 -710h-102l-187 539l-188 -539h-101l-237 710h119l169 -550l178 550h119l178 -550l170 550h119zM389 810c-14 14 -21 30.666 -21 49.999c0 20 7 37 21 51s31.333 21 52 21c19.333 0 36 -7.16699 50 -21.5s21 -31.166 21 -50.499s-7 -36 -21 -50
s-30.667 -21 -50 -21c-20.667 0 -38 7 -52 21zM591.5 809.999c-14.333 14 -21.5 30.666 -21.5 49.999c0 20 7.16699 37 21.5 51s31.5 21 51.5 21c19.333 0 36.166 -7.16699 50.499 -21.5s21.5 -31.166 21.5 -50.499s-7.16699 -36 -21.5 -50s-31.166 -21 -50.499 -21
c-20 0 -37.167 7 -51.5 21z" />
    <glyph glyph-name="wdieresis" unicode="&#x1e85;" horiz-adv-x="764" 
d="M750 480l-166 -480h-93h-1l-109 325l-113 -325h-93h-1l-161 480h106l103 -334l107 334h106l103 -334l108 334h104zM230 580c-14 14 -21 30.666 -21 49.999c0 20 7 37 21 51s31.333 21 52 21c19.333 0 36 -7.16699 50 -21.5s21 -31.166 21 -50.499s-7 -36 -21 -50
s-30.667 -21 -50 -21c-20.667 0 -38 7 -52 21zM432.5 579.999c-14.333 14 -21.5 30.666 -21.5 49.999c0 20 7.16699 37 21.5 51s31.5 21 51.5 21c19.333 0 36.166 -7.16699 50.499 -21.5s21.5 -31.166 21.5 -50.499s-7.16699 -36 -21.5 -50s-31.166 -21 -50.499 -21
c-20 0 -37.167 7 -51.5 21z" />
    <glyph glyph-name="Ygrave" unicode="&#x1ef2;" horiz-adv-x="610" 
d="M355 294v-294h-100v292l-245 418h119l175 -320v1l177 319h119zM161 945h111l86 -167h-106z" />
    <glyph glyph-name="ygrave" unicode="&#x1ef3;" horiz-adv-x="533" 
d="M523 480l-283 -704h-106l91 227l-217 477h107l159 -356l143 356h106zM122 716h111l86 -167h-106z" />
    <glyph glyph-name="endash" unicode="&#x2013;" horiz-adv-x="906" 
d="M841 314v-101h-776v101h776z" />
    <glyph glyph-name="emdash" unicode="&#x2014;" horiz-adv-x="1134" 
d="M1055 314v-101h-977v101h977z" />
    <glyph glyph-name="quoteleft" unicode="&#x2018;" horiz-adv-x="204" 
d="M154.5 590.5c10.333 -12.333 15.5 -26.502 15.5 -42.502c0 -18.667 -6.66699 -34.667 -20 -48s-29.333 -20 -48 -20s-34.667 6.66699 -48 20s-20 29.333 -20 48c0 10.667 2.66699 21.334 8 32.001l52 106h36l-15 -72c16 -3.33301 29.167 -11.166 39.5 -23.499z" />
    <glyph glyph-name="quoteright" unicode="&#x2019;" horiz-adv-x="204" 
d="M161 566l-51.001 -106.001h-36l14 73c-15.333 2.66699 -28.166 10.334 -38.499 23.001s-15.5 26.667 -15.5 42c0 19.333 6.66699 35.5 20 48.5s29.333 19.5 48 19.5s34.667 -6.66699 48 -20s20 -29.333 20 -48c0 -11.333 -3 -22 -9 -32z" />
    <glyph glyph-name="quotesinglbase" unicode="&#x201a;" horiz-adv-x="210" 
d="M199 35l-51 -105.999h-36l15 72c-16 3.33301 -29.167 11.166 -39.5 23.499s-15.5 26.5 -15.5 42.5c0 18.667 6.66699 34.667 20 48s29.333 20 48 20s34.667 -6.66699 48 -20s20 -29.333 20 -48c0 -12 -3 -22.667 -9 -32z" />
    <glyph glyph-name="quotedblleft" unicode="&#x201c;" horiz-adv-x="401" 
d="M174.5 590.5c10.333 -12.333 15.501 -26.502 15.501 -42.502c0 -18.667 -6.83301 -34.667 -20.5 -48s-29.834 -20 -48.501 -20c-18 0 -33.833 6.66699 -47.5 20s-20.5 29.333 -20.5 48c0 12.667 3 23.334 9 32.001l52 106h35l-14 -72
c16 -3.33301 29.167 -11.166 39.5 -23.499zM332.501 590.498c10.333 -12.333 15.501 -26.502 15.501 -42.502c0 -18.667 -6.83301 -34.667 -20.5 -48s-29.834 -20 -48.501 -20c-18 0 -33.833 6.66699 -47.5 20s-20.5 29.333 -20.5 48c0 10.667 3 21.334 9 32.001l52 106h36
l-15 -72c16 -3.33301 29.167 -11.166 39.5 -23.499z" />
    <glyph glyph-name="quotedblright" unicode="&#x201d;" horiz-adv-x="401" 
d="M169.5 646c13.667 -13.333 20.501 -29.3311 20.501 -47.998c0 -9.33301 -3 -20 -9 -32l-52 -106h-35l14 73c-15.333 3.33301 -28.333 11.166 -39 23.499s-16 26.166 -16 41.499c0 18.667 6.66699 34.667 20 48s29.666 20 48.999 20c18 0 33.833 -6.66699 47.5 -20z
M339.001 566.002l-50.999 -105.998h-36l14 73c-15.333 3.33301 -28.333 11.166 -39 23.499s-16 26.166 -16 41.499c0 18.667 6.66699 34.667 20 48s29.666 20 48.999 20c18.667 0 34.667 -6.66699 48 -20s20 -29.333 20 -48c0 -11.333 -3 -22 -9 -32z" />
    <glyph glyph-name="quotedblbase" unicode="&#x201e;" horiz-adv-x="347" 
d="M137 115c13.333 -13.333 19.999 -29.332 19.999 -47.999c0 -12 -3 -22.667 -9 -32l-51 -106h-36l14 72c-15.333 3.33301 -28.166 11.166 -38.499 23.499s-15.5 26.5 -15.5 42.5c0 18.667 6.66699 34.667 20 48s29.333 20 48 20s34.667 -6.66699 48 -20zM306.999 35.001
l-52.001 -105.998h-36l15 72c-16 3.33301 -29.167 11.166 -39.5 23.499s-15.5 26.5 -15.5 42.5c0 18.667 6.83301 34.667 20.5 48s29.834 20 48.501 20c18 0 33.833 -6.66699 47.5 -20s20.5 -29.333 20.5 -48c0 -10.667 -3 -21.334 -9 -32.001z" />
    <glyph glyph-name="dagger" unicode="&#x2020;" horiz-adv-x="328" 
d="M308 535h-107v-271h-74v271h-107v75h107v100h74v-100h107v-75z" />
    <glyph glyph-name="daggerdbl" unicode="&#x2021;" horiz-adv-x="330" 
d="M310 375h-105v-111h-74v111h-109v74h109v76h-111v75h111v110h74v-110h103v-75h-103v-76h105v-74z" />
    <glyph glyph-name="bullet" unicode="&#x2022;" horiz-adv-x="387" 
d="M123.5 135c-21.667 12.667 -39 29.667 -52 51s-19.5 44.333 -19.5 69c0 25.333 6.5 48.833 19.5 70.5s30.333 38.834 52 51.501s45.167 19 70.5 19c24.667 0 47.834 -6.33301 69.501 -19s39 -29.834 52 -51.501s19.5 -45.167 19.5 -70.5
c0 -24.667 -6.5 -47.667 -19.5 -69s-30.333 -38.333 -52 -51s-44.834 -19 -69.501 -19c-25.333 0 -48.833 6.33301 -70.5 19z" />
    <glyph glyph-name="ellipsis" unicode="&#x2026;" horiz-adv-x="762" 
d="M107 6c-13.333 13.333 -20 29 -20 47c0 19.333 6.66699 35.5 20 48.5s29.333 19.5 48 19.5s34.667 -6.66699 48 -20s20 -29.333 20 -48c0 -18 -6.66699 -33.667 -20 -47s-29.333 -20 -48 -20s-34.667 6.66699 -48 20zM333 6c-13.333 13.333 -20 29 -20 47
c0 19.333 6.66699 35.5 20 48.5s29.333 19.5 48 19.5s34.667 -6.66699 48 -20s20 -29.333 20 -48c0 -18 -6.66699 -33.667 -20 -47s-29.333 -20 -48 -20s-34.667 6.66699 -48 20zM559 6c-13.333 13.333 -20 29 -20 47c0 19.333 6.66699 35.5 20 48.5s29.333 19.5 48 19.5
s34.667 -6.66699 48 -20s20 -29.333 20 -48c0 -18 -6.66699 -33.667 -20 -47s-29.333 -20 -48 -20s-34.667 6.66699 -48 20z" />
    <glyph glyph-name="perthousand" unicode="&#x2030;" horiz-adv-x="1359" 
d="M103 397c-28.667 34.667 -42.998 81 -42.998 139c0 57.333 14.833 103.5 44.5 138.5s69.167 52.5 118.5 52.5c48 0 86.333 -17.5 115 -52.5s43 -81.167 43 -138.5s-14.833 -103.5 -44.5 -138.5s-68.834 -52.5 -117.501 -52.5s-87.334 17.333 -116.001 52zM830.002 710
l-541 -710h-104l541 710h104zM158.502 452c15.667 -20.667 36.5 -31.334 62.5 -32.001c26 0.666992 46.667 11.334 62 32.001s23 48.667 23 84c0 34.667 -7.66699 62.334 -23 83.001s-36 31 -62 31h-1c-26 0 -46.667 -10.333 -62 -31s-23 -48.334 -23 -83.001
c0 -35.333 7.83301 -63.333 23.5 -84zM912.002 313.5c28.667 -35 43.002 -81.167 43.002 -138.5s-14.833 -103.5 -44.5 -138.5s-68.834 -52.5 -117.501 -52.5s-87.334 17.333 -116.001 52s-43 81 -43 139c0 57.333 14.833 103.5 44.5 138.5s69.167 52.5 118.5 52.5
c48 0 86.333 -17.5 115 -52.5zM1274.5 36.5c-29.667 -35 -68.832 -52.5 -117.499 -52.5s-87.334 17.333 -116.001 52s-43 81 -43 139c0 57.333 14.833 103.5 44.5 138.5s69.167 52.5 118.5 52.5c48 0 86.333 -17.5 115 -52.5s43 -81.167 43 -138.5
s-14.833 -103.5 -44.5 -138.5zM857.006 91c15.333 20.667 23 48.667 23 84c0 34.667 -7.66699 62.334 -23 83.001s-36 31 -62 31h-1c-26 0 -46.667 -10.333 -62 -31s-23 -48.334 -23 -83.001c0 -35.333 7.83301 -63.333 23.5 -84s36.5 -31.334 62.5 -32.001
c26 0.666992 46.667 11.334 62 32.001zM1220.51 91c15 20.667 22.499 48.6689 22.499 84.002s-7.5 63.166 -22.5 83.499s-35.5 30.5 -61.5 30.5v0h-1v0h-1c-25.333 0 -45.666 -10.333 -60.999 -31s-23 -48.334 -23 -83.001c0 -35.333 7.66699 -63.333 23 -84
s36.333 -31.334 63 -32.001c26 0.666992 46.5 11.334 61.5 32.001z" />
    <glyph glyph-name="minute" unicode="&#x2032;" horiz-adv-x="183" 
d="M76 491l-59 -0.00292969l5 185c0.666992 20.667 7 36.334 19 47.001s25.333 15.334 40 14.001c12 0 22.167 -3.5 30.5 -10.5s12.5 -17.5 12.5 -31.5c0 -5.33301 -1 -11.666 -3 -18.999z" />
    <glyph glyph-name="guilsinglleft" unicode="&#x2039;" horiz-adv-x="334" 
d="M148 240l162 -240h-108l-162 240l162 240h108z" />
    <glyph glyph-name="guilsinglright" unicode="&#x203a;" horiz-adv-x="334" 
d="M294 240l-162 -240h-109l162 240l-162 240h109z" />
    <glyph glyph-name="uni2042" unicode="&#x2042;" horiz-adv-x="643" 
d="M275 592l-48 48l65 9l29 59l30 -59l65 -9l-48 -48l13 -63l-60 30l-57 -30zM92 362l-47 46l65 10l30 58l30 -58l65 -10l-49 -46l12 -65l-59 31l-58 -31zM457 362l-47 46l65 10l28 58l29 -58l66 -10l-47 -46l11 -65l-59 31l-58 -31z" />
    <glyph glyph-name="fraction" unicode="&#x2044;" horiz-adv-x="299" 
d="M-173 0l541 710h104l-541 -710h-104z" />
    <glyph glyph-name="Euro" unicode="&#x20ac;" horiz-adv-x="753" 
d="M728 56c-29.333 -23.333 -63.3301 -41.666 -101.997 -54.999s-77.334 -20 -116.001 -20c-49.333 0 -96.166 10 -140.499 30s-83 47.667 -116 83s-57.833 75.666 -74.5 120.999h-114v96h91c-1.33301 17.333 -2 30.333 -2 39c0 17.333 1 33.333 3 48h-92v96h116
c26.667 68.667 69.667 124 129 166s126 63 200 63c64 0 127 -17 189 -51l-46 -85c-25.333 14 -49.333 24.167 -72 30.5s-46.334 9.5 -71.001 9.5c-46.667 0 -89.667 -12 -129 -36s-70.333 -56.333 -93 -97h240l-25 -96h-248c-2.66699 -13.333 -4 -29.333 -4 -48
c0 -12.667 1 -25.667 3 -39h228l-23 -96h-174c22 -41.333 53.167 -74.5 93.5 -99.5s84.166 -37.5 131.499 -37.5c28.667 0 56.667 4.66699 84 14s51.666 22.333 72.999 39z" />
    <glyph glyph-name="uni2116" unicode="&#x2116;" horiz-adv-x="1257" 
d="M827 282c-37.333 20.667 -67.502 49.001 -90.502 85.001s-34.5 75.667 -34.5 119c0 44.667 11.333 85 34 121s52.667 64.167 90 84.5s77 30.5 119 30.5c42.667 0 82.5 -10.167 119.5 -30.5s66.667 -48.5 89 -84.5s33.5 -76.333 33.5 -121s-11.167 -84.834 -33.5 -120.501
s-52.166 -63.667 -89.499 -84s-77 -30.5 -119 -30.5c-41.333 0 -80.666 10.333 -117.999 31zM521.998 710.001h101v-710h-101l-351 535v-535h-101v710h101l351 -535v535zM842.498 586.001c-27 -26.667 -40.502 -60 -40.502 -100c0 -24 6.33301 -46.833 19 -68.5
s29.834 -39 51.501 -52s45.834 -19.5 72.501 -19.5c27.333 0 51.833 6.5 73.5 19.5s38.5 30.167 50.5 51.5s18 44.333 18 69c0 40 -13.333 73.333 -40 100s-60.667 40 -102 40s-75.5 -13.333 -102.5 -40zM762.996 206.001h364v-82h-364v82z" />
    <glyph glyph-name="uni2117" unicode="&#x2117;" horiz-adv-x="600" 
d="M379.5 692.5c34.333 -20.333 61.666 -47.666 81.999 -81.999s30.5 -71.833 30.5 -112.5c0 -41.333 -10.167 -79.333 -30.5 -114s-47.666 -62 -81.999 -82s-71.833 -30 -112.5 -30c-41.333 0 -79.333 10 -114 30s-62.167 47.333 -82.5 82s-30.5 72.667 -30.5 114
c0 40.667 10.167 78.167 30.5 112.5s47.833 61.666 82.5 81.999s72.667 30.5 114 30.5c40.667 0 78.167 -10.167 112.5 -30.5zM358.5 341.5c27.667 15.667 49.5 37.333 65.5 65s24 58.167 24 91.5s-8 63.666 -24 90.999s-37.833 49 -65.5 65s-58.167 24 -91.5 24
c-34 0 -64.667 -8 -92 -24s-49 -37.667 -65 -65s-24 -57.666 -24 -90.999c0 -34 7.83301 -64.667 23.5 -92s37.167 -48.833 64.5 -64.5s58.333 -23.5 93 -23.5c33.333 0 63.833 7.83301 91.5 23.5zM350 537.999l0.000976562 -5.99902
c-0.666992 -20 -7.83398 -35.167 -21.501 -45.5s-32.167 -14.833 -55.5 -13.5h-24v-78h-44v203h44h24c24 0.666992 42.667 -3.83301 56 -13.5s20.333 -23.834 21 -42.501v-4zM298.501 518c3 3.33301 4.5 8.66699 4.5 16c0 14 -10 21 -30 21h-24v-43h35
c6.66699 0.666992 11.5 2.66699 14.5 6z" />
    <glyph glyph-name="trademark" unicode="&#x2122;" horiz-adv-x="585" 
d="M27 710h203v-50h-79v-210h-48v210h-76v50zM529 710v-260h-47v148l-63 -148h-49l-62 147v-147h-47v260h47l86 -203l88 203h47z" />
    <glyph glyph-name="oneeighth" unicode="&#x215b;" horiz-adv-x="924" 
d="M104 343v255c-2 -0.666992 -5 -1 -9 -1h-59v73h43c6 0 11.333 1.66699 16 5s7.66699 8.33301 9 15v20h73v-367h-73zM85 0l541 710h104l-541 -710h-104zM669 5c-20 10.667 -35.167 24.498 -45.5 41.498s-15.5 34.833 -15.5 53.5s4.33301 36 13 52s20.667 28.667 36 38
c-25.333 19.333 -38 44 -38 74c0 18 5 35.167 15 51.5s24.167 29.5 42.5 39.5s39.5 15 63.5 15c36 0 65 -10.667 87 -32s33 -46.333 33 -75c0 -29.333 -12.667 -53.666 -38 -72.999c14.667 -9.33301 26.667 -22 36 -38s14 -32.667 14 -50
c0 -19.333 -5.16699 -37.666 -15.5 -54.999s-25.5 -31.333 -45.5 -42s-43.667 -16 -71 -16s-51 5.33301 -71 16zM778 234.498c9.33301 7.66699 14 16.833 14 27.5c0.666992 10.667 -3.66602 19.834 -12.999 27.501s-22.333 11.5 -39 11.5
c-17.333 -0.666992 -30.5 -4.66699 -39.5 -12s-13.167 -16.333 -12.5 -27c-0.666992 -10.667 3.66602 -19.834 12.999 -27.501s22.333 -11.5 39 -11.5c16 0 28.667 3.83301 38 11.5zM785 71.9971c10.667 9.33301 16 21 16 35c0 12 -5.33301 22.667 -16 32s-25.667 14 -45 14
c-20 0 -35.333 -4.83301 -46 -14.5s-15.667 -21.167 -15 -34.5c0 -12.667 5.33301 -23.5 16 -32.5s25.667 -13.5 45 -13.5s34.333 4.66699 45 14z" />
    <glyph glyph-name="threeeighths" unicode="&#x215c;" horiz-adv-x="1025" 
d="M308 464c0 -36 -12.501 -66.167 -37.501 -90.5s-55.5 -36.5 -91.5 -36.5c-24.667 0 -47.167 6 -67.5 18s-36 28.5 -47 49.5s-15.5 43.833 -13.5 68.5h72c-0.666992 -2.66699 -1 -6.66699 -1 -12c0 -15.333 5.5 -28 16.5 -38s24.5 -15 40.5 -15s29.5 5.33301 40.5 16
s16.5 24 16.5 40c0 18.667 -6.66699 33.667 -20 45c-10 8 -22.333 12 -37 12c-11.333 0 -21.666 -2.33301 -30.999 -7l-30 57l65 66h-118v73h230v-63l-65 -66c22 -8.66699 38.667 -20.667 50 -36c18.667 -23.333 28 -50.333 28 -81zM185.999 0l541 710h104l-541 -710h-104z
M769.999 5c-20 10.667 -35.167 24.498 -45.5 41.498s-15.5 34.833 -15.5 53.5s4.33301 36 13 52s20.667 28.667 36 38c-25.333 19.333 -38 44 -38 74c0 18 5 35.167 15 51.5s24.167 29.5 42.5 39.5s39.5 15 63.5 15c36 0 65 -10.667 87 -32s33 -46.333 33 -75
c0 -29.333 -12.667 -53.666 -38 -72.999c14.667 -9.33301 26.667 -22 36 -38s14 -32.667 14 -50c0 -19.333 -5.16699 -37.666 -15.5 -54.999s-25.5 -31.333 -45.5 -42s-43.667 -16 -71 -16s-51 5.33301 -71 16zM878.999 234.498c9.33301 7.66699 14 16.833 14 27.5
c0.666992 10.667 -3.66602 19.834 -12.999 27.501s-22.333 11.5 -39 11.5c-17.333 -0.666992 -30.5 -4.66699 -39.5 -12s-13.167 -16.333 -12.5 -27c-0.666992 -10.667 3.66602 -19.834 12.999 -27.501s22.333 -11.5 39 -11.5c16 0 28.667 3.83301 38 11.5zM885.999 71.9971
c10.667 9.33301 16 21 16 35c0 12 -5.33301 22.667 -16 32s-25.667 14 -45 14c-20 0 -35.333 -4.83301 -46 -14.5s-15.667 -21.167 -15 -34.5c0 -12.667 5.33301 -23.5 16 -32.5s25.667 -13.5 45 -13.5s34.333 4.66699 45 14z" />
    <glyph glyph-name="fiveeighths" unicode="&#x215d;" horiz-adv-x="1025" 
d="M123 477c-2 -18 2.66797 -33.5 14.001 -46.5s26.333 -19.5 45 -19.5c16.667 0 31 5.66699 43 17s18 25 18 41c0.666992 19.333 -5 35.166 -17 47.499s-27.667 18.5 -47 18.5c-11.333 0 -21.833 -2.66699 -31.5 -8s-16.167 -11.666 -19.5 -18.999l-67 17l46 185h196v-73
h-139l-11 -41c11.333 3.33301 22.333 5 33 5c37.333 0 68.166 -12.5 92.499 -37.5s36.5 -56.5 36.5 -94.5c0 -23.333 -6 -45 -18 -65s-28.167 -35.833 -48.5 -47.5s-42.5 -17.5 -66.5 -17.5c-25.333 0 -48.333 6.16699 -69 18.5s-36.5 29 -47.5 50
s-15.833 44.167 -14.5 69.5h72zM185.001 0l541 710h104l-541 -710h-104zM770.001 5c-20 10.667 -35.167 24.498 -45.5 41.498s-15.5 34.833 -15.5 53.5s4.33301 36 13 52s20.667 28.667 36 38c-25.333 19.333 -38 44 -38 74c0 18 5 35.167 15 51.5s24.167 29.5 42.5 39.5
s39.5 15 63.5 15c36 0 65 -10.667 87 -32s33 -46.333 33 -75c0 -29.333 -12.667 -53.666 -38 -72.999c14.667 -9.33301 26.667 -22 36 -38s14 -32.667 14 -50c0 -19.333 -5.16699 -37.666 -15.5 -54.999s-25.5 -31.333 -45.5 -42s-43.667 -16 -71 -16s-51 5.33301 -71 16z
M879.001 234.498c9.33301 7.66699 14 16.833 14 27.5c0.666992 10.667 -3.66602 19.834 -12.999 27.501s-22.333 11.5 -39 11.5c-17.333 -0.666992 -30.5 -4.66699 -39.5 -12s-13.167 -16.333 -12.5 -27c-0.666992 -10.667 3.66602 -19.834 12.999 -27.501
s22.333 -11.5 39 -11.5c16 0 28.667 3.83301 38 11.5zM886.001 71.9971c10.667 9.33301 16 21 16 35c0 12 -5.33301 22.667 -16 32s-25.667 14 -45 14c-20 0 -35.333 -4.83301 -46 -14.5s-15.667 -21.167 -15 -34.5c0 -12.667 5.33301 -23.5 16 -32.5s25.667 -13.5 45 -13.5
s34.333 4.66699 45 14z" />
    <glyph glyph-name="seveneighths" unicode="&#x215e;" horiz-adv-x="1034" 
d="M317 710v-76c-43.333 -32 -75 -68.5 -95 -109.5s-31.667 -75 -35 -102s-5 -53.5 -5 -79.5h-76c0 118.667 37.333 215.667 112 291h-167v76h266zM195 0l541 710h104l-541 -710h-104zM779 5c-20 10.667 -35.167 24.498 -45.5 41.498s-15.5 34.833 -15.5 53.5
s4.33301 36 13 52s20.667 28.667 36 38c-25.333 19.333 -38 44 -38 74c0 18 5 35.167 15 51.5s24.167 29.5 42.5 39.5s39.5 15 63.5 15c36 0 65 -10.667 87 -32s33 -46.333 33 -75c0 -29.333 -12.667 -53.666 -38 -72.999c14.667 -9.33301 26.667 -22 36 -38
s14 -32.667 14 -50c0 -19.333 -5.16699 -37.666 -15.5 -54.999s-25.5 -31.333 -45.5 -42s-43.667 -16 -71 -16s-51 5.33301 -71 16zM888 234.498c9.33301 7.66699 14 16.833 14 27.5c0.666992 10.667 -3.66602 19.834 -12.999 27.501s-22.333 11.5 -39 11.5
c-17.333 -0.666992 -30.5 -4.66699 -39.5 -12s-13.167 -16.333 -12.5 -27c-0.666992 -10.667 3.66602 -19.834 12.999 -27.501s22.333 -11.5 39 -11.5c16 0 28.667 3.83301 38 11.5zM895 71.9971c10.667 9.33301 16 21 16 35c0 12 -5.33301 22.667 -16 32s-25.667 14 -45 14
c-20 0 -35.333 -4.83301 -46 -14.5s-15.667 -21.167 -15 -34.5c0 -12.667 5.33301 -23.5 16 -32.5s25.667 -13.5 45 -13.5s34.333 4.66699 45 14z" />
    <glyph glyph-name="arrowleft" unicode="&#x2190;" horiz-adv-x="706" 
d="M588 338c23.333 -13.333 41.6689 -31.6699 55.002 -55.0029s20 -49.333 20 -78v-51c0 -29.333 -6.66699 -55.666 -20 -78.999s-31.833 -41.666 -55.5 -54.999s-49.834 -20 -78.501 -20h-189v63h189c27.333 0 49.333 8.5 66 25.5s25 38.833 25 65.5v51
c0 26.667 -8.5 48.334 -25.5 65.001s-38.833 25 -65.5 25h-322v-107l-139 139l139 138v-107h322c29.333 0 55.666 -6.66699 78.999 -20z" />
    <glyph glyph-name="arrowup" unicode="&#x2191;" horiz-adv-x="548" 
d="M504 480h-106.004v-350c0 -28.667 -6.66699 -54.667 -20 -78s-31.666 -41.666 -54.999 -54.999s-49.666 -20 -78.999 -20h-51c-28.667 0 -54.667 6.66699 -78 20s-41.666 31.666 -54.999 54.999s-20 49.333 -20 78v189h63v-189c0 -26.667 8.33301 -48.334 25 -65.001
s38.334 -25 65.001 -25h51c26.667 0 48.5 8.33301 65.5 25s25.5 38.334 25.5 65.001v350h-108l138 139z" />
    <glyph glyph-name="arrowright" unicode="&#x2192;" horiz-adv-x="706" 
d="M524 188v107.004h-323c-26.667 0 -48.334 -8.33301 -65.001 -25s-25 -38.334 -25 -65.001v-51c0 -26.667 8.33301 -48.5 25 -65.5s38.334 -25.5 65.001 -25.5h189v-63h-189c-28.667 0 -54.667 6.66699 -78 20s-41.666 31.666 -54.999 54.999s-20 49.666 -20 78.999v51
c0 28.667 6.66699 54.667 20 78s31.666 41.666 54.999 54.999s49.333 20 78 20h323v107l139 -138z" />
    <glyph glyph-name="arrowdown" unicode="&#x2193;" horiz-adv-x="544" 
d="M461 575.5c28.667 -29 43 -65.499 43 -109.499v-189h-62v189c0 26.667 -8.5 48.334 -25.5 65.001s-38.833 25 -65.5 25h-51c-26.667 0 -48.5 -8.33301 -65.5 -25s-25.5 -38.334 -25.5 -65.001v-350h108l-138 -139l-139 139h107v350c0 28.667 6.66699 54.667 20 78
s31.666 41.666 54.999 54.999s49.333 20 78 20h51c44.667 0 81.334 -14.5 110.001 -43.5z" />
    <glyph glyph-name="arrowboth" unicode="&#x2194;" horiz-adv-x="795" 
d="M755 244l-170 -170l-48 49l87 86h-292h-161l87 -86l-49 -49l-169 170l169 169l49 -48l-89 -88h294h162l-88 88l48 48z" />
    <glyph glyph-name="arrowupdn" unicode="&#x2195;" horiz-adv-x="430" 
d="M337 213l48 -48l-169 -170l-170 170l49 48l86 -87v292v161l-86 -87l-49 49l170 169l169 -169l-48 -49l-88 89v-294v-163z" />
    <glyph glyph-name="uni2196" unicode="&#x2196;" horiz-adv-x="547" 
d="M503 64l-44 -45l-340 339l-75 -75v197l196 -1l-76 -75z" />
    <glyph glyph-name="uni2197" unicode="&#x2197;" horiz-adv-x="565" 
d="M522 480v-240h-68v124l-363 -364l-47 48l362 364h-124v68h240z" />
    <glyph glyph-name="uni2198" unicode="&#x2198;" horiz-adv-x="547" 
d="M503 197v-197l-196 1l76 76l-339 339l44 45l340 -339z" />
    <glyph glyph-name="uni2199" unicode="&#x2199;" horiz-adv-x="565" 
d="M159 70l124 1v-69h-239v240h68l-1 -123l363 363l48 -47z" />
    <glyph glyph-name="partialdiff" unicode="&#x2202;" horiz-adv-x="611" 
d="M427 614c45.333 -44.667 79.332 -94.833 101.999 -150.5s34 -112.5 34 -170.5c0 -30.667 -3 -60 -9 -88c-8 -48.667 -25 -89.834 -51 -123.501s-57.167 -59 -93.5 -76s-74.166 -25.5 -113.499 -25.5c-42.667 0 -83 9.33301 -121 28s-69 46.334 -93 83.001
s-36.667 80 -38 130c-2.66699 59.333 7.5 110 30.5 152s53.833 73.667 92.5 95s80 32 124 32c26.667 0 52.667 -4.33301 78 -13s48 -21 68 -37c-21.333 40.667 -50.333 76.667 -87 108s-78.667 57 -126 77l35 81c66.667 -23.333 122.667 -57.333 168 -102zM156.499 151.001
c15.667 -26.667 36.333 -46.667 62 -60s53.167 -20 82.5 -20c39.333 0 74.666 12.333 105.999 37s50.333 59.334 57 104.001c2.66699 10 5.33398 25 8.00098 45c-2 36 -11.167 66.5 -27.5 91.5s-36.833 43.833 -61.5 56.5s-51 19 -79 19c-29.333 0 -57 -6.83301 -83 -20.5
s-47.167 -33.834 -63.5 -60.501s-24.5 -58.667 -24.5 -96s7.83301 -69.333 23.5 -96z" />
    <glyph glyph-name="emptyset" unicode="&#x2205;" horiz-adv-x="823" 
d="M707 567c36 -55.333 54 -121 54 -197c0 -74 -14.667 -140.333 -44 -199s-70.5 -104.667 -123.5 -138s-113.5 -50 -181.5 -50c-46.667 0 -90.5 8.5 -131.5 25.5s-77.167 41.167 -108.5 72.5l-77 -69l-55 60l80 73c-38.667 63.333 -58 133 -58 209
c0 70 15.167 133.167 45.5 189.5s72 100.5 125 132.5s112.5 48 178.5 48c47.333 0 92 -8 134 -24s79 -39 111 -69l72 65l55 -60zM203 220l371 336c-43.333 41.333 -97.666 62 -162.999 62c-46.667 0 -87.834 -11.167 -123.501 -33.5s-63.5 -53.5 -83.5 -93.5
s-30 -85.667 -30 -137c0 -49.333 9.66699 -94 29 -134zM622 489l-371.001 -336c20.667 -20 44.834 -35.5 72.501 -46.5s57.167 -16.5 88.5 -16.5c47.333 0 89 11 125 33s63.833 53 83.5 93s29.5 86 29.5 138c0 50.667 -9.33301 95.667 -28 135z" />
    <glyph glyph-name="uni2206" unicode="&#x2206;" horiz-adv-x="700" 
d="M640 99v-99h-580v99l236 611h108zM167 99h366l-183 472z" />
    <glyph glyph-name="product" unicode="&#x220f;" horiz-adv-x="615" 
d="M477 378v-211c0 -31.333 8 -53.5 24 -66.5s36 -19.5 60 -19.5l14 1v-96c-12.667 -2 -25 -3 -37 -3c-48 0 -87.167 15.333 -117.5 46s-45.5 72 -45.5 124v225h-157v-394h-102v394h-88v102h190h259h98v-102h-98z" />
    <glyph glyph-name="summation" unicode="&#x2211;" horiz-adv-x="459" 
d="M47 96l237 195l-237 192v97h365v-94h-234l235 -195l-235 -197h234v-94h-365v96z" />
    <glyph glyph-name="minus" unicode="&#x2212;" horiz-adv-x="417" 
d="M377 274v-88h-337v88h337z" />
    <glyph glyph-name="radical" unicode="&#x221a;" horiz-adv-x="691" 
d="M677 707v-95h-154l-243 -612h-97l-181 480h95l136 -355l230 582h214z" />
    <glyph glyph-name="infinity" unicode="&#x221e;" horiz-adv-x="857" 
d="M817 276c-1.33301 -35.333 -10.5 -67.166 -27.5 -95.499s-40 -50.5 -69 -66.5s-61.5 -24 -97.5 -24c-56.667 0 -109.334 27.333 -158.001 82l-34 37l-14 -16l-13 -15c-26.667 -29.333 -53.667 -51.333 -81 -66s-57.333 -22 -90 -22c-34.667 0 -66.5 8.16699 -95.5 24.5
s-52.167 38.666 -69.5 66.999s-26.666 59.833 -27.999 94.5v4v3c1.33301 34.667 10.666 66.167 27.999 94.5s40.5 50.666 69.5 66.999s60.833 24.5 95.5 24.5c32.667 0 62.667 -7.33301 90 -22s54.333 -36.667 81 -66l13 -15l14 -16l34 37
c48.667 54.667 101.334 82 158.001 82c36 0 68.5 -8 97.5 -24s52 -38.167 69 -66.5s26.167 -60.166 27.5 -95.499v-3v-4zM345.5 255.5c6.33301 7 13.501 15.168 21.501 24.501l-16 17c-12 13.333 -18 20.333 -18 21c-17.333 20 -33.666 34.5 -48.999 43.5
s-32.333 13.5 -51 13.5c-26.667 0 -49.334 -9.16699 -68.001 -27.5s-28.667 -40.833 -30 -67.5c0.666992 -26.667 10.5 -49.334 29.5 -68.001s41.833 -28 68.5 -28c18.667 0 35.667 4.5 51 13.5s31.666 23.5 48.999 43.5c2 2.66699 6.16699 7.5 12.5 14.5zM693.001 210.001
c18 17.333 27.667 40.667 29 70c-1.33301 28.667 -11 51.667 -29 69s-41.333 26 -70 26c-16 0 -31 -4.16699 -45 -12.5s-28.667 -21.5 -44 -39.5c-4.66699 -6.66699 -17.667 -21 -39 -43l39 -44c15.333 -18 30 -31.167 44 -39.5s29 -12.5 45 -12.5
c28.667 0 52 8.66699 70 26z" />
    <glyph glyph-name="integral" unicode="&#x222b;" horiz-adv-x="308" 
d="M306 724l0.00195312 -94h-49c-16.667 0 -29.5 -5 -38.5 -15s-13.5 -24.667 -13.5 -44v-227v-204c0 -45.333 -13.833 -82.166 -41.5 -110.499s-62.834 -42.5 -105.501 -42.5h-56v94h49c16.667 0 29.5 5 38.5 15s13.5 24.667 13.5 44v227v204
c0 45.333 13.667 82.166 41 110.499s62.666 42.5 105.999 42.5h56z" />
    <glyph glyph-name="approxequal" unicode="&#x2248;" horiz-adv-x="463" 
d="M423 433c0 -30.667 -10.6689 -56.001 -32.002 -76.001s-47.666 -30 -78.999 -30c-28.667 0 -61.667 14 -99 42c-28 20 -49.667 30 -65 30c-14 0 -25 -3.5 -33 -10.5s-12.667 -15.5 -14 -25.5h-61c0 30 10.5 55.167 31.5 75.5s47.5 30.5 79.5 30.5
c28.667 0 61.334 -14 98.001 -42c14.667 -10 27.167 -17.5 37.5 -22.5s19.833 -7.5 28.5 -7.5c14 0 24.833 3.33301 32.5 10s12.167 15.334 13.5 26.001h62zM422.998 262.999c0 -30 -10.668 -55.167 -32.001 -75.5s-47.666 -30.5 -78.999 -30.5c-26.667 0 -59.667 14 -99 42
c-28 20 -49.667 30 -65 30c-14 0 -25 -3.5 -33 -10.5s-12.667 -15.5 -14 -25.5h-61c0 30.667 10.5 56 31.5 76s47.5 30 79.5 30c28 0 60.667 -13.667 98 -41c28 -20.667 50 -31 66 -31c14 0 24.833 3.5 32.5 10.5s12.167 15.5 13.5 25.5h62z" />
    <glyph glyph-name="notequal" unicode="&#x2260;" horiz-adv-x="552" 
d="M352 307l-72 -133h223v-88h-271l-63 -116h-96l63 116h-86v88h134l72 133h-206v88h255l68 125h96l-68 -125h102v-88h-151z" />
    <glyph glyph-name="lessequal" unicode="&#x2264;" horiz-adv-x="534" 
d="M490 471l-296 -99l296 -99v-110l-455 156v106l455 155v-109zM35 110h455v-110h-455v110z" />
    <glyph glyph-name="greaterequal" unicode="&#x2265;" horiz-adv-x="579" 
d="M521 425v-106l-455 -156v110l295 99l-295 99v109zM66 110h455v-110h-455v110z" />
    <glyph glyph-name="filledbox" unicode="&#x25a0;" horiz-adv-x="807" 
d="M758 710v-710h-710v710h710z" />
    <glyph glyph-name="uni25A1" unicode="&#x25a1;" horiz-adv-x="807" 
d="M758 710v-710h-710v710h710zM137 89h532v532h-532v-532z" />
    <glyph glyph-name="triagup" unicode="&#x25b2;" horiz-adv-x="943" 
d="M471 710l-423 -710h846z" />
    <glyph glyph-name="uni25B3" unicode="&#x25b3;" horiz-adv-x="940" 
d="M47 3l424 710l422 -710h-846zM470 551l-280 -469h560z" />
    <glyph glyph-name="lozenge" unicode="&#x25ca;" horiz-adv-x="624" 
d="M571 355l-203 -355h-112l-202 355l202 355h112zM452 355l-140 253l-140 -253l140 -253z" />
    <glyph glyph-name="circle" unicode="&#x25cb;" horiz-adv-x="873" 
d="M242 -3c-59.333 34.667 -106.5 81.833 -141.5 141.5s-52.5 124.5 -52.5 194.5s17.5 134.667 52.5 194s82.333 106.5 142 141.5s124.5 52.5 194.5 52.5s134.667 -17.5 194 -52.5s106.5 -82.167 141.5 -141.5s52.5 -124 52.5 -194s-17.5 -134.667 -52.5 -194
s-82.167 -106.5 -141.5 -141.5s-124 -52.5 -194 -52.5c-70.667 0 -135.667 17.333 -195 52zM589 69.999c46.667 27.333 83.666 64.1641 110.999 110.497s41 97.166 41 152.499c0 54.667 -13.833 105.334 -41.5 152.001s-64.667 83.834 -111 111.501
s-96.833 41.5 -151.5 41.5c-55.333 0 -106.333 -13.667 -153 -41s-83.667 -64.333 -111 -111s-41 -97.667 -41 -153s13.667 -106.166 41 -152.499s64.333 -83.166 111 -110.499s97.667 -41 153 -41c54.667 0 105.334 13.667 152.001 41z" />
    <glyph glyph-name="uni25CF" unicode="&#x25cf;" horiz-adv-x="873" 
d="M242 -3c-59.333 34.667 -106.5 81.833 -141.5 141.5s-52.5 124.5 -52.5 194.5s17.5 134.667 52.5 194s82.333 106.5 142 141.5s124.5 52.5 194.5 52.5s134.667 -17.5 194 -52.5s106.5 -82.167 141.5 -141.5s52.5 -124 52.5 -194s-17.5 -134.667 -52.5 -194
s-82.167 -106.5 -141.5 -141.5s-124 -52.5 -194 -52.5c-70.667 0 -135.667 17.333 -195 52z" />
    <glyph glyph-name="uni262E" unicode="&#x262e;" horiz-adv-x="873" 
d="M631 668.5c59.333 -35 106.5 -82.168 141.5 -141.501s52.5 -124 52.5 -194s-17.5 -134.667 -52.5 -194s-82.167 -106.5 -141.5 -141.5s-124 -52.5 -194 -52.5c-70.667 0 -135.667 17.333 -195 52s-106.5 81.834 -141.5 141.501s-52.5 124.5 -52.5 194.5
s17.5 134.667 52.5 194s82.333 106.5 142 141.5s124.5 52.5 194.5 52.5s134.667 -17.5 194 -52.5zM264 583.499c-40.667 -28.333 -72.833 -64.5 -96.5 -108.5s-35.5 -91.333 -35.5 -142c0 -42 8.33301 -82.333 25 -121l242 164v259c-49.333 -6 -94.333 -23.167 -135 -51.5z
M705.501 474.499c-23.667 43.667 -55.668 79.832 -96.001 108.499s-85.166 46 -134.499 52v-259l241 -164c16.667 38.667 25 79 25 121c0 50.667 -11.833 97.834 -35.5 141.501zM285.5 68.4971c35 -20.333 72.833 -32.833 113.5 -37.5v253l-203 -137
c24.667 -32 54.5 -58.167 89.5 -78.5zM588.5 68.4971c35 20.333 64.5 46.5 88.5 78.5l-202 137v-253c40.667 4.66699 78.5 17.167 113.5 37.5z" />
    <glyph glyph-name="smileface" unicode="&#x263a;" horiz-adv-x="873" 
d="M242.5 -3c-59.667 34.667 -107 81.667 -142 141s-52.5 124.666 -52.5 195.999c0 69.333 17.5 133.5 52.5 192.5s82.333 105.833 142 140.5s125.167 52 196.5 52c70 0 134.5 -17.333 193.5 -52s105.667 -81.5 140 -140.5s51.5 -123.167 51.5 -192.5
c0 -71.333 -17.167 -136.666 -51.5 -195.999s-81 -106.333 -140 -141s-123.5 -52 -193.5 -52c-71.333 0 -136.833 17.333 -196.5 52zM595 64.5c47.333 27 84.834 64.168 112.501 111.501s41.5 99.666 41.5 156.999s-13.833 109.833 -41.5 157.5s-65.167 85.167 -112.5 112.5
s-99.333 41 -156 41c-58 0 -110.833 -13.667 -158.5 -41s-85.167 -64.833 -112.5 -112.5s-41 -100.167 -41 -157.5c0 -58.667 13.5 -111.5 40.5 -158.5s64.167 -83.833 111.5 -110.5s100.666 -40 159.999 -40c56.667 0 108.667 13.5 156 40.5zM273.501 379.501
c-11.667 12.333 -17.5 26.5 -17.5 42.5s5.83301 30 17.5 42s25.834 18 42.501 18c16 0 29.667 -6 41 -18s17 -26 17 -42s-5.66699 -30.167 -17 -42.5s-25 -18.5 -41 -18.5c-16.667 0 -30.834 6.16699 -42.501 18.5zM521.501 376.001c-11.667 12 -17.5 26 -17.5 42
s5.83301 30 17.5 42s25.834 18 42.501 18c16 0 29.833 -6 41.5 -18s17.5 -26 17.5 -42s-5.83301 -30 -17.5 -42s-25.5 -18 -41.5 -18c-16.667 0 -30.834 6 -42.501 18zM338.001 297.001c-2 -19.333 1.33301 -37.5 10 -54.5s21 -30.5 37 -40.5s34 -15 54 -15
c30 0 55 10.833 75 32.5s29.333 47.5 28 77.5h69c1.33301 -32 -5.5 -61.667 -20.5 -89s-36 -49.166 -63 -65.499s-56.5 -24.5 -88.5 -24.5s-61.5 8.16699 -88.5 24.5s-47.833 38.166 -62.5 65.499s-21 57 -19 89h69z" />
    <glyph glyph-name="uni2713" unicode="&#x2713;" horiz-adv-x="750" 
d="M705 535l-437 -403l-223 216l66 67l159 -154l370 342z" />
    <glyph glyph-name="uni2780" unicode="&#x2780;" horiz-adv-x="873" 
d="M631 668.5c59.333 -35 106.5 -82.168 141.5 -141.501s52.5 -124 52.5 -194s-17.5 -134.667 -52.5 -194s-82.167 -106.5 -141.5 -141.5s-124 -52.5 -194 -52.5c-70.667 0 -135.667 17.333 -195 52s-106.5 81.834 -141.5 141.501s-52.5 124.5 -52.5 194.5
s17.5 134.667 52.5 194s82.333 106.5 142 141.5s124.5 52.5 194.5 52.5s134.667 -17.5 194 -52.5zM589 69.999c46.667 27.333 83.666 64.1641 110.999 110.497s41 97.166 41 152.499c0 54.667 -13.833 105.334 -41.5 152.001s-64.667 83.834 -111 111.501
s-96.833 41.5 -151.5 41.5c-55.333 0 -106.333 -13.667 -153 -41s-83.667 -64.333 -111 -111s-41 -97.667 -41 -153s13.667 -106.166 41 -152.499s64.333 -83.166 111 -110.499s97.667 -41 153 -41c54.667 0 105.334 13.667 152.001 41zM488.999 509.997l0.999023 -367h-74
v255c-2 -0.666992 -5 -1 -9 -1h-59v73h44c6 0 11.333 1.66699 16 5s7.33398 8.33301 8.00098 15v20h73z" />
    <glyph glyph-name="uni2781" unicode="&#x2781;" horiz-adv-x="873" 
d="M631 668.5c59.333 -35 106.5 -82.168 141.5 -141.501s52.5 -124 52.5 -194s-17.5 -134.667 -52.5 -194s-82.167 -106.5 -141.5 -141.5s-124 -52.5 -194 -52.5c-70.667 0 -135.667 17.333 -195 52s-106.5 81.834 -141.5 141.501s-52.5 124.5 -52.5 194.5
s17.5 134.667 52.5 194s82.333 106.5 142 141.5s124.5 52.5 194.5 52.5s134.667 -17.5 194 -52.5zM589 69.999c46.667 27.333 83.666 64.1641 110.999 110.497s41 97.166 41 152.499c0 54.667 -13.833 105.334 -41.5 152.001s-64.667 83.834 -111 111.501
s-96.833 41.5 -151.5 41.5c-55.333 0 -106.333 -13.667 -153 -41s-83.667 -64.333 -111 -111s-41 -97.667 -41 -153s13.667 -106.166 41 -152.499s64.333 -83.166 111 -110.499s97.667 -41 153 -41c54.667 0 105.334 13.667 152.001 41zM561.999 342.997
c-8 -14.667 -18.5029 -27.833 -31.5029 -39.5s-32.5 -27.5 -58.5 -47.5c-10 -6.66699 -24 -17.334 -42 -32.001l135 1v-72l-254 -1c-0.666992 26.667 2.5 48 9.5 64s19.833 30.667 38.5 44c8 6 15.167 11.5 21.5 16.5s11.833 9.16699 16.5 12.5c32 24 58 44 78 60
c14.667 12.667 23.334 25.334 26.001 38.001c2.66699 19.333 -1.16602 34.833 -11.499 46.5s-25.166 17.5 -44.499 17.5l-11 -1c-14 -2 -24.667 -7.5 -32 -16.5s-11 -21.167 -11 -36.5l1 -11h-73c-2.66699 38 6.83301 69.5 28.5 94.5s50.5 39.167 86.5 42.5h11h14
c34 -3.33301 61.667 -16.833 83 -40.5s32 -53.167 32 -88.5c0 -19.333 -4 -36.333 -12 -51z" />
    <glyph glyph-name="uni2782" unicode="&#x2782;" horiz-adv-x="873" 
d="M631 668.5c59.333 -35 106.5 -82.168 141.5 -141.501s52.5 -124 52.5 -194s-17.5 -134.667 -52.5 -194s-82.167 -106.5 -141.5 -141.5s-124 -52.5 -194 -52.5c-70.667 0 -135.667 17.333 -195 52s-106.5 81.834 -141.5 141.501s-52.5 124.5 -52.5 194.5
s17.5 134.667 52.5 194s82.333 106.5 142 141.5s124.5 52.5 194.5 52.5s134.667 -17.5 194 -52.5zM589 69.999c46.667 27.333 83.666 64.1641 110.999 110.497s41 97.166 41 152.499c0 54.667 -13.833 105.334 -41.5 152.001s-64.667 83.834 -111 111.501
s-96.833 41.5 -151.5 41.5c-55.333 0 -106.333 -13.667 -153 -41s-83.667 -64.333 -111 -111s-41 -97.667 -41 -153s13.667 -106.166 41 -152.499s64.333 -83.166 111 -110.499s97.667 -41 153 -41c54.667 0 105.334 13.667 152.001 41zM537.999 341.997
c18.667 -24 28.002 -51 28.002 -81c0 -36 -12.5 -66.333 -37.5 -91s-55.5 -37 -91.5 -37c-24.667 0 -47.334 6.16699 -68.001 18.5s-36.334 29 -47.001 50s-15 43.833 -13 68.5h72c-0.666992 -2.66699 -1 -6.66699 -1 -12c0 -15.333 5.5 -28 16.5 -38s24.5 -15 40.5 -15
c15.333 0 28.5 5.33301 39.5 16s16.5 24 16.5 40c0 20 -6.66699 35 -20 45c-10 8 -22 12 -36 12c-11.333 0 -22 -2.33301 -32 -7l-29 56v1l64 66h-117v73h230v-64l-65 -65c22 -8.66699 38.667 -20.667 50 -36z" />
    <glyph glyph-name="uni2783" unicode="&#x2783;" horiz-adv-x="873" 
d="M631 668.5c59.333 -35 106.5 -82.168 141.5 -141.501s52.5 -124 52.5 -194s-17.5 -134.667 -52.5 -194s-82.167 -106.5 -141.5 -141.5s-124 -52.5 -194 -52.5c-70.667 0 -135.667 17.333 -195 52s-106.5 81.834 -141.5 141.501s-52.5 124.5 -52.5 194.5
s17.5 134.667 52.5 194s82.333 106.5 142 141.5s124.5 52.5 194.5 52.5s134.667 -17.5 194 -52.5zM589 69.999c46.667 27.333 83.666 64.1641 110.999 110.497s41 97.166 41 152.499c0 54.667 -13.833 105.334 -41.5 152.001s-64.667 83.834 -111 111.501
s-96.833 41.5 -151.5 41.5c-55.333 0 -106.333 -13.667 -153 -41s-83.667 -64.333 -111 -111s-41 -97.667 -41 -153s13.667 -106.166 41 -152.499s64.333 -83.166 111 -110.499s97.667 -41 153 -41c54.667 0 105.334 13.667 152.001 41zM519.999 289.997h46v-72h-46v-68h-74
v68l-170 1v71l170 228h74v-228zM445.999 289.997v110l-81 -110h81z" />
    <glyph glyph-name="uni2784" unicode="&#x2784;" horiz-adv-x="873" 
d="M242 -3c-59.333 34.667 -106.5 81.833 -141.5 141.5s-52.5 124.5 -52.5 194.5s17.5 134.667 52.5 194s82.333 106.5 142 141.5s124.5 52.5 194.5 52.5s134.667 -17.5 194 -52.5s106.5 -82.167 141.5 -141.5s52.5 -124 52.5 -194s-17.5 -134.667 -52.5 -194
s-82.167 -106.5 -141.5 -141.5s-124 -52.5 -194 -52.5c-70.667 0 -135.667 17.333 -195 52zM589 69.999c46.667 27.333 83.666 64.1641 110.999 110.497s41 97.166 41 152.499c0 54.667 -13.833 105.334 -41.5 152.001s-64.667 83.834 -111 111.501
s-96.833 41.5 -151.5 41.5c-55.333 0 -106.333 -13.667 -153 -41s-83.667 -64.333 -111 -111s-41 -97.667 -41 -153s13.667 -106.166 41 -152.499s64.333 -83.166 111 -110.499s97.667 -41 153 -41c54.667 0 105.334 13.667 152.001 41zM373.999 276.997
c-2 -18 2.5 -33.501 13.5 -46.501s25.833 -19.5 44.5 -19.5c17.333 0 32 5.83301 44 17.5s18 25.834 18 42.501c0 18.667 -6 34 -18 46s-27.333 18 -46 18c-11.333 0 -21.833 -2.66699 -31.5 -8s-16.167 -11.666 -19.5 -18.999l-67 17l46 185h195v-73h-138l-12 -41
c11.333 3.33301 22.666 5 33.999 5c37.333 0 68.166 -12.5 92.499 -37.5s36.5 -56.5 36.5 -94.5c0 -23.333 -6 -45 -18 -65s-28.333 -35.833 -49 -47.5s-43 -17.5 -67 -17.5c-25.333 0 -48.166 6.16699 -68.499 18.5s-36.166 29.166 -47.499 50.499s-16.333 44.333 -15 69
h73z" />
    <glyph glyph-name="uni2785" unicode="&#x2785;" horiz-adv-x="873" 
d="M242 -3c-59.333 34.667 -106.5 81.833 -141.5 141.5s-52.5 124.5 -52.5 194.5s17.5 134.667 52.5 194s82.333 106.5 142 141.5s124.5 52.5 194.5 52.5s134.667 -17.5 194 -52.5s106.5 -82.167 141.5 -141.5s52.5 -124 52.5 -194s-17.5 -134.667 -52.5 -194
s-82.167 -106.5 -141.5 -141.5s-124 -52.5 -194 -52.5c-70.667 0 -135.667 17.333 -195 52zM589 69.999c46.667 27.333 83.666 64.1641 110.999 110.497s41 97.166 41 152.499c0 54.667 -13.833 105.334 -41.5 152.001s-64.667 83.834 -111 111.501
s-96.833 41.5 -151.5 41.5c-55.333 0 -106.333 -13.667 -153 -41s-83.667 -64.333 -111 -111s-41 -97.667 -41 -153s13.667 -106.166 41 -152.499s64.333 -83.166 111 -110.499s97.667 -41 153 -41c54.667 0 105.334 13.667 152.001 41zM358.999 490.497
c23.333 16.333 49.001 24.835 77.001 25.502c57.333 -0.666992 99.666 -24 126.999 -70l-54 -36c-16 24.667 -38.667 37 -68 37c-18.667 0 -35.834 -6.33301 -51.501 -19s-25.5 -30.667 -29.5 -54c8.66699 11.333 19.667 20.166 33 26.499s27.333 9.5 42 9.5
c39.333 0 70.333 -12.667 93 -38s34 -56.333 34 -93c0 -39.333 -12.667 -72.166 -38 -98.499s-58.666 -39.5 -99.999 -39.5c-44.667 0.666992 -78.667 18.167 -102 52.5s-35 76.166 -35 125.499c0 38.667 7 75 21 109c10.667 25.333 27.667 46.166 51 62.499zM382 227.499
c11.333 -11.667 25.667 -17.5 43 -17.5c18 0 33.333 6.16699 46 18.5s19 28.5 19 48.5c0 18.667 -6 34 -18 46s-26.333 18.333 -43 19c-16.667 0 -31.5 -6.16699 -44.5 -18.5s-19.5 -28.5 -19.5 -48.5s5.66699 -35.833 17 -47.5z" />
    <glyph glyph-name="uni2786" unicode="&#x2786;" horiz-adv-x="873" 
d="M631 668.5c59.333 -35 106.5 -82.168 141.5 -141.501s52.5 -124 52.5 -194s-17.5 -134.667 -52.5 -194s-82.167 -106.5 -141.5 -141.5s-124 -52.5 -194 -52.5c-70.667 0 -135.667 17.333 -195 52s-106.5 81.834 -141.5 141.501s-52.5 124.5 -52.5 194.5
s17.5 134.667 52.5 194s82.333 106.5 142 141.5s124.5 52.5 194.5 52.5s134.667 -17.5 194 -52.5zM589 69.999c46.667 27.333 83.666 64.1641 110.999 110.497s41 97.166 41 152.499c0 54.667 -13.833 105.334 -41.5 152.001s-64.667 83.834 -111 111.501
s-96.833 41.5 -151.5 41.5c-55.333 0 -106.333 -13.667 -153 -41s-83.667 -64.333 -111 -111s-41 -97.667 -41 -153s13.667 -106.166 41 -152.499s64.333 -83.166 111 -110.499s97.667 -41 153 -41c54.667 0 105.334 13.667 152.001 41zM306.999 509.997l266 0.000976562
v-76c-43.333 -32 -75 -68.5 -95 -109.5s-31.5 -74.833 -34.5 -101.5s-4.5 -53.334 -4.5 -80.001h-77c0 118.667 37.667 215.667 113 291h-168v76z" />
    </font>
</defs>
</svg>
